<?xml version="1.0" encoding="utf-8"?>
<!-- Generator: Adobe Illustrator 20.0.0, SVG Export Plug-In . SVG Version: 6.00 Build 0)  -->
<svg version="1.1" id="Layer_1" xmlns="http://www.w3.org/2000/svg" xmlns:xlink="http://www.w3.org/1999/xlink" x="0px" y="0px"
	 viewBox="0 0 1000 1000" style="enable-background:new 0 0 1000 1000;" xml:space="preserve">
<style type="text/css">
	.st0{fill:#1C92A7;}
	.st1{fill:#004E7B;}
</style>
<g>
	<path class="st0" d="M291.3,922.7c-71.6,0-140.1-6.2-203.9-18.4l-16.3-3.1L5.4,289.8L500.9,78.3l495.5,211.5l-64.9,607.4l-23.5-3.9
		c-54.9-9.1-117.2-13.9-180.1-13.9c-75.3,0-149.9,7.4-215.6,21.3C444.9,915.1,368.5,922.7,291.3,922.7z M112.3,863
		c56.3,9.7,116.4,14.7,179,14.7c74,0,147.2-7.2,211.6-20.9c68.7-14.6,146.5-22.3,224.9-22.3c56.5,0,112.7,3.8,163.9,10.9l56.3-527.2
		L500.9,127.2L53.7,318.2L112.3,863z"/>
</g>
<path class="st1" d="M189.8,269h129.1c44.4,0,78.2,10.6,101.3,31.6c23.1,21.1,34.6,50.4,34.6,88V440c0,48.4-20.2,79.5-60.7,93.2
	c46.2,12.5,69.2,44.2,69.2,94.9V705c0,38.2-11.4,67.7-34.2,88.5c-22.8,20.8-56.7,31.2-101.7,31.2H189.8V269z M394.9,440v-51.3
	c0-18.2-6.7-34.2-20.1-47.9c-13.4-13.7-32.1-20.5-56-20.5h-69.2v192.3h69.2c23.9,0,42.6-7.4,56-22.2
	C388.2,475.6,394.9,458.8,394.9,440z M403.5,705V628c0-18.2-6.8-34.9-20.5-50c-13.7-15.1-32.2-22.7-55.6-22.7h-77.8v218h77.8
	c23.9,0,42.6-6.7,56-20.1C396.8,739.9,403.5,723.8,403.5,705z"/>
<path class="st1" d="M587.5,824.6h-59.8V269h59.8v247.9h168.4V269h59.8v555.6h-59.8V568.2H587.5V824.6z"/>
</svg>
