<?xml version="1.0" encoding="utf-8"?>
<!-- Generator: Adobe Illustrator 23.0.3, SVG Export Plug-In . SVG Version: 6.00 Build 0)  -->
<svg version="1.1" id="Layer_1" xmlns="http://www.w3.org/2000/svg" xmlns:xlink="http://www.w3.org/1999/xlink" x="0px" y="0px"
	 viewBox="0 0 280.75 211.49" style="enable-background:new 0 0 280.75 211.49;" xml:space="preserve">
<style type="text/css">
	.st0{fill:#FFFFFF;}
	.st1{fill:#1D92A7;}
	.st2{fill:#004F7C;}
	.st3{fill:none;}
</style>
<g>
	<g>
		<polygon class="st0" points="140.57,12.19 28.78,59.91 32,89.94 249.16,89.94 252.37,59.91 		"/>
	</g>
	<g>
		<path class="st1" d="M165.11,57.47c0.85,1.19,1.28,2.49,1.22,3.94c-0.02,0.53-0.05,1.05-0.31,1.53c-0.24,0.43-0.49,0.86-0.74,1.29
			c-0.59,1.05-1.48,1.75-2.61,2.13c-0.05,0.02-0.09,0.06-0.15,0.09c0.07,0.08,0.12,0.14,0.18,0.2c0.18,0.17,0.2,0.38,0.06,0.57
			c-0.15,0.21-0.33,0.12-0.51,0.02c-0.26-0.15-0.52-0.29-0.83-0.47c0.02,0.12,0.05,0.18,0.04,0.24c-0.01,0.12,0,0.32-0.06,0.34
			c-0.1,0.05-0.27,0.02-0.37-0.04c-0.25-0.14-0.49-0.33-0.73-0.48c-0.13-0.08-0.27-0.15-0.42-0.23c-0.03,0.07-0.04,0.1-0.05,0.12
			c-0.05,0.14-0.07,0.39-0.14,0.4c-0.13,0.03-0.32-0.04-0.45-0.13c-0.26-0.16-0.5-0.36-0.75-0.56c-0.24,0.49-0.35,0.52-0.77,0.23
			c-0.17-0.11-0.33-0.25-0.45-0.34c-0.12,0.17-0.2,0.41-0.3,0.41c-0.15,0.01-0.32-0.12-0.47-0.21c-0.1-0.06-0.17-0.15-0.26-0.24
			c-0.27,0.36-0.41,0.38-0.74,0.13c-0.25-0.19-0.49-0.38-0.76-0.58c-0.19,0.34-0.44,0.31-0.72,0.14c-0.24,0.62-0.58,0.18-0.85,0.08
			c-0.15,0.28-0.23,0.64-0.43,0.73c-0.23,0.1-0.56-0.06-0.81-0.09c-0.04,0.23-0.07,0.45-0.11,0.67c-0.23-0.04-0.47-0.08-0.73-0.12
			c-0.04,0.06-0.08,0.25-0.15,0.26c-0.32,0.04-0.47,0.19-0.61,0.48c-0.09,0.19-0.44,0.25-0.68,0.38c0.01,0.04,0.04,0.09,0.04,0.13
			c0.01,0.14,0.01,0.27,0.02,0.41c-0.15-0.01-0.31,0-0.44-0.05c-0.15-0.06-0.28-0.18-0.42-0.28c-0.3,0.42-0.36,0.43-0.76,0.14
			c-0.11-0.08-0.24-0.14-0.35-0.23c-0.12-0.09-0.2-0.1-0.31,0.02c-0.14,0.17-0.31,0.16-0.48,0.03c-0.19-0.13-0.38-0.25-0.57-0.37
			c-0.25,0.29-0.4,0.32-0.67,0.16c-0.08-0.05-0.15-0.11-0.22-0.16c-0.15-0.12-0.29-0.17-0.49-0.08c-0.12,0.05-0.31-0.01-0.45-0.07
			c-0.19-0.08-0.36-0.21-0.54-0.31c-0.29,0.3-0.45,0.29-0.75,0c-0.27-0.27-0.57-0.51-0.84-0.78c-0.17-0.17-0.32-0.36-0.48-0.54
			c-0.1-0.12-0.2-0.24-0.31-0.37c-0.25,0.38-0.4,0.37-0.63-0.01c-0.13-0.21-0.26-0.42-0.39-0.62c-0.43,0.23-0.47,0.23-0.77-0.13
			c-0.15-0.18-0.29-0.37-0.44-0.57c-0.28,0.39-0.43,0.39-0.73,0.06c-0.06-0.06-0.21-0.11-0.26-0.08c-0.24,0.17-0.41,0.07-0.59-0.09
			c-0.09-0.08-0.18-0.15-0.27-0.22c-0.35,0.33-0.35,0.33-0.7-0.01c-0.05-0.05-0.11-0.09-0.16-0.14c-0.11-0.13-0.21-0.14-0.32,0
			c-0.15,0.19-0.32,0.18-0.51,0.06c-0.25-0.16-0.48-0.33-0.74-0.48c-0.09-0.05-0.24-0.07-0.32-0.03c-0.16,0.1-0.29,0.18-0.47,0.08
			c-0.04-0.02-0.14,0-0.16,0.04c-0.2,0.28-0.38,0.1-0.57-0.01c-0.12-0.06-0.29-0.15-0.37-0.11c-0.24,0.13-0.43,0.08-0.62-0.06
			c-0.12-0.08-0.21-0.11-0.3,0.03c-0.12,0.17-0.27,0.16-0.42,0.05c-0.19-0.13-0.37-0.29-0.57-0.4c-0.07-0.04-0.23-0.02-0.29,0.04
			c-0.18,0.17-0.33,0.16-0.51,0.02c-0.17-0.14-0.34-0.28-0.53-0.41c-0.06-0.04-0.21-0.08-0.24-0.04c-0.23,0.26-0.43,0.08-0.65-0.01
			c-0.11-0.04-0.25-0.01-0.37-0.01c-0.15,0-0.31,0.03-0.45,0c-0.2-0.03-0.38-0.11-0.5-0.14c-0.09,0.23-0.11,0.44-0.23,0.52
			c-0.07,0.05-0.29-0.04-0.42-0.12c-0.19-0.11-0.36-0.27-0.55-0.37c-0.32-0.17-0.65-0.32-0.98-0.48c-0.01,0.09,0.01,0.13,0.03,0.16
			c0.23,0.36,0.17,0.47-0.23,0.57c-0.17,0.05-0.36,0.16-0.47,0.3c-0.16,0.19-0.31,0.21-0.5,0.1c-0.24-0.14-0.43-0.12-0.63,0.1
			c-0.07,0.08-0.25,0.14-0.33,0.11c-0.09-0.04-0.15-0.2-0.16-0.31c-0.03-0.36,0.23-0.57,0.49-0.74c0.32-0.22,0.68-0.38,0.99-0.61
			c0.22-0.16,0.44-0.23,0.67-0.16c0.37,0.12,0.73,0.29,1.09,0.42c0.1,0.04,0.21,0.06,0.31,0.06c0.22,0.01,0.45-0.02,0.67-0.01
			c0.35,0.02,0.69,0.19,1.07,0.03c0.14-0.06,0.33,0.03,0.5,0.03c0.41,0.02,0.84-0.06,1.22,0.17c0.03,0.01,0.08-0.03,0.12-0.02
			c0.19,0.02,0.39,0.02,0.58,0.06c0.12,0.03,0.22,0.12,0.34,0.18c0.1,0.05,0.21,0.09,0.32,0.14c-0.53-0.44-1-0.89-1.23-1.56
			c-0.02-0.06-0.14-0.11-0.22-0.11c-0.74-0.03-1.47-0.03-2.21-0.09c-1.45-0.12-2.89-0.29-4.35-0.24c-0.17,0.01-0.3,0-0.31,0.21
			c-0.05,0.72-0.35,1.35-0.71,1.95c-0.1,0.17-0.26,0.32-0.42,0.45c-0.46,0.39-1.04,0.5-1.59,0.7c-1.09,0.39-2.18,0.43-3.31,0.26
			c-0.22-0.03-0.44-0.05-0.66-0.1c-1.12-0.25-1.79-1.07-2.26-2c-0.65-1.27-0.74-2.68-0.63-4.09c0.02-0.21-0.03-0.36-0.18-0.51
			c-0.27-0.28-0.43-0.63-0.4-1.01c0.05-0.52,0.08-1.06,0.24-1.55c0.43-1.3,0.92-2.57,1.39-3.85c0.02-0.06,0.09-0.11,0.13-0.17
			c0.05-0.08,0.12-0.17,0.13-0.26c0.13-0.94,0.46-1.82,0.85-2.68c0.02-0.05,0.02-0.12,0.01-0.17c-0.2-0.75,0.06-1.46,0.4-2.06
			c0.42-0.75,1.24-1.11,2.06-1.22c0.67-0.09,1.37,0.03,2.05,0.04c0.46,0.01,0.46-0.02,0.42-0.49c-0.1-0.98-0.23-1.95-0.26-2.93
			c-0.02-0.67,0.06-1.35,0.17-2.01c0.07-0.44,0.45-0.73,0.83-0.71c0.27,0.02,0.31-0.1,0.31-0.31c0-0.13-0.01-0.26,0-0.39
			c0.06-1.33,0.09-2.67,0.2-3.99c0.11-1.23,0.3-2.44,0.47-3.66c0.03-0.2-0.07-0.24-0.22-0.29c-0.3-0.1-0.61-0.17-0.88-0.32
			c-0.5-0.29-0.93-0.68-1.45-0.92c-0.44-0.2-0.48-0.52-0.49-0.9c0-0.11-0.04-0.24,0-0.33c0.1-0.22,0.18-0.47,0.35-0.64
			c0.62-0.61,1.46-0.75,2.25-0.96c0.7-0.19,1.43-0.27,2.14-0.43c1.49-0.35,2.99-0.62,4.51-0.74c1.45-0.12,2.9-0.2,4.36-0.28
			c1.08-0.06,2.16-0.11,3.24-0.12c1.41-0.01,2.83,0.01,4.24,0.04c1.11,0.03,2.22,0.06,3.33,0.15c1.28,0.1,2.55,0.26,3.82,0.42
			c1.34,0.17,2.68,0.35,4.02,0.55c0.82,0.13,1.64,0.27,2.43,0.5c0.77,0.22,1.51,0.55,2.26,0.86c0.4,0.17,0.53,0.48,0.42,0.92
			c-0.05,0.18-0.1,0.23-0.28,0.21c-0.6-0.07-1.21-0.14-1.81-0.2c-0.21-0.02-0.43-0.02-0.64-0.03c0.15,0.2,0.29,0.36,0.38,0.54
			c0.22,0.42,0.41,0.85,0.61,1.27c0.15,0.32,0.32,0.63,0.43,0.96c0.16,0.47,0.26,0.97,0.4,1.45c0.3,1,0.65,1.98,0.91,2.99
			c0.44,1.67,0.84,3.35,1.25,5.02c0.45,1.81,0.98,3.6,1,5.5c0.01,0.94-0.03,1.86-0.21,2.77c-0.08,0.41,0.09,0.59,0.31,0.82
			c0.56,0.59,1.15,1.16,1.67,1.78c0.8,0.95,1.56,1.93,2.34,2.9c0.25,0.31,0.5,0.64,0.76,0.94c0.27,0.31,0.2,0.52-0.21,0.63
			c-0.17,0.05-0.33,0.11-0.59,0.2C164.14,56.16,164.63,56.8,165.11,57.47z M161.82,54.75c0.18-0.2,0.32-0.45,0.5-0.64
			c0.07-0.07,0.22-0.06,0.33-0.09c0,0.11,0.04,0.24-0.01,0.32c-0.18,0.28-0.38,0.54-0.58,0.81c-0.05,0.07-0.11,0.14-0.16,0.21
			c0.01,0.03,0.02,0.06,0.04,0.09c0.56-0.12,1.11-0.24,1.74-0.37c-0.42-0.49-0.79-0.93-1.19-1.39c-0.36,0.47-0.69,0.89-1.03,1.32
			c-0.2,0.15-0.4,0.31-0.64,0.5c0.28,0.06,0.43,0.07,0.45-0.21c0.01-0.1,0.12-0.2,0.19-0.3C161.59,54.91,161.73,54.86,161.82,54.75z
			 M158.29,47.47c-0.01-1.39,0.05-2.79-0.33-4.15c-0.23-0.84-0.51-1.66-0.76-2.49c-0.27-0.94-0.52-1.89-0.8-2.83
			c-0.16-0.53-0.36-1.05-0.51-1.59c-0.22-0.79-0.38-1.59-0.6-2.38c-0.31-1.11-0.65-2.21-0.98-3.31c-0.06-0.19-0.17-0.27-0.37-0.3
			c-0.96-0.14-1.92-0.27-2.88-0.43c-0.7-0.12-1.4-0.29-2.1-0.44c-0.09-0.02-0.18-0.04-0.27-0.05c-0.95-0.09-1.91-0.21-2.86-0.25
			c-0.53-0.02-1.06,0.08-1.59,0.16c-1.15,0.16-2.3,0.34-3.49,0.52c0.09,0.4,0.17,0.82,0.29,1.23c0.3,1,0.59,2,0.94,2.97
			c0.51,1.41,0.79,2.88,1.07,4.35c0.14,0.72,0.31,1.44,0.46,2.16c0.23,1.09,0.46,2.17,0.7,3.26c0.13,0.59,0.3,1.17,0.45,1.75
			c0.04,0.01,0.08,0.02,0.12,0.03c0.16-0.2,0.37-0.39,0.48-0.62c0.12-0.25,0.29-0.37,0.53-0.38c0.74-0.01,1.47-0.01,2.21,0
			c0.45,0.01,0.91,0.05,1.36,0.05c0.82-0.01,1.59,0.28,2.37,0.45c1.25,0.27,2.44,0.71,3.6,1.26c0.57,0.27,1.16,0.52,1.72,0.81
			c0.27,0.14,0.49,0.35,0.74,0.53c0.13,0.1,0.27,0.2,0.4,0.3c0.03-0.02,0.06-0.04,0.09-0.05C158.29,47.85,158.29,47.66,158.29,47.47
			z M140.65,34.97c-0.24-1.01-0.48-2.02-0.75-3.03c-0.17-0.64-0.41-1.27-0.58-1.91c-0.21-0.79-0.38-1.59-0.57-2.39
			c-0.02-0.09-0.04-0.18-0.08-0.26c-0.23-0.51-0.23-0.52-0.08-1.06c-0.08-0.02-0.15-0.04-0.23-0.05c-0.76-0.04-1.51-0.12-2.27-0.11
			c-1.17,0.02-2.33,0.08-3.5,0.15c-0.65,0.04-1.3,0.09-1.95,0.17c-1.04,0.13-2.07,0.28-3.11,0.43c-0.65,0.09-1.29,0.2-1.93,0.31
			c-0.76,0.13-1.53,0.25-2.28,0.41c-0.53,0.12-1.04,0.3-1.55,0.46c-0.31,0.09-0.62,0.18-0.93,0.28c-0.1,0.03-0.19,0.08-0.39,0.17
			c0.52,0.34,0.95,0.64,1.4,0.92c0.17,0.11,0.36,0.17,0.55,0.24c0.1,0.04,0.24,0.11,0.31,0.07c0.29-0.13,0.43-0.03,0.5,0.3
			c0.49-0.56,1.06-0.27,1.55-0.16c1.48,0.33,2.99,0.42,4.49,0.62c0.8,0.11,1.6,0.19,2.41,0.28c0.05,0.01,0.11,0.03,0.15,0.01
			c0.48-0.23,0.95-0.46,1.42-0.7c0.06-0.03,0.12-0.1,0.18-0.11c0.59-0.05,1.17-0.1,1.76-0.12c0.74-0.03,1.49-0.03,2.23-0.04
			c0.51,0,1.03,0.01,1.54,0.03c0.08,0,0.24,0.12,0.23,0.18c-0.01,0.1-0.1,0.21-0.19,0.27c-0.09,0.05-0.21,0.05-0.32,0.05
			c-0.86,0.04-1.71,0.09-2.57,0.12c-0.27,0.01-0.54-0.01-0.81-0.03c-0.41-0.03-0.57,0.06-0.58,0.45c-0.05,1.58-0.5,3.13-0.38,4.73
			c0.04,0.61-0.11,1.23-0.14,1.84c-0.02,0.35,0.04,0.7,0.06,1.06c0.01,0.19,0.12,0.24,0.3,0.27c0.39,0.05,0.77,0.15,1.16,0.2
			c0.11,0.01,0.27-0.03,0.34-0.1c0.37-0.37,0.72-0.76,1.09-1.13c0.62-0.61,1.4-0.86,2.23-1.01c0.54-0.1,1.08-0.2,1.69,0.12
			C140.92,36.21,140.8,35.58,140.65,34.97z M134.8,39.38c-0.65,0.02-1.31,0.04-1.96,0.12c-0.35,0.04-0.69,0.2-0.86,0.58
			c-0.13,0.28-0.4,0.42-0.71,0.46c-0.22,0.03-0.45,0.03-0.66,0.07c-0.62,0.12-1.03-0.3-1.46-0.6c-0.89-0.61-1.89-0.84-2.95-0.89
			c-0.27-0.01-0.54-0.06-0.81-0.06c-0.5,0-1.01,0-1.51,0.06c-0.58,0.07-0.84,0.53-1.07,1.01c-0.33,0.71-0.34,1.46-0.27,2.21
			c0.08,0.89,0.23,1.78,0.36,2.67c0.01,0.08,0.04,0.15,0.05,0.2c0.34,0,0.66,0,1.01,0c-0.02-1.15-0.38-2.26-0.05-3.38
			c0.18,0.3,0.46,3.15,0.35,3.4c0.68,0.34,1.34,0.75,2.06,1.01c0.5,0.18,1.07,0.16,1.6,0.25c0.7,0.12,1.39-0.04,2.08-0.11
			c0.81-0.08,1.39-0.47,1.71-1.23c0.04-0.09,0.19-0.13,0.28-0.19c0.04,0.11,0.14,0.24,0.11,0.33c-0.09,0.3-0.23,0.58-0.38,0.93
			c0.34,0.11,0.68,0.22,1.11,0.36c-0.13-0.43-0.27-0.74-0.32-1.07c-0.14-0.81-0.27-1.63-0.35-2.45c-0.05-0.56-0.03-1.12,0-1.69
			c0.01-0.19,0.15-0.36,0.23-0.55c0.04,0.01,0.09,0.02,0.13,0.02c0.02,0.14,0.05,0.28,0.06,0.42c0.03,0.72,0.03,1.45,0.1,2.17
			c0.06,0.68,0.15,1.37,0.31,2.03c0.09,0.37,0.35,0.69,0.54,1.03c0.03,0.05,0.12,0.07,0.19,0.08c0.91,0.21,1.82,0.39,2.76,0.27
			c0.69-0.09,1.3-0.38,1.88-0.76c0.46-0.3,0.63-0.67,0.67-1.2c0.05-0.69-0.01-1.33-0.43-1.9c-0.02-0.03-0.05-0.07-0.07-0.1
			c-0.01-0.01-0.03-0.02-0.05-0.02c-0.8,0.42-1.65,0.59-2.54,0.46c-0.63-0.1-1.12-0.7-1.15-1.35c-0.04-0.77,0.14-1.49,0.52-2.15
			c0.06-0.1,0.11-0.19,0.21-0.36C135.23,39.44,135.02,39.37,134.8,39.38z M126.51,38.6c0.83,0.07,1.65,0.22,2.39,0.62
			c0.4,0.22,0.77,0.48,1.15,0.72c0.43,0.27,0.91,0.18,1.31,0.02c0.28-0.11,0.46-0.48,0.69-0.74c0.07-0.07,0.14-0.17,0.22-0.19
			c0.3-0.09,0.3-0.3,0.27-0.54c-0.1-0.72-0.22-1.44-0.3-2.16c-0.16-1.55-0.31-3.1-0.45-4.64c-0.04-0.41-0.03-0.4-0.44-0.44
			c-1.45-0.15-2.91-0.3-4.36-0.46c-0.86-0.1-1.72-0.22-2.58-0.34c-0.15-0.02-0.26-0.02-0.29,0.17c-0.15,0.92-0.37,1.83-0.44,2.75
			c-0.07,0.87-0.01,1.76,0.03,2.63c0.04,0.73,0.16,1.46,0.23,2.2c0.02,0.22,0.12,0.3,0.33,0.29c0.19-0.01,0.38,0,0.58,0
			c0-0.01,0-0.02,0-0.03C125.41,38.5,125.96,38.56,126.51,38.6z M115.8,50.42c-0.03,0.17,0.04,0.26,0.22,0.29
			c1,0.14,1.94,0.47,2.85,0.9c1.24,0.59,2.34,1.38,3.15,2.49c0.46,0.62,0.94,1.24,1.16,2.01c0.1,0.36,0.53,0.49,0.86,0.54
			c1.14,0.18,2.28,0.31,3.42,0.44c0.71,0.08,1.43,0.12,2.14,0.17c0.07,0,0.21-0.09,0.21-0.15c0.04-0.42,0.06-0.84,0.08-1.25
			c0.02-0.31,0.03-0.62,0.04-0.94c0.02-0.39,0.04-0.78,0.06-1.17c0.01-0.3-0.15-0.46-0.42-0.55c-1.15-0.35-2.29-0.71-3.44-1.06
			c-1.04-0.32-2.08-0.63-3.13-0.93c-0.4-0.11-0.81-0.16-1.21-0.26c-0.71-0.17-1.41-0.4-2.13-0.54c-1.08-0.2-2.17-0.35-3.25-0.53
			c-0.13-0.02-0.26-0.12-0.43-0.21C115.91,49.91,115.85,50.16,115.8,50.42z M140.59,29.27c0.41-0.04,0.74-0.08,1.07-0.12
			c0.94-0.12,1.88-0.25,2.82-0.37c0.92-0.12,1.83-0.13,2.74,0.05c0.62,0.12,1.27,0.13,1.89,0.25c0.68,0.12,1.35,0.32,2.03,0.45
			c0.82,0.16,1.65,0.29,2.47,0.42c0.11,0.02,0.21,0.02,0.41,0.04c-0.19-0.58-0.37-1.1-0.54-1.62c-0.02-0.07-0.09-0.13-0.08-0.19
			c0.05-0.42-0.25-0.45-0.53-0.49c-1.44-0.17-2.89-0.32-4.33-0.5c-0.74-0.09-1.47-0.27-2.21-0.37c-1.03-0.14-2.06-0.26-3.09-0.35
			c-0.89-0.08-1.79-0.12-2.69-0.18c-0.27-0.02-0.54-0.03-0.84-0.04C140.03,27.32,140.32,28.33,140.59,29.27z M123.53,26.33
			c-0.12,0.04-0.25,0.06-0.37,0.09c-0.09,0.02-0.18,0.09-0.26,0.08c-0.74-0.06-1.35,0.42-2.05,0.54c-0.26,0.05-0.48,0.38-0.71,0.59
			c-0.03,0.03-0.03,0.15,0,0.19c0.03,0.04,0.13,0.05,0.19,0.04c0.48-0.11,0.97-0.21,1.44-0.34c0.41-0.11,0.8-0.27,1.22-0.36
			c0.76-0.16,1.53-0.27,2.29-0.42c0.53-0.1,1.04-0.25,1.57-0.32c1.2-0.16,2.4-0.28,3.61-0.42c0.36-0.04,0.72-0.12,1.08-0.14
			c1.64-0.09,3.29-0.18,4.93-0.25c0.4-0.02,0.81,0.04,1.21,0.04c1.88-0.01,3.76,0.08,5.62,0.29c1.2,0.13,2.4,0.32,3.6,0.48
			c1.21,0.16,2.42,0.3,3.63,0.47c1.42,0.2,2.83,0.44,4.25,0.65c0.48,0.07,0.96,0.1,1.45,0.15c0.02-0.14,0.03-0.23,0.06-0.39
			c-0.78-0.23-1.54-0.49-2.32-0.68c-0.73-0.18-1.48-0.33-2.22-0.45c-1.14-0.18-2.29-0.34-3.43-0.5c-0.94-0.13-1.88-0.26-2.82-0.37
			c-0.56-0.07-1.12-0.1-1.69-0.13c-0.96-0.05-1.92-0.1-2.88-0.12c-1.22-0.02-2.44-0.01-3.66,0c-1.06,0.01-2.12,0.01-3.18,0.04
			c-0.83,0.02-1.67,0.09-2.5,0.14c-1.2,0.08-2.4,0.15-3.59,0.25c-0.59,0.05-1.17,0.19-1.76,0.23c-0.31,0.02-0.58,0.06-0.87,0.23
			c-0.4,0.23-0.87,0.25-1.23,0.19C123.89,26.22,123.71,26.28,123.53,26.33z M140.08,48.97c-0.6-0.04-1.21-0.08-1.81-0.1
			c-0.69-0.02-1.38-0.02-2.08-0.02c-0.91,0-1.82,0-2.72,0.01c-0.88,0.01-1.75,0.04-2.63,0.05c-0.12,0-0.24-0.03-0.36-0.03
			c-0.68,0.01-1.36,0.02-2.05,0.03c-0.01,0.03-0.03,0.06-0.04,0.09c0.21,0.27,0.43,0.54,0.64,0.81c0.04,0.05,0.1,0.08,0.13,0.13
			c0.39,0.72,1.09,0.7,1.76,0.72c0.29,0.01,0.59,0.02,0.88,0.01c0.13,0,0.25-0.06,0.38-0.07c0.13-0.01,0.27-0.01,0.4,0.01
			c0.15,0.02,0.29,0.1,0.44,0.09c1.41-0.01,2.83-0.07,4.24-0.04c1.13,0.03,2.25,0.16,3.38,0.26c0.17,0.01,0.38,0.15,0.5,0.09
			c0.13-0.07,0.18-0.3,0.28-0.45c0.18-0.29,0.38-0.57,0.55-0.87c0.1-0.17,0.19-0.35,0.32-0.61
			C141.5,49.06,140.79,49.01,140.08,48.97z M144.81,61.89c-0.07,0.18-0.18,0.27-0.37,0.22c-0.21-0.06-0.22-0.22-0.23-0.41
			c-0.01-0.28-0.05-0.55-0.08-0.82c-0.01-0.05-0.07-0.09-0.13-0.18c-0.05,0.09-0.11,0.15-0.12,0.22c-0.28,1.23-0.17,2.42,0.64,3.42
			c0.33,0.41,0.87,0.68,1.37,0.9c0.19,0.09,0.53-0.11,0.78-0.22c0.29-0.13,0.48-0.32,0.46-0.71c-0.03-0.52,0.24-0.95,0.61-1.31
			c0.03-0.03,0.08-0.06,0.12-0.09c0.09-0.05,0.26-0.08,0.28-0.15c0.05-0.24,0.1-0.51,0.05-0.74c-0.03-0.13-0.28-0.21-0.4-0.33
			c-0.37-0.38-0.53-1.28-0.28-1.75c0.13-0.25,0.07-0.4-0.09-0.59c-0.43-0.53-1.02-0.65-1.65-0.63c-0.05,0-0.11,0.05-0.16,0.07
			c-0.16,0.06-0.31,0.16-0.48,0.17c-0.26,0.02-0.36,0.16-0.47,0.36c-0.17,0.31-0.36,0.61-0.55,0.94
			C144.7,60.53,145.03,61.38,144.81,61.89z M122.43,46.54c0.01-0.1,0-0.2,0-0.3c-0.02-0.45-0.02-0.44-0.47-0.52
			c-0.63-0.11-1.26-0.28-1.9-0.33c-0.82-0.06-1.64-0.08-2.43,0.32c-0.75,0.38-1,1.06-1.22,1.78c-0.05,0.16,0.02,0.25,0.23,0.25
			c1.04-0.02,2.05,0.2,3.06,0.4c0.94,0.19,1.87,0.4,2.81,0.6c0.04,0.01,0.08,0,0.16-0.01C122.38,47.99,122.38,47.27,122.43,46.54z
			 M148.9,47.97c-0.08,0.32-0.25,0.38-0.49,0.16c-0.16-0.14-0.31-0.28-0.51-0.45c-0.14,0.2-0.24,0.38-0.38,0.53
			c-0.07,0.07-0.21,0.13-0.3,0.11c-0.16-0.02-0.32-0.11-0.43-0.15c-0.06,0.15-0.1,0.38-0.19,0.41c-0.15,0.04-0.34-0.05-0.5-0.11
			c-0.14-0.06-0.27-0.16-0.38-0.23c-0.06,0.31-0.11,0.6-0.17,0.89c-0.04,0.18-0.16,0.25-0.34,0.2c-0.12-0.03-0.25-0.08-0.36-0.12
			c-0.11,0.19-0.21,0.36-0.31,0.55c0.89,0.06,1.64,0.48,2.42,0.8c0.48,0.2,0.98,0.37,1.47,0.55c0.12,0.04,0.24,0.09,0.4,0.16
			c-0.03-0.09-0.04-0.14-0.06-0.19c-0.02-0.11-0.1-0.26-0.06-0.32c0.07-0.08,0.24-0.16,0.33-0.14c0.34,0.09,0.66,0.22,0.99,0.35
			c0.06,0.02,0.12,0.07,0.18,0.11c0.3-0.33,0.35-0.34,0.75-0.15c0.37,0.18,0.76,0.23,1.17,0.15c-0.16-0.59-2.4-2.91-3.19-3.28
			C148.91,47.88,148.91,47.93,148.9,47.97z M153.75,56.46c-0.02,0.04-0.04,0.08-0.06,0.11c0.27,0.58,0.54,1.16,0.83,1.73
			c0.11,0.22,0.33,0.3,0.58,0.31c0.71,0.04,1.43,0.16,2.14,0.14c0.64-0.01,1.27-0.18,1.91-0.25c0.33-0.04,0.67-0.02,1-0.06
			c0.1-0.01,0.25-0.11,0.27-0.19c0.13-0.46,0.24-0.94,0.35-1.41c0.05-0.19,0.09-0.39,0.15-0.64
			C158.53,56.46,156.16,56.87,153.75,56.46z M151.82,49.72c0.41-0.04,0.74-0.11,1.07-0.11c1.19,0.01,2.38,0.03,3.56,0.08
			c0.92,0.04,1.84,0.15,2.83,0.23c-0.52-0.51-1.02-1-1.54-1.47c-0.05-0.04-0.2-0.02-0.28,0.02c-0.19,0.09-0.34,0.07-0.54,0
			c-0.27-0.1-0.59-0.09-0.88-0.15c-1.39-0.27-2.8-0.16-4.2-0.23c-0.16-0.01-0.32,0.08-0.49,0.09c-0.12,0.01-0.28,0.01-0.34-0.06
			c-0.24-0.28-0.34-0.31-0.66-0.12c-0.06,0.03-0.11,0.09-0.17,0.15C150.77,48.72,151.33,49.26,151.82,49.72z M117.65,61.79
			c0.04-0.02,0.05-0.1,0.09-0.15c0.07-0.1,0.14-0.28,0.21-0.28c0.11,0,0.22,0.12,0.33,0.19c0.04,0.03,0.07,0.07,0.16,0.17
			c0.2-0.45,0.38-0.85,0.56-1.26c-0.24-0.06-0.41-0.11-0.62-0.16c-0.13,0.01-0.3,0.02-0.48,0.04c-0.01-0.02-0.01-0.05-0.02-0.07
			c-0.09,0.08-0.17,0.18-0.28,0.22c-0.11,0.04-0.26,0.06-0.36,0.02c-0.32-0.16-0.35-0.88-0.06-1.09c0.29-0.21,0.51-0.13,0.75,0.28
			c0.29-0.08,0.51-0.22,0.52-0.58c0.01-0.31,0.25-0.29,0.55-0.21c-0.07-0.28-0.07-0.55-0.19-0.73c-0.29-0.4-0.51-0.87-1.01-1.11
			c-0.54-0.25-1.01-0.16-1.48,0.14c-0.96,0.59-1.11,1.52-1.07,2.53c0.03,0.73,0.11,1.45,0.44,2.14c0.3,0.63,1.04,0.9,1.72,0.56
			C117.3,62.17,117.31,61.92,117.65,61.79z M144.37,50.12c0.04-0.03,0.08-0.06,0.12-0.1c-0.22-0.03-0.44-0.07-0.61-0.09
			c-0.73,0.55-0.85,1.39-1.13,2.15c-0.12,0.34-0.09,0.39,0.26,0.43c1.09,0.11,2.19,0.2,3.28,0.3c0.87,0.08,1.73,0.15,2.6,0.22
			c0.15,0.01,0.3,0,0.5-0.07c-0.14-0.11-0.27-0.25-0.42-0.33c-0.29-0.15-0.59-0.26-0.89-0.39c-0.2-0.09-0.39-0.18-0.36-0.46
			c0.01-0.05-0.07-0.14-0.13-0.17c-0.68-0.36-1.4-0.58-2.17-0.63c-0.21-0.01-0.42-0.06-0.63-0.08c-0.16-0.01-0.32,0-0.47,0.02
			c-0.2,0.03-0.44,0.1-0.49-0.19c-0.05-0.27,0.17-0.34,0.39-0.36c0.19-0.02,0.37,0,0.56,0c0.01-0.02,0.01-0.04,0.02-0.05
			C144.67,50.26,144.52,50.19,144.37,50.12z M152.99,51.34c0.54-0.02,1.02-0.06,1.49-0.07c1.14-0.03,2.28-0.07,3.42-0.05
			c0.54,0.01,1.09,0.07,1.61,0.22c0.25,0.07,0.45,0.37,0.63,0.59c0.05,0.06-0.07,0.24-0.12,0.42c-0.02-0.04-0.01-0.01,0-0.01
			c0.34-0.01,0.57,0.15,0.75,0.42c0.04,0.06,0.22,0.03,0.34,0.02c0.21-0.01,0.43-0.04,0.69-0.06c-0.77-0.91-1.56-1.84-2.41-2.84
			c-0.05,0.46-0.21,0.5-0.55,0.42c-0.5-0.12-1.04-0.13-1.56-0.16c-0.59-0.04-1.19-0.06-1.78-0.08c-0.24-0.01-0.48,0.04-0.72,0.03
			c-0.6-0.02-1.21-0.07-1.81-0.09c-0.25-0.01-0.49,0.04-0.81,0.07C152.48,50.64,152.76,51.03,152.99,51.34z M146.85,46.34
			c0.01-0.01,0.02-0.03,0.04-0.04c-0.19-0.22-0.39-0.43-0.57-0.65c-0.06-0.07-0.07-0.17-0.11-0.26c0.1,0.01,0.21,0,0.29,0.04
			c0.13,0.06,0.24,0.15,0.35,0.24c0.15,0.12,0.27,0.25,0.5,0.11c0.06-0.04,0.24,0.06,0.33,0.14c0.38,0.35,0.74,0.71,1.11,1.07
			c0.15,0.15,0.71,0.25,0.88,0.14c0.42-0.29,0.9-0.36,1.38-0.34c1.29,0.07,2.58,0.16,3.87,0.27c0.21,0.02,0.42,0.18,0.6,0.32
			c0.21,0.15,0.41,0.22,0.75,0.13c-0.16-0.1-0.26-0.18-0.37-0.22c-0.85-0.36-1.68-0.75-2.55-1.06c-0.68-0.24-1.4-0.37-2.1-0.56
			c-0.29-0.08-0.57-0.22-0.86-0.26c-0.57-0.07-1.14-0.09-1.72-0.12c-0.49-0.03-0.99-0.04-1.48-0.05c-0.36,0-0.73-0.02-1.09,0.04
			c-0.16,0.02-0.3,0.21-0.5,0.36C146.06,45.89,146.45,46.11,146.85,46.34z M152.25,66.23c0.11-0.29,0.14-0.59,0.31-0.73
			c0.24-0.19,0.58-0.26,0.88-0.35c0.07-0.02,0.18,0.02,0.26,0.06c0.18,0.1,0.35,0.17,0.56,0.03c0.07-0.05,0.24,0,0.34,0.05
			c0.22,0.09,0.42,0.2,0.65,0.31c0.09-0.27,0.24-0.42,0.53-0.26c0.04,0.02,0.14-0.01,0.18-0.05c0.16-0.19,0.32-0.12,0.49-0.02
			c0.4,0.24,0.79,0.48,1.21,0.73c0.08-0.09,0.15-0.17,0.23-0.26c-0.79-0.54-1.21-1.31-1.56-2.14c-0.03-0.07-0.16-0.13-0.25-0.15
			c-0.27-0.04-0.54-0.05-0.81-0.09c-0.08-0.01-0.17-0.03-0.23-0.08c-0.48-0.44-1.05-0.26-1.59-0.24c-0.1,0-0.24,0.12-0.27,0.22
			c-0.29,0.98-0.74,1.88-1.3,2.72c-0.02,0.03-0.02,0.07-0.05,0.18C152.03,66.19,152.18,66.22,152.25,66.23z M125.19,58.35
			c1.33,0.13,2.67,0.29,4,0.44c0.12,0.01,0.24,0.02,0.36,0.02c0.06,0,0.14-0.02,0.16-0.06c0.1-0.21,0.21-0.42,0.28-0.65
			c0.09-0.32,0.04-0.4-0.3-0.42c-0.67-0.04-1.35-0.03-2.02-0.08c-0.63-0.05-1.26-0.14-1.89-0.21c-0.61-0.07-1.22-0.12-1.83-0.22
			c-0.33-0.05-0.65-0.19-0.97-0.3C123.58,57.58,124.18,58.26,125.19,58.35z M137.64,63.68c0.01-0.01,0.03-0.02,0.04-0.04
			c-0.03-0.06-0.05-0.12-0.08-0.18c-0.19-0.33-0.11-0.63,0.23-0.79c0.07-0.03,0.18-0.01,0.26,0.02c0.06,0.02,0.1,0.09,0.14,0.15
			c0.34,0.48,0.34,0.48,0.87,0.66c0.02-0.22,0.05-0.44,0.07-0.67c0.14,0.03,0.27,0.06,0.46,0.1c0.32-0.18,0.32-0.18,1.02,0.48
			c0.12-0.05,0.28-0.16,0.34-0.12c0.11,0.08,0.18,0.22,0.24,0.36c0.06,0.12,0.07,0.26,0.11,0.4c0.23-0.04,0.32-0.12,0.28-0.33
			c-0.11-0.58-0.2-1.17-0.31-1.76c-0.05-0.26-0.36-0.42-0.72-0.33c-0.52,0.13-1.03,0.12-1.56,0.06c-0.3-0.03-0.6-0.03-0.9-0.02
			c-0.07,0-0.18,0.08-0.19,0.13c-0.05,0.45-0.44,0.61-0.71,0.85c-0.13,0.12-0.3,0.19-0.47,0.3
			C137.08,63.21,137.36,63.45,137.64,63.68z M115.64,56.23c0.25-0.05,0.53-0.05,0.75-0.17c0.54-0.3,0.99-0.31,1.49,0.05
			c0.08,0.05,0.17,0.09,0.26,0.11c0.31,0.05,0.44,0.26,0.4,0.59c-0.01,0.1,0.05,0.28,0.13,0.32c0.51,0.24,0.73,0.72,0.83,1.2
			c0.16,0.8,0.29,1.62,0.02,2.43c-0.25,0.75-0.53,1.5-1.23,1.96c-0.33,0.22-0.73,0.36-1.11,0.55c0.14,0.02,0.29,0.09,0.42,0.05
			c0.42-0.1,0.88-0.1,1.23-0.42c0.16-0.14,0.4-0.18,0.56-0.32c0.31-0.28,0.58-0.59,0.48-1.07c-0.02-0.08,0.05-0.17,0.07-0.26
			c0.16-0.66,0.41-1.3,0.18-2c-0.12-0.36-0.13-0.75-0.2-1.13c-0.03-0.18-0.06-0.36-0.31-0.38c-0.07-0.01-0.18-0.13-0.18-0.21
			c0.01-0.53-0.36-0.86-0.62-1.25c-0.12-0.18-0.17-0.31,0.02-0.48C117.73,55.13,116.46,55.46,115.64,56.23z M142.9,48.18
			c0.07-0.04,0.11-0.12,0.17-0.17c0.38-0.27,0.39-0.27,0.06-0.61c-0.42-0.44-0.83-0.9-1.3-1.29c-0.22-0.18-0.54-0.28-0.83-0.33
			c-0.5-0.08-0.74,0.47-0.62,0.94c0.15,0.57,0.4,1.11,0.62,1.67c0.02,0.06,0.09,0.11,0.15,0.13c0.27,0.07,0.55,0.14,0.9,0.22
			C142.31,48.56,142.6,48.37,142.9,48.18z M128.78,52.35c-0.53-0.45-1-0.85-1.63-1c-0.6-0.14-1.2-0.27-1.8-0.42
			c-0.13-0.03-0.32-0.16-0.33-0.26c-0.03-0.23-0.17-0.24-0.32-0.27c-0.62-0.13-1.24-0.28-1.86-0.41c-0.84-0.17-1.68-0.35-2.53-0.46
			c-1.01-0.14-2.02-0.21-3.03-0.31c-0.01,0.05-0.02,0.1-0.03,0.15C121.15,50.05,124.9,51.3,128.78,52.35z M121.47,44.32
			c0.03,0.2,0.16,0.41,0.31,0.56c0.08,0.09,0.31,0.13,0.4,0.08c0.09-0.05,0.11-0.26,0.1-0.4c-0.01-0.22-0.05-0.44-0.1-0.66
			c-0.25-1.29-0.24-2.58-0.2-3.89c0-0.11,0.02-0.23-0.01-0.33c-0.03-0.11-0.12-0.3-0.16-0.29c-0.14,0.02-0.34,0.07-0.39,0.17
			c-0.11,0.23-0.18,0.49-0.2,0.75c-0.03,0.3-0.01,0.6-0.01,0.91c-0.03,0-0.06,0-0.09,0.01C121.24,42.26,121.34,43.29,121.47,44.32z
			 M157.84,54.56c0.09-0.11,0.17-0.23,0.27-0.33c0.07-0.06,0.23-0.13,0.25-0.11c0.07,0.08,0.13,0.2,0.14,0.3
			c0.01,0.11-0.06,0.23-0.04,0.39c0.14-0.13,0.27-0.28,0.42-0.39c0.1-0.07,0.23-0.09,0.35-0.14c0.01,0.14,0.07,0.3,0.02,0.41
			c-0.13,0.28-0.3,0.54-0.43,0.84c0.25-0.27,0.49-0.53,0.74-0.8c0.14-0.15,0.28-0.32,0.44-0.46c0.06-0.05,0.16-0.04,0.24-0.06
			c0,0.08,0.04,0.18,0,0.25c-0.07,0.15-0.18,0.29-0.27,0.44c-0.05,0.08-0.1,0.16-0.11,0.26c0.48-0.36,0.79-0.84,1.14-1.39
			c-0.19,0.01-0.31,0.02-0.44,0.03c-1,0.08-2.01,0.15-3.01,0.23c-0.58,0.05-1.16,0.1-1.74,0.16c-0.06,0.01-0.14,0.05-0.17,0.09
			c-0.29,0.41-0.58,0.82-0.87,1.23c-0.03,0.04-0.05,0.08-0.08,0.14c0.32-0.02,0.52-0.19,0.7-0.41c0.16-0.19,0.34-0.37,0.53-0.54
			c0.06-0.05,0.17-0.04,0.25-0.06c0.01,0.1,0.06,0.23,0.02,0.3c-0.11,0.17-0.25,0.31-0.39,0.46c-0.16,0.18-0.33,0.35-0.5,0.52
			c0.02,0.03,0.05,0.06,0.07,0.08c0.2-0.15,0.44-0.28,0.6-0.47c0.35-0.39,0.66-0.81,1-1.21c0.05-0.05,0.13-0.08,0.19-0.12
			c0.03,0.08,0.1,0.17,0.08,0.23c-0.04,0.15-0.1,0.31-0.19,0.43c-0.23,0.31-0.49,0.59-0.73,0.89c-0.05,0.06-0.1,0.14-0.15,0.2
			C156.87,55.63,157.39,55.13,157.84,54.56z M140.66,41.63c-0.15,0.16-0.15,0.28-0.02,0.44c0.57,0.68,1.14,1.36,1.71,2.04
			c0.1,0.12,0.22,0.24,0.33,0.36c0.03-0.02,0.06-0.03,0.1-0.05c-0.27-1.4-0.54-2.79-0.81-4.19c-0.03,0.01-0.06,0.01-0.1,0.02
			C141.46,40.71,141.07,41.18,140.66,41.63z M158.87,51.86c-0.86-0.04-1.73-0.08-2.59-0.07c-0.93,0.01-1.85,0.09-2.78,0.14
			c-0.05,0-0.09,0.03-0.17,0.05c0.05,0.17,0.1,0.33,0.12,0.42c0.28,0.01,0.51,0.04,0.73,0.03c0.12,0,0.28-0.11,0.36-0.07
			c0.35,0.18,0.75-0.05,1.07,0.1c0.4,0.19,0.83,0.14,1.16,0.04c0.31-0.09,0.55-0.14,0.87-0.1c0.25,0.03,0.52-0.13,0.79-0.21
			c0.07-0.02,0.15-0.04,0.2-0.01c0.34,0.13,0.66,0.29,1.02,0.02C159.53,51.88,159.18,51.87,158.87,51.86z M138.89,46.45
			c-0.08,0.03-0.16,0.04-0.22,0.08c-0.37,0.26-0.76,0.47-1.05,0.86c-0.22,0.29-0.69,0.39-1.05,0.58c-0.09,0.05-0.16,0.13-0.23,0.2
			c0.08,0.04,0.17,0.11,0.25,0.12c0.77,0.04,1.55,0.06,2.32,0.09c0.16,0.01,0.32,0.02,0.5,0.03
			C139.23,47.73,139.06,47.11,138.89,46.45z M125.63,47.99c-0.09,0.14-0.17,0.28-0.27,0.4c-0.07,0.09-0.18,0.15-0.28,0.22
			c-0.06,0.04-0.12,0.07-0.19,0.1c0.06,0.07,0.1,0.17,0.18,0.2c0.61,0.28,1.23,0.55,1.85,0.82c0.34,0.14,0.69,0.27,1.03,0.4
			c0.02-0.02,0.03-0.05,0.05-0.07c-0.4-0.5-0.81-1.01-1.21-1.5C126.02,49.09,126.01,48.29,125.63,47.99z M141.31,52.58
			c0.55,0.05,0.65-0.04,0.84-0.53c0.41-1.04,0.85-2.07,1.27-3.1c0.03-0.07,0.05-0.15,0.1-0.28
			C142.96,48.99,141.52,51.59,141.31,52.58z M157.71,60.64c-0.14,0.02-0.32,0.04-0.41-0.03c-0.08-0.08-0.08-0.26-0.09-0.4
			c-0.01-0.07,0.02-0.13,0.03-0.2c0.01-0.19,0.01-0.38,0.02-0.63c-0.52-0.03-1.14-0.06-1.85-0.1c0.22,0.35,0.39,0.61,0.55,0.87
			c0.02-0.01,0.04-0.02,0.05-0.02c-0.04-0.16-0.09-0.32-0.13-0.48c0.03-0.02,0.06-0.04,0.09-0.06c0.19,0.19,0.38,0.38,0.58,0.58
			c0-0.09,0-0.17,0-0.26c0.05,0.01,0.09,0.01,0.1,0.02c0.19,0.26,0.36,0.53,0.55,0.79c0.06,0.07,0.17,0.16,0.24,0.15
			c0.56-0.1,1.12-0.22,1.68-0.34c-0.01-0.04-0.01-0.07-0.02-0.11C158.64,60.5,158.18,60.58,157.71,60.64z M124.31,48.47
			c-0.04-0.1-0.07-0.17-0.1-0.23c-0.04-0.09-0.15-0.22-0.12-0.27c0.24-0.35-0.12-0.49-0.24-0.71c-0.07-0.13-0.13-0.25-0.23-0.43
			c0.4,0.02,0.6,0.23,0.81,0.43c0.21,0.2,0.42,0.4,0.63,0.59c0.03-0.02,0.06-0.04,0.09-0.06c-0.09-0.14-0.16-0.28-0.26-0.41
			c-0.24-0.32-0.47-0.65-0.74-0.93c-0.15-0.15-0.39-0.21-0.62-0.32C123.31,46.89,123.78,48.28,124.31,48.47z M151.84,54.52
			c0.09-0.05,0.2-0.05,0.31-0.07c-0.02,0.12-0.01,0.27-0.08,0.37c-0.09,0.13-0.23,0.22-0.35,0.33c-0.04,0.04-0.06,0.1-0.1,0.14
			c0.01,0.03,0.02,0.05,0.04,0.08c0.1-0.04,0.24-0.04,0.31-0.12c0.25-0.26,0.47-0.55,0.72-0.82c0.07-0.08,0.2-0.11,0.3-0.16
			c0.02,0.13,0.06,0.26,0.04,0.39c-0.02,0.11-0.11,0.21-0.17,0.31c0.02,0.02,0.05,0.04,0.07,0.06c0.24-0.26,0.48-0.51,0.72-0.77
			c-0.01-0.04-0.03-0.07-0.04-0.11c-0.52-0.05-1.03-0.09-1.55-0.13c-0.04,0-0.1,0.03-0.13,0.06c-0.16,0.21-0.32,0.43-0.47,0.64
			c0.02,0.01,0.03,0.03,0.05,0.04C151.62,54.68,151.72,54.58,151.84,54.52z M144.42,53.21c-0.62-0.06-1.16-0.11-1.69-0.16
			c-0.02,0.03-0.04,0.06-0.06,0.08c0.13,0.12,0.31,0.21,0.37,0.35c0.06,0.16,0.01,0.37,0.01,0.61c0.11-0.14,0.19-0.26,0.29-0.37
			c0.07-0.08,0.16-0.13,0.24-0.2c0.05,0.1,0.11,0.19,0.15,0.29c0.02,0.03,0.01,0.08,0.02,0.12c0.03,0.01,0.05,0.03,0.08,0.04
			C144.01,53.75,144.19,53.51,144.42,53.21z M139.62,44.45c0.29-0.01,0.59-0.03,0.97-0.05c-0.37-0.54-0.72-1.03-1.26-1.42
			C139.43,43.51,139.52,43.97,139.62,44.45z M131.68,47.6c-0.09-0.07-0.19-0.13-0.25-0.22c-0.08-0.12-0.13-0.27-0.19-0.41
			c0.14-0.06,0.27-0.11,0.37-0.15c-0.36-0.19-0.48-0.17-0.87,0.2c0.29,0.33,0.61,0.64,0.85,1c0.2,0.3,0.42,0.32,0.71,0.27
			c0.02,0,0.03-0.02,0.11-0.09C132.15,48,131.91,47.8,131.68,47.6z M145.22,53.41c-0.28-0.2-0.34-0.16-0.5,0.08
			c-0.26,0.39-0.56,0.75-0.85,1.12c-0.08,0.11-0.17,0.21-0.3,0.37C144.38,54.65,144.8,54.04,145.22,53.41z M155.31,54.22
			c-0.02-0.03-0.03-0.05-0.05-0.08c-0.34,0-0.69,0-1.03,0.01c-0.04,0-0.1,0.07-0.11,0.12c-0.07,0.22-0.13,0.44-0.15,0.7
			c0.16-0.19,0.31-0.39,0.47-0.57c0.05-0.06,0.13-0.1,0.2-0.14c0.04,0.09,0.13,0.2,0.11,0.28c-0.03,0.13-0.12,0.25-0.2,0.36
			c-0.16,0.22-0.33,0.42-0.5,0.63c0.03,0.03,0.07,0.05,0.1,0.08C154.53,55.15,154.92,54.69,155.31,54.22z M128.89,47.09
			c-0.62,0-1.27,0-2.01,0c0.37,0.13,0.67,0.25,0.97,0.33c0.11,0.03,0.24-0.06,0.37-0.08c0.07-0.01,0.16-0.03,0.22,0
			c0.24,0.11,0.48,0.25,0.77,0.4C129.1,47.51,129,47.33,128.89,47.09z M141.1,53.33c-0.09,0.06-0.15,0.3-0.1,0.4
			c0.09,0.19,0.07,0.33-0.02,0.51c-0.12,0.21-0.21,0.44-0.32,0.66c0.03,0.01,0.05,0.03,0.08,0.04c0.34-0.57,0.68-1.13,1.02-1.7
			c-0.02-0.03-0.05-0.06-0.07-0.09C141.48,53.21,141.26,53.22,141.1,53.33z M130.47,47.51c-0.61-0.67-0.69-0.71-1.15-0.41
			c0.36,0.3,0.71,0.59,1.06,0.88C130.42,47.81,130.44,47.67,130.47,47.51z M160.8,62.03c-0.58-0.07-1.16-0.13-1.74-0.16
			c-0.25-0.01-0.5,0.07-0.75,0.16c0.87,0.16,1.77-0.11,2.61,0.31c0.02-0.04,0.05-0.07,0.07-0.11
			C160.93,62.16,160.88,62.04,160.8,62.03z M158.19,59.33c0.87,0,1.66,0,2.46,0C160.2,58.98,158.8,59.01,158.19,59.33z
			 M146.82,53.42c-0.38-0.03-0.68-0.06-0.98-0.06c-0.06,0-0.14,0.11-0.17,0.18c-0.08,0.18-0.14,0.38-0.16,0.64
			c0.14-0.12,0.3-0.24,0.43-0.37c0.29-0.29,0.28-0.29,0.57,0.02C146.6,53.7,146.68,53.6,146.82,53.42z M147.63,54.17
			c0.2-0.19,0.36-0.36,0.54-0.53c-0.5-0.37-0.99-0.21-1.12,0.36C147.49,53.73,147.49,53.73,147.63,54.17z M161.1,59.7
			c-0.59,0.04-1.14,0.08-1.69,0.12c0,0.03,0,0.06,0,0.09c0.56,0.05,1.12,0.11,1.74,0.17C161.12,59.91,161.11,59.79,161.1,59.7z
			 M136.42,63.48c-0.01-0.11-0.01-0.21-0.02-0.36c-0.35,0.08-0.67,0.15-1.02,0.24C135.71,63.83,136.06,63.53,136.42,63.48z
			 M150.01,53.67c-0.25-0.04-0.5-0.05-0.75-0.06c-0.04,0-0.12,0.09-0.13,0.15c-0.02,0.1-0.01,0.22-0.01,0.39
			c0.15-0.08,0.29-0.13,0.4-0.22c0.21-0.18,0.38-0.23,0.53,0.09C150.28,53.83,150.23,53.71,150.01,53.67z M158.53,61.36
			c0.78-0.2,1.54,0,2.3,0.14c0.06,0.01,0.12-0.02,0.18-0.03c-0.03-0.04-0.05-0.12-0.08-0.13c-0.84-0.05-1.68-0.33-2.52-0.06
			c-0.02,0.01-0.03,0.02-0.1,0.07C158.41,61.36,158.47,61.37,158.53,61.36z M141.66,64.91c0.06,0.08,0.17,0.11,0.25,0.17
			c0.06-0.11,0.17-0.23,0.16-0.33c-0.03-0.18-0.13-0.34-0.21-0.53C141.52,64.51,141.47,64.67,141.66,64.91z M157.68,61.47
			c-0.15,0.02-0.3,0.01-0.42,0.06c-0.05,0.03-0.06,0.21-0.03,0.3c0.07,0.21,0.22,0.3,0.44,0.2
			C157.68,61.86,157.68,61.7,157.68,61.47z M140.37,38.77c0.05-0.45-0.24-0.72-0.78-0.7C139.86,38.32,140.11,38.53,140.37,38.77z
			 M161.97,53.71c-0.33-0.16-0.4-0.09-0.59,0.64C161.58,54.14,161.77,53.93,161.97,53.71z M150.04,52.76
			c0.04,0.39,0.18,0.47,0.73,0.43C150.5,53.03,150.29,52.91,150.04,52.76z M161,60.7c0-0.03,0-0.06,0-0.09c-0.3,0-0.59,0-0.89,0
			C160.41,60.65,160.71,60.81,161,60.7z M145,46.39c0.31,0.11,0.35,0.06,0.31-0.35C145.21,46.15,145.11,46.27,145,46.39z
			 M148.51,53.91c0.03,0.02,0.05,0.05,0.08,0.07c0.11-0.09,0.21-0.18,0.32-0.28c-0.04-0.04-0.07-0.07-0.11-0.11
			C148.46,53.5,148.59,53.79,148.51,53.91z M161.66,56.11c0.01,0.05,0.02,0.09,0.03,0.14c0.18-0.03,0.35-0.06,0.53-0.09
			c-0.01-0.05-0.02-0.09-0.03-0.14C162.01,56.04,161.84,56.07,161.66,56.11z"/>
		<path class="st1" d="M145.79,64.42c0-0.58-0.55-1.13-1.04-1.09c-0.11,0.01-0.27,0.13-0.3,0.23c-0.02,0.1,0.08,0.26,0.17,0.33
			c0.28,0.23,0.64,0.37,0.69,0.8c0.01,0.06,0.11,0.17,0.14,0.16c0.1-0.03,0.22-0.08,0.27-0.16
			C145.78,64.59,145.78,64.46,145.79,64.42z"/>
		<path class="st1" d="M145.48,59.37c-0.01,0.49,0.27,0.72,0.63,0.59c0.21-0.07,0.41-0.17,0.6-0.29c0.18-0.12,0.16-0.29-0.02-0.41
			c-0.06-0.04-0.14-0.08-0.17-0.15c-0.19-0.3-0.46-0.12-0.66-0.07C145.69,59.09,145.57,59.29,145.48,59.37z"/>
		<path class="st1" d="M146.82,61.99c-0.01-0.31-0.14-0.46-0.4-0.46c-0.31,0.01-0.57,0.27-0.56,0.56c0.01,0.25,0.26,0.48,0.5,0.48
			C146.61,62.55,146.83,62.28,146.82,61.99z"/>
		<path class="st1" d="M145.23,63.25c0.06,0.05,0.16,0.18,0.28,0.2c0.25,0.04,0.5-0.28,0.5-0.6c0-0.19-0.06-0.34-0.29-0.34
			C145.53,62.51,145.23,62.89,145.23,63.25z"/>
		<path class="st1" d="M145.09,61.21c0.06,0.05,0.16,0.22,0.3,0.26c0.18,0.05,0.45-0.3,0.44-0.53c-0.01-0.19-0.22-0.39-0.4-0.38
			C145.23,60.57,145.08,60.8,145.09,61.21z"/>
		<path class="st1" d="M146.42,60.85c0.1,0.18,0.19,0.36,0.3,0.52c0.03,0.04,0.2,0.05,0.23,0.02c0.08-0.1,0.18-0.24,0.16-0.35
			c-0.03-0.14-0.14-0.29-0.25-0.4c-0.05-0.06-0.2-0.08-0.27-0.05C146.53,60.63,146.49,60.74,146.42,60.85z"/>
		<path class="st1" d="M146.76,63.06c0.06,0.05,0.21,0.21,0.25,0.19c0.15-0.09,0.3-0.22,0.36-0.38c0.03-0.07-0.15-0.3-0.26-0.31
			C146.86,62.53,146.79,62.74,146.76,63.06z"/>
		<path class="st1" d="M116.39,58.22c0.01-0.29-0.11-0.38-0.34-0.4c-0.22-0.02-0.34,0.07-0.39,0.28c-0.04,0.14-0.09,0.28-0.17,0.41
			c-0.14,0.26-0.06,0.57,0.2,0.7c0.18,0.09,0.46-0.03,0.55-0.29C116.31,58.67,116.35,58.42,116.39,58.22z"/>
		<path class="st1" d="M116.34,61.13c-0.1-0.27-0.18-0.55-0.32-0.8c-0.11-0.18-0.32-0.26-0.52-0.09c-0.19,0.16-0.17,0.34-0.01,0.53
			c0.07,0.08,0.11,0.21,0.14,0.32c0.03,0.1,0,0.22,0.05,0.29c0.08,0.11,0.2,0.19,0.31,0.29c0.1-0.11,0.2-0.22,0.28-0.34
			c0.03-0.04,0.01-0.12,0.02-0.18C116.3,61.15,116.32,61.14,116.34,61.13z"/>
		<path class="st1" d="M118.31,57.88c-0.01-0.28-0.63-0.77-0.98-0.76c-0.08,0-0.18,0.05-0.23,0.11c-0.23,0.27-0.16,0.49,0.17,0.61
			c0.23,0.09,0.44,0.2,0.67,0.28C118.2,58.23,118.32,58.14,118.31,57.88z"/>
		<path class="st1" d="M116.16,59.7c0,0.22,0.21,0.47,0.39,0.46c0.22-0.02,0.32-0.18,0.31-0.37c-0.02-0.2-0.02-0.45-0.32-0.47
			C116.34,59.31,116.16,59.5,116.16,59.7z"/>
		<path class="st1" d="M116.98,58.62c0,0.21,0.24,0.48,0.42,0.48c0.23,0,0.31-0.17,0.34-0.36c0.03-0.2-0.22-0.41-0.47-0.41
			C117.06,58.32,116.98,58.4,116.98,58.62z"/>
		<path class="st1" d="M117.31,61.47c0.08-0.12,0.2-0.24,0.21-0.37c0.02-0.19-0.08-0.35-0.31-0.36c-0.19,0-0.34,0.1-0.3,0.29
			c0.04,0.16,0.17,0.3,0.26,0.44C117.22,61.48,117.26,61.48,117.31,61.47z"/>
	</g>
	<g>
		<g>
			<path class="st2" d="M106.52,84.96h-3.55V71.53h3.36c1.11,0,1.98,0.28,2.59,0.83c0.62,0.56,0.93,1.34,0.93,2.32v1.16
				c0,1.03-0.37,1.66-0.83,2.06c0.67,0.46,1.02,1.2,1.02,2.18v1.74c0,0.99-0.31,1.77-0.92,2.33
				C108.52,84.68,107.64,84.96,106.52,84.96z M105.21,82.9h1.31c0.42,0,0.73-0.11,0.94-0.32c0.22-0.22,0.32-0.47,0.32-0.77v-1.74
				c0-0.3-0.11-0.57-0.35-0.83c-0.22-0.24-0.52-0.36-0.92-0.36h-1.31V82.9z M105.21,77.02h1.11c0.41,0,0.71-0.12,0.93-0.35
				c0.23-0.25,0.34-0.52,0.34-0.84v-1.16c0-0.29-0.11-0.54-0.32-0.77c-0.22-0.22-0.52-0.33-0.94-0.33h-1.11V77.02z"/>
		</g>
		<g>
			<path class="st2" d="M115.18,85.25c-1.19,0-2.12-0.27-2.75-0.81c-0.66-0.56-0.99-1.34-0.99-2.34v-7.71
				c0-0.99,0.33-1.78,0.98-2.34c0.63-0.54,1.55-0.81,2.74-0.81c1.19,0,2.12,0.27,2.75,0.81c0.66,0.56,0.99,1.34,0.99,2.34v7.71
				c0,0.99-0.33,1.78-0.98,2.34C117.3,84.97,116.37,85.25,115.18,85.25z M115.17,73.29c-1.3,0-1.48,0.55-1.48,1.09v7.71
				c0,0.54,0.18,1.09,1.48,1.09c1.3,0,1.48-0.55,1.48-1.09v-7.71C116.65,73.85,116.48,73.29,115.17,73.29z"/>
		</g>
		<g>
			<path class="st2" d="M128.15,84.96h-2.27l-0.66-2.89h-2.96l-0.66,2.89h-2.27l3.04-13.43h2.74L128.15,84.96z M122.72,80.01h2.04
				l-1.02-4.49L122.72,80.01z"/>
		</g>
		<g>
			<path class="st2" d="M131.13,84.96h-2.25V73.58h-2.51v-2.06h7.26v2.06h-2.51V84.96z"/>
		</g>
		<g>
			<path class="st2" d="M141.67,84.96h-2.25v-5.78h-2.9v5.78h-2.25V71.53h2.25v5.59h2.9v-5.59h2.25V84.96z"/>
		</g>
		<g>
			<path class="st2" d="M147.11,85.25c-1.19,0-2.12-0.27-2.75-0.81c-0.66-0.56-0.99-1.34-0.99-2.34v-7.71
				c0-0.99,0.33-1.78,0.98-2.34c0.63-0.54,1.55-0.81,2.74-0.81c1.19,0,2.12,0.27,2.75,0.81c0.66,0.56,0.99,1.34,0.99,2.34v7.71
				c0,0.99-0.33,1.78-0.98,2.34C149.23,84.97,148.3,85.25,147.11,85.25z M147.1,73.29c-1.3,0-1.48,0.55-1.48,1.09v7.71
				c0,0.54,0.18,1.09,1.48,1.09s1.48-0.55,1.48-1.09v-7.71C148.58,73.85,148.41,73.29,147.1,73.29z"/>
		</g>
		<g>
			<path class="st2" d="M156.08,85.25c-1.19,0-2.12-0.27-2.75-0.81c-0.66-0.56-0.99-1.34-0.99-2.34V71.53h2.25V82.1
				c0,0.54,0.18,1.09,1.48,1.09s1.48-0.55,1.48-1.09V71.53h2.25V82.1c0,0.99-0.33,1.78-0.98,2.34
				C158.19,84.97,157.27,85.25,156.08,85.25z"/>
		</g>
		<g>
			<path class="st2" d="M164.92,85.25c-3.06,0-3.71-1.71-3.71-3.15v-2.09h2.25v2.17c0,0.33,0.1,0.56,0.31,0.73
				c0.24,0.19,0.62,0.29,1.15,0.29c0.52,0,0.91-0.1,1.15-0.29c0.21-0.17,0.31-0.39,0.31-0.7c0-0.39-0.04-0.69-0.12-0.91
				c-0.07-0.2-0.24-0.43-0.48-0.68l-3.39-3.31c-0.45-0.44-0.75-0.89-0.92-1.33c-0.17-0.43-0.25-0.97-0.25-1.6
				c0-0.99,0.32-1.78,0.95-2.33c0.62-0.54,1.53-0.82,2.72-0.82c2.94,0,3.55,1.71,3.55,3.15v2.09h-2.25v-2.17
				c0-0.33-0.09-0.57-0.3-0.74c-0.22-0.18-0.58-0.28-1.07-0.28c-0.49,0-0.85,0.09-1.07,0.28c-0.2,0.17-0.29,0.4-0.29,0.72
				c0,0.4,0.04,0.7,0.11,0.91c0.06,0.18,0.23,0.4,0.48,0.63l3.48,3.35c0.41,0.45,0.7,0.9,0.86,1.33c0.16,0.43,0.24,0.96,0.24,1.59
				C168.63,83.54,167.98,85.25,164.92,85.25z"/>
		</g>
		<g>
			<path class="st2" d="M176.82,84.96h-6.59V71.53h6.39v2.06h-4.15v3.54h3.37v2.06h-3.37v3.73h4.34V84.96z"/>
		</g>
	</g>
	<g>
		<g>
			<g>
				<path class="st2" d="M144.02,106.57c2.55,0,3.83,0.52,3.83,1.57c0,0.27-0.09,0.5-0.27,0.68c-0.59,1-1.88,1.5-3.86,1.5
					c-1.98,0-3.77-0.59-5.36-1.78c-2.46,0.73-5.33,2.28-8.61,4.65c-5.1,3.78-7.65,7.49-7.65,11.14c0,4.05,2.76,6.31,8.27,6.76
					c1.09-6.74,4.37-11.79,9.84-15.17c1.78-1.14,3.69-1.95,5.74-2.43c2.05-0.48,3.45-0.8,4.2-0.96c0.75-0.16,2.03-0.39,3.83-0.68
					c1.8-0.3,2.83-0.47,3.11-0.51c4.24-0.73,6.96-1.55,8.16-2.46c1.21-0.91,1.81-1.78,1.81-2.6c0-0.23-0.03-0.48-0.1-0.75
					c-0.07-0.27-0.01-0.43,0.17-0.48c0.18-0.04,0.39,0.02,0.61,0.2c0.36,0.5,0.55,1.12,0.55,1.84c0,0.73-0.46,1.62-1.37,2.66
					c-1.37,1.37-3.26,2.32-5.67,2.87c-0.91,0.23-2.13,0.49-3.66,0.79c-1.53,0.3-2.63,0.54-3.31,0.72c0.86,0.82,1.3,2.05,1.3,3.69
					c0,3.37-2,6.67-6.01,9.91c-4.42,3.55-10.34,5.33-17.76,5.33c-0.05,0.36-0.07,0.93-0.07,1.71c0,3.19,1.06,5.7,3.18,7.55
					c2.12,1.84,4.79,2.77,8.03,2.77c1.14,0,2.12-0.38,2.94-1.13c0.82-0.75,1.23-1.6,1.23-2.56c0-0.32-0.09-0.68-0.27-1.09
					c-0.18-0.41-0.01-0.62,0.51-0.62c0.52,0,0.79,0.6,0.79,1.81c0,1.21-0.52,2.28-1.57,3.21c-1.05,0.93-2.25,1.4-3.62,1.4
					c-3.55,0-6.51-0.98-8.88-2.94c-2.69-2.14-4.03-4.94-4.03-8.4c0-0.77,0.02-1.37,0.07-1.78c-3.96-0.36-6.97-1.37-9.02-3.01
					c-1.87-1.59-2.8-3.35-2.8-5.26c0-4.42,3.37-8.63,10.11-12.64c3.14-1.91,6.22-3.35,9.22-4.3c-1.28-1.41-1.91-3.26-1.91-5.53
					c0-1.18,0.27-2.16,0.82-2.94c1.5-2.14,3.78-3.85,6.83-5.12c3.6-1.59,7.24-2.39,10.93-2.39c4.87,0,7.26,1.53,7.17,4.58
					c-0.09,1.32-0.65,2.47-1.67,3.45c-1.02,0.98-2.15,1.47-3.38,1.47c-1.23,0-1.84-0.32-1.84-0.96c0-0.45,0.3-0.68,0.89-0.68
					l1.16,0.2c0.64,0,1.26-0.39,1.88-1.16c0.61-0.77,0.92-1.55,0.92-2.32c0-1.23-0.71-2.12-2.12-2.66c-0.91-0.32-1.78-0.48-2.6-0.48
					c-3.83,0-7.01,0.8-9.56,2.39c-2.55,1.59-4.42,3.37-5.6,5.33c-0.68,1.14-1.02,2.32-1.02,3.55c0,1.23,0.27,2.16,0.82,2.8
					C141.08,106.82,142.65,106.57,144.02,106.57z M153.31,117.37c0-2-0.87-3.01-2.6-3.01c-0.55,0-1.66,0.2-3.35,0.62
					c-8.79,3.28-13.91,8.68-15.37,16.19c1,0,2-0.07,3.01-0.2c5.88-0.64,10.54-2.5,14-5.6C151.87,122.76,153.31,120.1,153.31,117.37z
					 M145.79,108.35c0-0.41-0.6-0.62-1.81-0.62c-1.21,0-2.49,0.14-3.86,0.41c1.14,0.73,2.37,1.09,3.69,1.09
					C145.13,109.24,145.79,108.94,145.79,108.35z"/>
			</g>
			<g>
				<path class="st2" d="M142.92,146.6c-3.65,0-6.74-1.02-9.18-3.05c-2.79-2.22-4.2-5.17-4.2-8.77c0-0.54,0.01-0.99,0.03-1.35
					c-3.81-0.41-6.77-1.44-8.8-3.06c-1.98-1.69-2.98-3.58-2.98-5.63c0-4.58,3.48-8.97,10.34-13.05c2.93-1.78,5.84-3.17,8.66-4.13
					c-1.05-1.42-1.58-3.19-1.58-5.3c0-1.28,0.31-2.36,0.91-3.21c1.55-2.2,3.91-3.98,7.04-5.29c3.63-1.61,7.37-2.43,11.11-2.43
					c3.16,0,5.29,0.61,6.51,1.87c0.79,0.81,1.17,1.89,1.13,3.19c-0.1,1.46-0.71,2.72-1.82,3.78c-1.11,1.06-2.36,1.6-3.71,1.6
					c-1.92,0-2.32-0.78-2.32-1.43c0-0.27,0.1-1.16,1.36-1.16l1.24,0.21c0.4-0.01,0.91-0.34,1.42-0.99c0.54-0.68,0.82-1.37,0.82-2.03
					c0-1.02-0.59-1.75-1.81-2.22c-0.84-0.29-1.67-0.45-2.42-0.45c-3.72,0-6.85,0.78-9.31,2.32c-2.48,1.55-4.31,3.29-5.45,5.17
					c-0.63,1.06-0.96,2.17-0.96,3.31c0,0.96,0.18,1.72,0.53,2.26c1.69-0.45,3.21-0.68,4.53-0.68c1.06,0,4.3,0,4.3,2.05
					c0,0.37-0.13,0.71-0.37,0.97c-0.69,1.12-2.12,1.69-4.24,1.69c-2,0-3.83-0.58-5.45-1.73c-2.35,0.74-5.12,2.25-8.24,4.51
					c-4.95,3.66-7.46,7.28-7.46,10.75c0,3.69,2.42,5.74,7.4,6.25c1.18-6.64,4.54-11.7,9.98-15.06c1.81-1.16,3.79-2,5.88-2.48
					c2.05-0.48,3.46-0.8,4.21-0.96c0.77-0.16,2.06-0.39,3.85-0.69c1.8-0.3,2.83-0.47,3.11-0.51c4.14-0.71,6.82-1.51,7.96-2.37
					c1.08-0.81,1.62-1.56,1.62-2.22c0-0.19-0.03-0.4-0.09-0.64c-0.16-0.64,0.18-0.97,0.51-1.05c0.34-0.08,0.68,0.02,1.03,0.29
					l0.09,0.09c0.42,0.58,0.64,1.3,0.64,2.12c0,0.85-0.49,1.83-1.48,2.98c-1.45,1.45-3.43,2.46-5.92,3.02
					c-0.91,0.23-2.15,0.49-3.67,0.79c-1.04,0.2-1.89,0.38-2.54,0.53c0.61,0.87,0.91,2.01,0.91,3.41c0,3.5-2.08,6.96-6.19,10.28
					c-4.4,3.54-10.33,5.36-17.63,5.43c-0.02,0.32-0.03,0.73-0.03,1.24c0,3.03,1.01,5.45,3.01,7.19c2.02,1.76,4.62,2.65,7.72,2.65
					c1.02,0,1.88-0.33,2.62-1c0.72-0.66,1.08-1.39,1.08-2.21c0-0.25-0.08-0.55-0.23-0.9c-0.19-0.43-0.1-0.72,0.01-0.89
					c0.17-0.26,0.49-0.39,0.94-0.39c0.84,0,1.26,0.77,1.26,2.29c0,1.34-0.58,2.54-1.73,3.56C145.72,146.09,144.4,146.6,142.92,146.6
					z M137.38,108.37c-2.84,0.94-5.79,2.33-8.77,4.14c-6.56,3.9-9.88,8.02-9.88,12.23c0,1.76,0.89,3.41,2.63,4.9
					c1.96,1.56,4.9,2.54,8.75,2.89l0.48,0.04l-0.05,0.48c-0.04,0.39-0.07,0.97-0.07,1.72c0,3.34,1.26,5.97,3.85,8.03
					c2.28,1.88,5.16,2.83,8.59,2.83c1.26,0,2.34-0.42,3.31-1.28c0.95-0.85,1.41-1.78,1.41-2.86c0-0.98-0.19-1.34-0.31-1.34
					c-0.02,0-0.03,0-0.03,0c0.18,0.5,0.27,0.88,0.27,1.23c0,1.09-0.47,2.07-1.38,2.91c-0.91,0.83-2,1.25-3.26,1.25
					c-3.34,0-6.14-0.97-8.34-2.88c-2.22-1.93-3.34-4.59-3.34-7.91c0-0.81,0.02-1.38,0.07-1.77l0.05-0.42h0.42
					c7.28,0,13.15-1.76,17.47-5.22c3.87-3.12,5.83-6.33,5.83-9.54c0-1.5-0.39-2.62-1.15-3.35l-0.62-0.58l0.82-0.22
					c0.69-0.18,1.82-0.43,3.35-0.72c1.5-0.29,2.72-0.55,3.63-0.78c2.32-0.53,4.15-1.45,5.45-2.74c0.81-0.93,1.23-1.72,1.23-2.33
					c0-0.54-0.11-0.99-0.33-1.37c0.03,0.21,0.05,0.39,0.05,0.55c0,0.99-0.65,1.96-2,2.98c-1.28,0.97-4.02,1.8-8.37,2.55
					c-0.27,0.05-1.31,0.22-3.11,0.51c-1.77,0.29-3.05,0.52-3.81,0.68c-0.75,0.16-2.15,0.48-4.19,0.95
					c-1.99,0.46-3.87,1.26-5.59,2.36c-5.32,3.28-8.56,8.28-9.62,14.84l-0.07,0.43l-0.44-0.04c-5.77-0.48-8.7-2.91-8.7-7.24
					c0-3.78,2.64-7.66,7.84-11.52C132.41,110.68,135.07,109.19,137.38,108.37z M138.44,108.03l0.19,0.14
					c1.5,1.12,3.21,1.68,5.08,1.68c1.79,0,2.95-0.43,3.45-1.27l0.07-0.09c0.09-0.09,0.13-0.2,0.13-0.35c0-0.95-2.1-1.1-3.35-1.1
					c-1.31,0-2.86,0.25-4.59,0.73l-0.22,0.06l0.82-0.16c1.39-0.28,2.72-0.42,3.95-0.42c0.62,0,2.29,0,2.29,1.09
					c0,0.9-0.83,1.36-2.46,1.36c-1.41,0-2.74-0.39-3.95-1.17l-0.99-0.63l0.26-0.05l-0.19-0.23c-0.62-0.72-0.93-1.77-0.93-3.11
					c0-1.31,0.37-2.59,1.09-3.8c1.22-2.01,3.15-3.86,5.76-5.49c2.62-1.64,5.92-2.46,9.82-2.46c0.87,0,1.79,0.17,2.75,0.5
					c1.62,0.63,2.44,1.67,2.44,3.11c0,0.88-0.34,1.76-1.02,2.62c-0.71,0.89-1.46,1.34-2.25,1.34l-1.24-0.21
					c-0.33,0.01-0.33,0.11-0.33,0.22c0,0.42,0.86,0.48,1.37,0.48c1.11,0,2.11-0.44,3.05-1.34c0.94-0.9,1.44-1.93,1.53-3.14
					c0.03-1.03-0.25-1.85-0.87-2.48c-1.02-1.05-2.98-1.59-5.83-1.59c-3.61,0-7.22,0.79-10.74,2.35c-2.96,1.24-5.19,2.91-6.64,4.96
					c-0.49,0.69-0.73,1.59-0.73,2.66c0,2.15,0.6,3.9,1.79,5.22L138.44,108.03L138.44,108.03z M141.63,108.37
					c0.7,0.26,1.43,0.39,2.18,0.39c0.86,0,1.44-0.14,1.5-0.37c-0.09-0.05-0.39-0.18-1.33-0.18
					C143.23,108.21,142.45,108.26,141.63,108.37z M131.99,131.64h-0.58l0.11-0.56c1.48-7.65,6.76-13.22,15.67-16.55
					c1.79-0.44,2.92-0.64,3.51-0.64c1.4,0,3.07,0.6,3.07,3.48c0,2.86-1.5,5.67-4.46,8.35c-3.52,3.15-8.32,5.08-14.27,5.72
					C134.04,131.57,133.01,131.64,131.99,131.64z M150.71,114.83c-0.35,0-1.19,0.1-3.24,0.6c-8.31,3.1-13.33,8.23-14.9,15.25
					c0.78-0.02,1.57-0.09,2.36-0.19c5.76-0.63,10.38-2.47,13.75-5.49c2.75-2.49,4.15-5.06,4.15-7.64
					C152.83,115.12,151.7,114.83,150.71,114.83z"/>
			</g>
		</g>
	</g>
	<g>
		<path class="st2" d="M19.15,141.49c-3.9,0-6.92-0.91-8.98-2.69c-2.09-1.82-3.16-4.41-3.16-7.69v-26.94c0-3.28,1.04-5.86,3.08-7.68
			c2.01-1.79,5.01-2.7,8.92-2.7c3.9,0,6.92,0.91,8.98,2.69c2.09,1.82,3.16,4.41,3.16,7.69v7.35h-6.61v-7.35
			c0-2.07-0.62-4.44-5.45-4.44s-5.45,2.37-5.45,4.44v26.94c0,2.07,0.62,4.44,5.45,4.44s5.45-2.37,5.45-4.44v-4.65h6.61v4.65
			c0,3.28-1.04,5.86-3.08,7.68C26.06,140.58,23.05,141.49,19.15,141.49z"/>
	</g>
	<g>
		<path class="st2" d="M62.64,140.48h-6.66l-2.29-10.1H42.34l-2.29,10.1h-6.66L43.72,94.8h8.59L62.64,140.48z M43.64,124.44h8.67
			l-4.33-19.13L43.64,124.44z"/>
	</g>
	<g>
		<path class="st2" d="M92.3,140.48h-7.32l-7.88-15.49h-3.92v15.49h-6.61V94.8h11.12c3.73,0,6.63,0.92,8.62,2.74
			c2.02,1.84,3.04,4.41,3.04,7.64v9.43c0,4.6-1.86,7.72-5.54,9.27L92.3,140.48z M73.18,119.05h4.51c3.49,0,5.05-1.37,5.05-4.44
			v-9.43c0-1.44-0.41-2.51-1.24-3.27c-0.85-0.77-2.13-1.17-3.81-1.17h-4.51V119.05z"/>
	</g>
	<g>
		<path class="st2" d="M106.52,140.48H99.9v-39.74h-8.76V94.8h24.13v5.94h-8.76V140.48z"/>
	</g>
	<g>
		<path class="st2" d="M188.32,140.48h-11.79V94.8h11.12c3.73,0,6.63,0.92,8.62,2.74c2.02,1.84,3.04,4.41,3.04,7.64v4.04
			c0,3.35-1.13,5.78-3.37,7.25c2.66,1.44,4.05,4.01,4.05,7.56v6.06c0,3.27-1.01,5.85-3,7.67
			C195.01,139.57,192.1,140.48,188.32,140.48z M183.14,134.54h5.18c1.64,0,2.86-0.43,3.74-1.3c0.88-0.88,1.31-1.9,1.31-3.13v-6.06
			c0-1.2-0.45-2.28-1.37-3.3c-0.9-0.99-2.1-1.47-3.67-1.47h-5.18V134.54z M183.14,114h4.51c1.62,0,2.83-0.47,3.71-1.44
			c0.9-1,1.34-2.09,1.34-3.34v-4.04c0-1.19-0.43-2.21-1.31-3.11c-0.88-0.9-2.1-1.33-3.73-1.33h-4.51V114z"/>
	</g>
	<g>
		<path class="st2" d="M218.51,140.48h-13.35v-5.94h3.37v-33.8h-3.37V94.8h13.35v5.94h-3.37v33.8h3.37V140.48z"/>
	</g>
	<g>
		<path class="st2" d="M249.75,140.48h-7.32l-9.87-19.43l-1.19,1.91v17.52h-6.61V94.8h6.61v16.25l10.25-16.25h7.5l-12.55,19.86
			L249.75,140.48z"/>
	</g>
	<g>
		<path class="st2" d="M273.74,140.48h-21.77V94.8h21.1v5.94h-14.48v13.59h11.79v5.94h-11.79v14.27h15.15V140.48z"/>
	</g>
	<path class="st3" d="M37.98,145.53l5.46,50.78c14.2,2.51,29.41,3.77,45.25,3.77c18.4,0,36.59-1.8,52.61-5.2
		c16.94-3.6,36.13-5.51,55.48-5.51c14.33,0,28.56,0.98,41.47,2.85l4.99-46.69"/>
	<polygon class="st1" points="28.78,59.91 140.57,12.19 252.37,59.91 249.16,89.94 254.96,89.94 258.62,55.68 140.57,5.29 
		22.52,55.68 26.2,89.94 32,89.94 	"/>
	<path class="st1" d="M238.24,192.22c-12.92-1.87-27.14-2.85-41.47-2.85c-19.35,0-38.54,1.9-55.48,5.51
		c-16.01,3.4-34.2,5.2-52.61,5.2c-15.84,0-31.04-1.27-45.25-3.77l-5.46-50.78h-5.8l5.98,55.64l3.22,0.62
		c15.25,2.93,31.68,4.42,48.82,4.42c18.47,0,36.77-1.81,52.92-5.24c15.85-3.37,33.84-5.15,52.02-5.15c15.17,0,30.19,1.16,43.45,3.36
		l4.63,0.77l5.81-54.42h-5.8L238.24,192.22z"/>
	<g>
		<g>
			<path class="st2" d="M97.08,184.53h-6.42l-6.42-11.11h-2.95v11.11h-5.74v-33.29h9.23c3.06,0,5.45,0.67,7.1,2
				c1.71,1.37,2.58,3.3,2.58,5.71v6.76c0,3.28-1.51,5.61-4.38,6.8L97.08,184.53z M81.29,168.62h3.49c3.49,0,3.93-1.56,3.93-2.91
				v-6.76c0-0.93-0.3-1.62-0.91-2.11c-0.67-0.53-1.68-0.8-3.03-0.8h-3.49V168.62z"/>
		</g>
		<g>
			<path class="st2" d="M117.5,184.53H99.41v-33.29h17.54v4.8h-11.79v9.21h9.6v4.8h-9.6v9.69h12.34V184.53z"/>
		</g>
		<g>
			<path class="st2" d="M142.57,184.53h-5.38l-10.36-21.02v21.02h-5.74v-33.29h5.38l10.36,21.02v-21.02h5.74V184.53z"/>
		</g>
		<g>
			<path class="st2" d="M157.93,184.53h-5.74v-28.49h-7.13v-4.8h20v4.8h-7.13V184.53z"/>
		</g>
		<g>
			<path class="st2" d="M186.13,184.53h-5.8l-1.87-7.24h-9.01l-1.86,7.24h-5.8l8.55-33.29h7.23L186.13,184.53z M170.66,172.49h6.55
				l-3.27-12.72L170.66,172.49z"/>
		</g>
		<g>
			<path class="st2" d="M204.67,184.53h-15.78v-33.29h5.74v28.49h10.04V184.53z"/>
		</g>
	</g>
</g>
</svg>
