<?xml version="1.0" encoding="utf-8"?>
<!-- Generator: Adobe Illustrator 21.0.2, SVG Export Plug-In . SVG Version: 6.00 Build 0)  -->
<svg version="1.1" id="Layer_1" xmlns="http://www.w3.org/2000/svg" xmlns:xlink="http://www.w3.org/1999/xlink" x="0px" y="0px"
	 viewBox="0 0 1016.3 642.1" style="enable-background:new 0 0 1016.3 642.1;" xml:space="preserve">
<style type="text/css">
	.st0{fill:#FFFFFF;}
	.st1{fill:#004E7B;}
	.st2{fill:#004E7B;stroke:#004E7B;stroke-miterlimit:10;}
	.st3{fill:#1C92A7;}
</style>
<g>
	<path class="st0" d="M349.7,642.1c-54.4,0-106.5-4.7-154.9-14l-12.7-2.4l-50-464.8L508.9,0l376.8,160.8l-49.4,462.1l-18.3-3
		c-41.7-6.9-89-10.6-136.7-10.6c-57.2,0-113.8,5.6-163.6,16.2C466.4,636.4,408.3,642.1,349.7,642.1z"/>
</g>
<g>
	<path class="st1" d="M0,285.9h40.6c14,0,24.6,3.3,31.8,9.9c7.3,6.6,10.9,15.8,10.9,27.7v16.1c0,15.2-6.4,25-19.1,29.3
		c14.5,3.9,21.8,13.9,21.8,29.8v24.2c0,12-3.6,21.3-10.7,27.8c-7.2,6.5-17.8,9.8-32,9.8H0V285.9z M64.5,339.6v-16.1
		c0-5.7-2.1-10.7-6.3-15c-4.2-4.3-10.1-6.4-17.6-6.4H18.8v60.4h21.8c7.5,0,13.4-2.3,17.6-7C62.4,350.8,64.5,345.5,64.5,339.6z
		 M67.1,422.9v-24.2c0-5.7-2.1-11-6.4-15.7c-4.3-4.7-10.1-7.1-17.5-7.1H18.8v68.5h24.4c7.5,0,13.4-2.1,17.6-6.3
		C65,433.9,67.1,428.8,67.1,422.9z"/>
	<path class="st1" d="M209.5,319.5v107.4c0,12-3.8,21.3-11.4,27.8c-7.6,6.5-19,9.8-34.1,9.8c-15.1,0-26.5-3.3-34.2-9.8
		c-7.7-6.5-11.5-15.8-11.5-27.8V319.5c0-12,3.8-21.3,11.4-27.8c7.6-6.5,19-9.8,34.1-9.8c15.1,0,26.5,3.3,34.2,9.8
		C205.6,298.2,209.5,307.5,209.5,319.5z M190.7,426.9V319.5c0-14.3-9-21.5-26.9-21.5c-17.9,0-26.9,7.2-26.9,21.5v107.4
		c0,14.3,9,21.5,26.9,21.5C181.7,448.4,190.7,441.3,190.7,426.9z"/>
	<path class="st1" d="M269.1,285.9h28.2l39.5,174.6H318l-9.1-40.3h-51.3l-9.1,40.3h-18.8L269.1,285.9z M283.1,306.9l-22,97.2h44
		L283.1,306.9z"/>
	<path class="st1" d="M414.7,285.9V302h-34.9v158.5H361V302H326v-16.1H414.7z"/>
	<path class="st1" d="M455,460.5h-18.8V285.9H455v77.9h52.9v-77.9h18.8v174.6h-18.8v-80.6H455V460.5z"/>
	<path class="st1" d="M654.2,319.5v107.4c0,12-3.8,21.3-11.4,27.8c-7.6,6.5-19,9.8-34.1,9.8c-15.1,0-26.5-3.3-34.2-9.8
		c-7.7-6.5-11.5-15.8-11.5-27.8V319.5c0-12,3.8-21.3,11.4-27.8c7.6-6.5,19-9.8,34.1-9.8c15.1,0,26.5,3.3,34.2,9.8
		C650.4,298.2,654.2,307.5,654.2,319.5z M635.4,426.9V319.5c0-14.3-9-21.5-26.9-21.5c-17.9,0-26.9,7.2-26.9,21.5v107.4
		c0,14.3,9,21.5,26.9,21.5C626.5,448.4,635.4,441.3,635.4,426.9z"/>
	<path class="st1" d="M760.3,426.9v-141h18.8v141c0,12-3.8,21.3-11.4,27.8c-7.6,6.5-19,9.8-34.1,9.8c-15.1,0-26.5-3.3-34.2-9.8
		c-7.7-6.5-11.5-15.8-11.5-27.8v-141h18.8v141c0,14.3,9,21.5,26.9,21.5C751.4,448.4,760.3,441.3,760.3,426.9z"/>
	<path class="st1" d="M902.1,426.9c0,25.1-15.1,37.6-45.4,37.6c-30.3,0-45.4-12.5-45.4-37.6v-22.8h18.8V428c0,6.4,2.2,11.5,6.7,15
		c4.5,3.6,11.1,5.4,19.9,5.4c8.8,0,15.4-1.8,19.9-5.4c4.5-3.6,6.7-8.5,6.7-14.6s-0.7-11.1-2-14.8c-1.3-3.7-4.1-7.6-8.2-11.7
		l-47.3-46.2c-5.6-5.5-9.4-11-11.4-16.2c-2.1-5.3-3.1-12-3.1-20c0-12,3.7-21.3,11.1-27.8c7.4-6.5,18.7-9.8,33.7-9.8
		c28.8,0,43.2,12.5,43.2,37.6v22.8h-18.8v-23.9c0-6.4-2.1-11.5-6.3-15c-4.2-3.6-10.5-5.4-18.9-5.4c-8.4,0-14.7,1.8-18.9,5.4
		c-4.2,3.6-6.3,8.5-6.3,14.8c0,6.3,0.6,11.2,1.9,14.8c1.3,3.6,4,7.3,8.3,11.3l48.1,46.2c5.2,5.7,8.8,11.2,10.7,16.5
		C901.1,412.2,902.1,418.9,902.1,426.9z"/>
	<path class="st1" d="M1016.3,460.5H937V285.9h76.5V302h-57.7v61.8h47v16.1h-47v64.5h60.4V460.5z"/>
</g>
<g>
	<path class="st2" d="M250.4,548.6v-6.1h7.8v6.1c0,5-1.5,8.8-4.6,11.6c-3.1,2.7-7.6,4.1-13.7,4.1c-6.1,0-10.7-1.4-13.8-4.1
		c-3.1-2.7-4.7-6.6-4.7-11.6v-44.7c0-5,1.5-8.8,4.6-11.6c3.1-2.7,7.6-4.1,13.7-4.1c6.1,0,10.7,1.4,13.8,4.1
		c3.1,2.7,4.7,6.6,4.7,11.6v10.6h-7.8v-10.6c0-6-3.5-8.9-10.6-8.9s-10.6,3-10.6,8.9v44.7c0,6,3.5,8.9,10.6,8.9
		S250.4,554.5,250.4,548.6z"/>
	<path class="st2" d="M281.9,490h11.7l16.4,72.6h-7.8l-3.8-16.7h-21.3l-3.8,16.7h-7.8L281.9,490z M287.7,498.7l-9.2,40.4h18.3
		L287.7,498.7z"/>
	<path class="st2" d="M327.8,562.5H320V490h16.9c5.8,0,10.2,1.4,13.2,4.1c3,2.8,4.5,6.6,4.5,11.5v15.6c0,7.6-3.3,12.4-9.8,14.5
		l13.7,26.8H350l-13.1-25.7h-9V562.5z M346.8,521.2v-15.6c0-2.8-0.9-5-2.6-6.6c-1.7-1.6-4.2-2.3-7.4-2.3h-9v33.5h9
		C343.5,530.1,346.8,527.2,346.8,521.2z"/>
	<path class="st2" d="M397.6,490v6.7h-14.5v65.9h-7.8v-65.9h-14.5V490H397.6z"/>
</g>
<g>
	<path class="st2" d="M511.7,492.4h10.9c3.8,0,6.6,0.9,8.6,2.7c2,1.8,2.9,4.3,2.9,7.5v4.3c0,4.1-1.7,6.7-5.1,7.9
		c3.9,1.1,5.9,3.7,5.9,8v6.5c0,3.2-1,5.7-2.9,7.5c-1.9,1.8-4.8,2.6-8.6,2.6h-11.7V492.4z M529.1,506.9v-4.3c0-1.5-0.6-2.9-1.7-4.1
		c-1.1-1.2-2.7-1.7-4.7-1.7h-5.9v16.3h5.9c2,0,3.6-0.6,4.7-1.9C528.5,509.9,529.1,508.5,529.1,506.9z M529.8,529.4v-6.5
		c0-1.5-0.6-3-1.7-4.2c-1.2-1.3-2.7-1.9-4.7-1.9h-6.6v18.5h6.6c2,0,3.6-0.6,4.7-1.7C529.2,532.3,529.8,531,529.8,529.4z"/>
	<path class="st2" d="M554.8,535.2v4.3h-12.3v-4.3h3.6v-38.4h-3.6v-4.3h12.3v4.3h-3.6v38.4H554.8z"/>
	<path class="st2" d="M568.6,539.5h-5.1v-47.1h5.1v20l12.6-20h5.7l-12.8,20.3l13.7,26.8h-5.6l-11.2-22l-2.4,3.8V539.5z"/>
	<path class="st2" d="M614.2,539.5h-21.4v-47.1h20.6v4.3h-15.6v16.7h12.7v4.3h-12.7v17.4h16.3V539.5z"/>
	<path class="st2" d="M639.6,539.5h-5.1v-47.1h10.9c3.8,0,6.6,0.9,8.6,2.7c2,1.8,2.9,4.3,2.9,7.5v10.1c0,4.9-2.1,8.1-6.4,9.4
		l8.9,17.4h-5.6l-8.5-16.7h-5.9V539.5z M651.9,512.7v-10.1c0-1.8-0.6-3.3-1.7-4.3c-1.1-1-2.7-1.5-4.8-1.5h-5.9v21.7h5.9
		C649.7,518.5,651.9,516.6,651.9,512.7z"/>
	<path class="st2" d="M687.4,539.5H666v-47.1h20.6v4.3h-15.6v16.7h12.7v4.3h-12.7v17.4h16.3V539.5z"/>
	<path class="st2" d="M699.7,539.5h-5.1v-47.1h5.1l15.7,36.2v-36.2h5.1v47.1h-5.1l-15.7-36.2V539.5z"/>
	<path class="st2" d="M750.2,492.4v4.3h-9.4v42.7h-5.1v-42.7h-9.4v-4.3H750.2z"/>
	<path class="st2" d="M759.4,492.4h7.6l10.7,47.1h-5.1l-2.5-10.9h-13.8l-2.5,10.9h-5.1L759.4,492.4z M763.2,498.1l-5.9,26.2h11.9
		L763.2,498.1z"/>
	<path class="st2" d="M784.2,539.5v-47.1h5.1v42.7h13.3v4.3H784.2z"/>
</g>
<g>
	<g>
		<g>
			<path class="st1" d="M449.9,515.6c4,0,6,0.8,6,2.5c0,0.4-0.1,0.8-0.4,1.1c-0.9,1.6-3,2.4-6.1,2.4c-3.1,0-5.9-0.9-8.4-2.8
				c-3.9,1.1-8.4,3.6-13.6,7.3c-8,6-12.1,11.8-12.1,17.5c0,6.4,4.3,9.9,13,10.7c1.7-10.6,6.9-18.6,15.5-23.9c2.8-1.8,5.8-3.1,9-3.8
				c3.2-0.8,5.4-1.3,6.6-1.5c1.2-0.2,3.2-0.6,6-1.1c2.8-0.5,4.5-0.7,4.9-0.8c6.7-1.1,11-2.4,12.9-3.9c1.9-1.4,2.9-2.8,2.9-4.1
				c0-0.4-0.1-0.8-0.2-1.2c-0.1-0.4,0-0.7,0.3-0.8c0.3-0.1,0.6,0,1,0.3c0.6,0.8,0.9,1.8,0.9,2.9c0,1.1-0.7,2.5-2.2,4.2
				c-2.2,2.2-5.1,3.7-8.9,4.5c-1.4,0.4-3.4,0.8-5.8,1.2c-2.4,0.5-4.1,0.8-5.2,1.1c1.4,1.3,2,3.2,2,5.8c0,5.3-3.2,10.5-9.5,15.6
				c-7,5.6-16.3,8.4-28,8.4c-0.1,0.6-0.1,1.5-0.1,2.7c0,5,1.7,9,5,11.9c3.3,2.9,7.5,4.4,12.6,4.4c1.8,0,3.3-0.6,4.6-1.8
				c1.3-1.2,1.9-2.5,1.9-4c0-0.5-0.1-1.1-0.4-1.7c-0.3-0.6,0-1,0.8-1c0.8,0,1.2,1,1.2,2.9c0,1.9-0.8,3.6-2.5,5.1
				c-1.7,1.5-3.6,2.2-5.7,2.2c-5.6,0-10.3-1.5-14-4.6c-4.2-3.4-6.3-7.8-6.3-13.2c0-1.2,0-2.2,0.1-2.8c-6.2-0.6-11-2.2-14.2-4.7
				c-2.9-2.5-4.4-5.3-4.4-8.3c0-7,5.3-13.6,15.9-19.9c5-3,9.8-5.3,14.5-6.8c-2-2.2-3-5.1-3-8.7c0-1.9,0.4-3.4,1.3-4.6
				c2.4-3.4,6-6.1,10.8-8.1c5.7-2.5,11.4-3.8,17.2-3.8c7.7,0,11.4,2.4,11.3,7.2c-0.1,2.1-1,3.9-2.6,5.4c-1.6,1.5-3.4,2.3-5.3,2.3
				c-1.9,0-2.9-0.5-2.9-1.5c0-0.7,0.5-1.1,1.4-1.1l1.8,0.3c1,0,2-0.6,3-1.8c1-1.2,1.5-2.4,1.5-3.7c0-1.9-1.1-3.3-3.3-4.2
				c-1.4-0.5-2.8-0.8-4.1-0.8c-6,0-11,1.3-15.1,3.8c-4,2.5-7,5.3-8.8,8.4c-1.1,1.8-1.6,3.7-1.6,5.6c0,1.9,0.4,3.4,1.3,4.4
				C445.2,516,447.7,515.6,449.9,515.6z M464.5,532.6c0-3.2-1.4-4.7-4.1-4.7c-0.9,0-2.6,0.3-5.3,1c-13.8,5.2-21.9,13.7-24.2,25.5
				c1.6,0,3.2-0.1,4.7-0.3c9.3-1,16.6-3.9,22.1-8.8C462.2,541.1,464.5,536.9,464.5,532.6z M452.6,518.4c0-0.6-1-1-2.9-1
				c-1.9,0-3.9,0.2-6.1,0.6c1.8,1.1,3.7,1.7,5.8,1.7C451.6,519.8,452.6,519.4,452.6,518.4z"/>
		</g>
		<g>
			<path class="st1" d="M448.1,578.7c-5.7,0-10.6-1.6-14.5-4.8c-4.4-3.5-6.6-8.1-6.6-13.8c0-0.8,0-1.6,0.1-2.1
				c-6-0.6-10.7-2.3-13.9-4.8c-3.1-2.7-4.7-5.6-4.7-8.9c0-7.2,5.5-14.1,16.3-20.6c4.6-2.8,9.2-5,13.6-6.5c-1.7-2.2-2.5-5-2.5-8.3
				c0-2,0.5-3.7,1.4-5.1c2.4-3.5,6.2-6.3,11.1-8.3c5.7-2.5,11.6-3.8,17.5-3.8c5,0,8.3,1,10.3,3c1.2,1.3,1.8,3,1.8,5
				c-0.2,2.3-1.1,4.3-2.9,6c-1.7,1.7-3.7,2.5-5.8,2.5c-3,0-3.7-1.2-3.7-2.3c0-0.4,0.2-1.8,2.1-1.8l2,0.3c0.6,0,1.4-0.5,2.2-1.6
				c0.9-1.1,1.3-2.2,1.3-3.2c0-1.6-0.9-2.8-2.9-3.5c-1.3-0.5-2.6-0.7-3.8-0.7c-5.9,0-10.8,1.2-14.7,3.7c-3.9,2.4-6.8,5.2-8.6,8.1
				c-1,1.7-1.5,3.4-1.5,5.2c0,1.5,0.3,2.7,0.8,3.6c2.7-0.7,5.1-1.1,7.1-1.1c1.7,0,6.8,0,6.8,3.2c0,0.6-0.2,1.1-0.6,1.5
				c-1.1,1.8-3.3,2.7-6.7,2.7c-3.1,0-6-0.9-8.6-2.7c-3.7,1.2-8.1,3.5-13,7.1c-7.8,5.8-11.7,11.5-11.7,16.9c0,5.8,3.8,9,11.7,9.8
				c1.9-10.5,7.1-18.4,15.7-23.7c2.8-1.8,6-3.1,9.3-3.9c3.2-0.8,5.4-1.3,6.6-1.5c1.2-0.3,3.2-0.6,6.1-1.1c2.8-0.5,4.5-0.7,4.9-0.8
				c6.5-1.1,10.7-2.4,12.5-3.7c1.7-1.3,2.6-2.5,2.6-3.5c0-0.3,0-0.6-0.1-1c-0.3-1,0.3-1.5,0.8-1.7c0.5-0.1,1.1,0,1.6,0.5l0.1,0.1
				c0.7,0.9,1,2,1,3.3c0,1.3-0.8,2.9-2.3,4.7c-2.3,2.3-5.4,3.9-9.3,4.8c-1.4,0.4-3.4,0.8-5.8,1.2c-1.6,0.3-3,0.6-4,0.8
				c1,1.4,1.4,3.2,1.4,5.4c0,5.5-3.3,11-9.7,16.2c-6.9,5.6-16.3,8.4-27.8,8.6c0,0.5,0,1.2,0,1.9c0,4.8,1.6,8.6,4.7,11.3
				c3.2,2.8,7.3,4.2,12.2,4.2c1.6,0,3-0.5,4.1-1.6c1.1-1,1.7-2.2,1.7-3.5c0-0.4-0.1-0.9-0.4-1.4c-0.3-0.7-0.2-1.1,0-1.4
				c0.3-0.4,0.8-0.6,1.5-0.6c1.3,0,2,1.2,2,3.6c0,2.1-0.9,4-2.7,5.6C452.5,577.9,450.5,578.7,448.1,578.7z M439.4,518.5
				c-4.5,1.5-9.1,3.7-13.8,6.5c-10.3,6.1-15.6,12.6-15.6,19.3c0,2.8,1.4,5.4,4.2,7.7c3.1,2.5,7.7,4,13.8,4.6l0.8,0.1l-0.1,0.8
				c-0.1,0.6-0.1,1.5-0.1,2.7c0,5.3,2,9.4,6.1,12.7c3.6,3,8.1,4.5,13.5,4.5c2,0,3.7-0.7,5.2-2c1.5-1.3,2.2-2.8,2.2-4.5
				c0-1.5-0.3-2.1-0.5-2.1c0,0-0.1,0-0.1,0c0.3,0.8,0.4,1.4,0.4,1.9c0,1.7-0.7,3.3-2.2,4.6c-1.4,1.3-3.2,2-5.1,2
				c-5.3,0-9.7-1.5-13.1-4.5c-3.5-3-5.3-7.2-5.3-12.5c0-1.3,0-2.2,0.1-2.8l0.1-0.7h0.7c11.5,0,20.7-2.8,27.5-8.2
				c6.1-4.9,9.2-10,9.2-15c0-2.4-0.6-4.1-1.8-5.3l-1-0.9l1.3-0.3c1.1-0.3,2.9-0.7,5.3-1.1c2.4-0.5,4.3-0.9,5.7-1.2
				c3.7-0.8,6.5-2.3,8.6-4.3c1.3-1.5,1.9-2.7,1.9-3.7c0-0.8-0.2-1.6-0.5-2.2c0.1,0.3,0.1,0.6,0.1,0.9c0,1.6-1,3.1-3.1,4.7
				c-2,1.5-6.3,2.8-13.2,4c-0.4,0.1-2.1,0.3-4.9,0.8c-2.8,0.5-4.8,0.8-6,1.1c-1.2,0.3-3.4,0.8-6.6,1.5c-3.1,0.7-6.1,2-8.8,3.7
				c-8.4,5.2-13.5,13-15.2,23.4l-0.1,0.7l-0.7-0.1c-9.1-0.7-13.7-4.6-13.7-11.4c0-6,4.2-12.1,12.4-18.1
				C431.6,522.1,435.8,519.8,439.4,518.5z M441.1,517.9l0.3,0.2c2.4,1.8,5.1,2.7,8,2.7c2.8,0,4.7-0.7,5.4-2l0.1-0.1
				c0.1-0.1,0.2-0.3,0.2-0.5c0-1.5-3.3-1.7-5.3-1.7c-2.1,0-4.5,0.4-7.2,1.2l-0.3,0.1l1.3-0.3c2.2-0.4,4.3-0.7,6.2-0.7
				c1,0,3.6,0,3.6,1.7c0,1.4-1.3,2.1-3.9,2.1c-2.2,0-4.3-0.6-6.2-1.8l-1.6-1l0.4-0.1l-0.3-0.4c-1-1.1-1.5-2.8-1.5-4.9
				c0-2.1,0.6-4.1,1.7-6c1.9-3.2,5-6.1,9.1-8.6c4.1-2.6,9.3-3.9,15.5-3.9c1.4,0,2.8,0.3,4.3,0.8c2.6,1,3.8,2.6,3.8,4.9
				c0,1.4-0.5,2.8-1.6,4.1c-1.1,1.4-2.3,2.1-3.5,2.1l-2-0.3c-0.5,0-0.5,0.2-0.5,0.3c0,0.7,1.4,0.8,2.2,0.8c1.8,0,3.3-0.7,4.8-2.1
				c1.5-1.4,2.3-3,2.4-4.9c0-1.6-0.4-2.9-1.4-3.9c-1.6-1.7-4.7-2.5-9.2-2.5c-5.7,0-11.4,1.2-16.9,3.7c-4.7,2-8.2,4.6-10.5,7.8
				c-0.8,1.1-1.2,2.5-1.2,4.2c0,3.4,0.9,6.1,2.8,8.2L441.1,517.9L441.1,517.9z M446.1,518.5c1.1,0.4,2.2,0.6,3.4,0.6
				c1.4,0,2.3-0.2,2.4-0.6c-0.1-0.1-0.6-0.3-2.1-0.3C448.6,518.2,447.4,518.3,446.1,518.5z M430.9,555.1H430l0.2-0.9
				c2.3-12.1,10.6-20.8,24.7-26.1c2.8-0.7,4.6-1,5.5-1c2.2,0,4.8,1,4.8,5.5c0,4.5-2.4,8.9-7,13.1c-5.5,5-13.1,8-22.5,9
				C434.1,555,432.5,555.1,430.9,555.1z M460.4,528.6c-0.6,0-1.9,0.2-5.1,0.9c-13.1,4.9-21,13-23.5,24c1.2,0,2.5-0.1,3.7-0.3
				c9.1-1,16.4-3.9,21.7-8.6c4.3-3.9,6.5-8,6.5-12C463.7,529.1,462,528.6,460.4,528.6z"/>
		</g>
	</g>
</g>
<path class="st3" d="M804.5,618.8c-37.8-4.3-99.8-10.2-145.3-8.1c-43.5,2-86.5,7.2-126.4,15.2c-5.7,1.2-11.4,2.4-17,3.6l-1.1,0
	c110.6-11.7,119.6-11.5,159.2-12.7c49-2.2,88.7,3.5,138.7,2.8L804.5,618.8z"/>
<path class="st3" d="M225.1,595.5c37.7,4.8,99.7,11.3,145.3,9.7c43.5-1.5,86.6-6.2,126.6-13.8c5.7-1.1,11.4-2.2,17-3.5l1.1,0
	c-110.8,10.5-119.7,10.2-159.3,10.9c-49,1.7-88.7-4.5-138.6-4.3L225.1,595.5z"/>
<g>
	<polygon class="st3" points="167.1,267.3 157.2,175.6 507.7,25.9 858.2,175.7 848.4,267.3 862.5,267.3 873.2,166.8 510.4,11.9 
		507.7,10.7 142.2,166.8 153,267.3 	"/>
	<path class="st3" d="M825.8,478.3l-12.4,115.6c-41.2-6.4-87.1-9.8-133.4-9.8c-58.9,0-117.2,5.7-168.7,16.7
		c-49.6,10.5-105.9,16.1-162.8,16.1c-50.9,0-99.7-4.1-145.2-12.5l-13.6-126.1h-14.1l14.8,137.9l5.1,0.9
		c47.8,9.2,99.2,13.8,152.9,13.8c57.9,0,115.2-5.7,165.7-16.4c50.6-10.7,107.9-16.4,165.8-16.4c48.3,0,96.2,3.7,138.4,10.7l7.3,1.4
		l14.1-131.8H825.8z"/>
</g>
<g>
	<path class="st3" d="M612.6,212.1c3.5,4.9,5.3,10.3,5.1,16.4c-0.1,2.2-0.2,4.4-1.3,6.4c-1,1.8-2.1,3.6-3.1,5.3
		c-2.5,4.4-6.1,7.3-10.9,8.9c-0.2,0.1-0.4,0.2-0.6,0.4c0.3,0.3,0.5,0.6,0.7,0.8c0.7,0.7,0.9,1.6,0.3,2.4c-0.6,0.9-1.4,0.5-2.1,0.1
		c-1.1-0.6-2.1-1.2-3.4-2c0.1,0.5,0.2,0.8,0.2,1c0,0.5,0,1.3-0.3,1.4c-0.4,0.2-1.1,0.1-1.6-0.2c-1.1-0.6-2-1.4-3-2
		c-0.5-0.3-1.1-0.6-1.7-0.9c-0.1,0.3-0.2,0.4-0.2,0.5c-0.2,0.6-0.3,1.6-0.6,1.7c-0.6,0.1-1.3-0.2-1.9-0.5c-1.1-0.7-2.1-1.5-3.1-2.3
		c-1,2-1.4,2.2-3.2,1c-0.7-0.5-1.4-1-1.9-1.4c-0.5,0.7-0.8,1.7-1.2,1.7c-0.6,0-1.3-0.5-1.9-0.9c-0.4-0.2-0.7-0.6-1.1-1
		c-1.1,1.5-1.7,1.6-3.1,0.5c-1-0.8-2-1.6-3.1-2.4c-0.8,1.4-1.8,1.3-3,0.6c-1,2.6-2.4,0.8-3.6,0.3c-0.6,1.1-0.9,2.7-1.8,3
		c-0.9,0.4-2.3-0.2-3.3-0.4c-0.2,0.9-0.3,1.9-0.4,2.8c-1-0.2-2-0.3-3-0.5c-0.2,0.3-0.4,1-0.6,1.1c-1.3,0.2-1.9,0.8-2.5,2
		c-0.4,0.8-1.8,1-2.8,1.6c0.1,0.2,0.2,0.4,0.2,0.6c0,0.6,0.1,1.1,0.1,1.7c-0.6-0.1-1.3,0-1.8-0.2c-0.6-0.3-1.2-0.8-1.7-1.2
		c-1.3,1.8-1.5,1.8-3.2,0.6c-0.5-0.3-1-0.6-1.5-0.9c-0.5-0.4-0.8-0.4-1.3,0.1c-0.6,0.7-1.3,0.7-2,0.1c-0.8-0.5-1.6-1-2.4-1.5
		c-1.1,1.2-1.7,1.3-2.8,0.7c-0.3-0.2-0.6-0.4-0.9-0.7c-0.6-0.5-1.2-0.7-2.1-0.3c-0.5,0.2-1.3,0-1.9-0.3c-0.8-0.3-1.5-0.9-2.2-1.3
		c-1.2,1.3-1.9,1.2-3.1,0c-1.1-1.1-2.4-2.1-3.5-3.2c-0.7-0.7-1.3-1.5-2-2.2c-0.4-0.5-0.8-1-1.3-1.5c-1.1,1.6-1.7,1.6-2.6,0
		c-0.5-0.9-1.1-1.7-1.6-2.6c-1.8,1-2,0.9-3.2-0.5c-0.6-0.7-1.2-1.5-1.8-2.4c-1.2,1.6-1.8,1.6-3.1,0.2c-0.2-0.2-0.9-0.5-1.1-0.3
		c-1,0.7-1.7,0.3-2.5-0.4c-0.4-0.3-0.8-0.6-1.1-0.9c-1.4,1.4-1.4,1.4-2.9,0c-0.2-0.2-0.5-0.4-0.6-0.6c-0.5-0.5-0.9-0.6-1.3,0
		c-0.6,0.8-1.3,0.8-2.1,0.3c-1-0.7-2-1.4-3.1-2c-0.4-0.2-1-0.3-1.3-0.1c-0.6,0.4-1.2,0.7-2,0.3c-0.2-0.1-0.6,0-0.7,0.2
		c-0.8,1.2-1.6,0.4-2.4,0c-0.5-0.3-1.2-0.6-1.5-0.5c-1,0.5-1.8,0.3-2.6-0.2c-0.5-0.3-0.9-0.5-1.2,0.1c-0.5,0.7-1.1,0.7-1.8,0.2
		c-0.8-0.5-1.5-1.2-2.4-1.6c-0.3-0.2-1-0.1-1.2,0.2c-0.7,0.7-1.4,0.7-2.1,0.1c-0.7-0.6-1.4-1.2-2.2-1.7c-0.3-0.2-0.9-0.3-1-0.2
		c-1,1.1-1.8,0.4-2.7,0c-0.5-0.2-1,0-1.6,0c-0.6,0-1.3,0.1-1.9,0c-0.8-0.1-1.6-0.5-2.1-0.6c-0.4,1-0.5,1.8-0.9,2.2
		c-0.3,0.2-1.2-0.2-1.7-0.5c-0.8-0.4-1.5-1.1-2.3-1.5c-1.3-0.7-2.7-1.3-4.1-2c-0.1,0.4,0,0.5,0.1,0.7c0.9,1.5,0.7,1.9-1,2.4
		c-0.7,0.2-1.5,0.7-2,1.2c-0.7,0.8-1.3,0.9-2.1,0.4c-1-0.6-1.8-0.5-2.6,0.4c-0.3,0.3-1,0.6-1.4,0.4c-0.4-0.1-0.6-0.8-0.7-1.3
		c-0.1-1.5,0.9-2.4,2-3.1c1.3-0.9,2.8-1.6,4.1-2.5c0.9-0.7,1.8-1,2.8-0.6c1.5,0.5,3,1.2,4.6,1.8c0.4,0.2,0.9,0.2,1.3,0.2
		c0.9,0,1.9-0.1,2.8,0c1.5,0.1,2.9,0.8,4.4,0.1c0.6-0.2,1.4,0.1,2.1,0.1c1.7,0.1,3.5-0.2,5.1,0.7c0.1,0.1,0.3-0.1,0.5-0.1
		c0.8,0.1,1.6,0.1,2.4,0.3c0.5,0.1,0.9,0.5,1.4,0.7c0.4,0.2,0.9,0.4,1.3,0.6c-2.2-1.8-4.2-3.7-5.1-6.5c-0.1-0.2-0.6-0.4-0.9-0.5
		c-3.1-0.1-6.1-0.1-9.2-0.4c-6-0.5-12-1.2-18.1-1c-0.7,0-1.2,0-1.3,0.9c-0.2,3-1.5,5.6-3,8.1c-0.4,0.7-1.1,1.3-1.8,1.9
		c-1.9,1.6-4.3,2.1-6.6,2.9c-4.5,1.6-9.1,1.8-13.8,1.1c-0.9-0.1-1.8-0.2-2.7-0.4c-4.7-1-7.4-4.5-9.4-8.3c-2.7-5.3-3.1-11.1-2.6-17
		c0.1-0.9-0.1-1.5-0.7-2.1c-1.1-1.1-1.8-2.6-1.6-4.2c0.2-2.2,0.3-4.4,1-6.5c1.8-5.4,3.8-10.7,5.8-16c0.1-0.3,0.4-0.5,0.5-0.7
		c0.2-0.4,0.5-0.7,0.6-1.1c0.5-3.9,1.9-7.6,3.5-11.1c0.1-0.2,0.1-0.5,0-0.7c-0.8-3.1,0.2-6.1,1.7-8.6c1.8-3.1,5.1-4.6,8.6-5.1
		c2.8-0.4,5.7,0.1,8.5,0.2c1.9,0,1.9-0.1,1.7-2c-0.4-4.1-0.9-8.1-1.1-12.2c-0.1-2.8,0.3-5.6,0.7-8.4c0.3-1.8,1.9-3,3.5-3
		c1.1,0.1,1.3-0.4,1.3-1.3c0-0.5,0-1.1,0-1.6c0.3-5.5,0.4-11.1,0.8-16.6c0.4-5.1,1.2-10.2,1.9-15.2c0.1-0.8-0.3-1-0.9-1.2
		c-1.2-0.4-2.5-0.7-3.6-1.3c-2.1-1.2-3.9-2.8-6-3.8c-1.8-0.8-2-2.2-2-3.7c0-0.5-0.1-1,0-1.4c0.4-0.9,0.8-2,1.5-2.7
		c2.6-2.5,6.1-3.1,9.4-4c2.9-0.8,5.9-1.1,8.9-1.8c6.2-1.4,12.4-2.6,18.8-3.1c6-0.5,12.1-0.8,18.1-1.2c4.5-0.2,9-0.5,13.5-0.5
		c5.9,0,11.8,0,17.6,0.2c4.6,0.1,9.2,0.3,13.9,0.6c5.3,0.4,10.6,1.1,15.9,1.7c5.6,0.7,11.2,1.4,16.7,2.3c3.4,0.5,6.8,1.1,10.1,2.1
		c3.2,0.9,6.3,2.3,9.4,3.6c1.7,0.7,2.2,2,1.7,3.8c-0.2,0.8-0.4,1-1.2,0.9c-2.5-0.3-5-0.6-7.5-0.8c-0.9-0.1-1.8-0.1-2.6-0.1
		c0.6,0.8,1.2,1.5,1.6,2.2c0.9,1.7,1.7,3.5,2.5,5.3c0.6,1.3,1.3,2.6,1.8,4c0.7,2,1.1,4,1.7,6c1.2,4.1,2.7,8.2,3.8,12.4
		c1.8,6.9,3.5,13.9,5.2,20.9c1.9,7.5,4.1,15,4.2,22.9c0,3.9-0.1,7.7-0.9,11.5c-0.3,1.7,0.4,2.5,1.3,3.4c2.3,2.5,4.8,4.8,7,7.4
		c3.3,3.9,6.5,8,9.7,12.1c1.1,1.3,2.1,2.6,3.2,3.9c1.1,1.3,0.8,2.1-0.9,2.6c-0.7,0.2-1.4,0.5-2.5,0.8
		C608.5,206.6,610.6,209.3,612.6,212.1z M598.9,200.8c0.7-0.8,1.3-1.9,2.1-2.7c0.3-0.3,0.9-0.3,1.4-0.4c0,0.5,0.2,1,0,1.3
		c-0.7,1.2-1.6,2.3-2.4,3.4c-0.2,0.3-0.4,0.6-0.7,0.9c0.1,0.1,0.1,0.2,0.2,0.4c2.3-0.5,4.6-1,7.2-1.5c-1.7-2-3.3-3.9-4.9-5.8
		c-1.5,1.9-2.9,3.7-4.3,5.5c-0.8,0.6-1.6,1.3-2.7,2.1c1.2,0.2,1.8,0.3,1.9-0.9c0-0.4,0.5-0.8,0.8-1.3
		C597.9,201.5,598.5,201.2,598.9,200.8z M584.2,170.5c-0.1-5.8,0.2-11.6-1.4-17.3c-1-3.5-2.1-6.9-3.1-10.4
		c-1.1-3.9-2.2-7.9-3.3-11.8c-0.6-2.2-1.5-4.4-2.1-6.6c-0.9-3.3-1.6-6.6-2.5-9.9c-1.3-4.6-2.7-9.2-4.1-13.8
		c-0.2-0.8-0.7-1.1-1.5-1.3c-4-0.6-8-1.1-12-1.8c-2.9-0.5-5.8-1.2-8.7-1.8c-0.4-0.1-0.7-0.2-1.1-0.2c-4-0.4-7.9-0.9-11.9-1
		c-2.2-0.1-4.4,0.3-6.6,0.7c-4.8,0.7-9.6,1.4-14.5,2.2c0.4,1.7,0.7,3.4,1.2,5.1c1.2,4.1,2.4,8.3,3.9,12.4c2.1,5.9,3.3,12,4.4,18.1
		c0.6,3,1.3,6,1.9,9c1,4.5,1.9,9,2.9,13.6c0.5,2.4,1.2,4.9,1.9,7.3c0.2,0,0.3,0.1,0.5,0.1c0.7-0.9,1.5-1.6,2-2.6
		c0.5-1,1.2-1.6,2.2-1.6c3.1-0.1,6.1,0,9.2,0c1.9,0,3.8,0.2,5.7,0.2c3.4,0,6.6,1.2,9.9,1.9c5.2,1.1,10.2,3,15,5.2
		c2.4,1.1,4.8,2.2,7.1,3.4c1.1,0.6,2.1,1.4,3.1,2.2c0.6,0.4,1.1,0.8,1.7,1.2c0.1-0.1,0.2-0.1,0.4-0.2
		C584.2,172.1,584.2,171.3,584.2,170.5z M510.8,118.5c-1-4.2-2-8.4-3.1-12.6c-0.7-2.7-1.7-5.3-2.4-8c-0.9-3.3-1.6-6.6-2.4-9.9
		c-0.1-0.4-0.2-0.7-0.3-1.1c-1-2.1-1-2.2-0.3-4.4c-0.3-0.1-0.6-0.2-0.9-0.2c-3.1-0.2-6.3-0.5-9.4-0.5c-4.8,0.1-9.7,0.4-14.5,0.6
		c-2.7,0.2-5.4,0.4-8.1,0.7c-4.3,0.5-8.6,1.2-12.9,1.8c-2.7,0.4-5.4,0.8-8,1.3c-3.2,0.5-6.3,1-9.5,1.7c-2.2,0.5-4.3,1.3-6.5,1.9
		c-1.3,0.4-2.6,0.8-3.9,1.2c-0.4,0.1-0.8,0.4-1.6,0.7c2.2,1.4,4,2.7,5.8,3.8c0.7,0.4,1.5,0.7,2.3,1c0.4,0.2,1,0.4,1.3,0.3
		c1.2-0.5,1.8-0.1,2.1,1.2c2-2.3,4.4-1.1,6.4-0.7c6.2,1.4,12.5,1.8,18.7,2.6c3.3,0.4,6.7,0.8,10,1.2c0.2,0,0.5,0.1,0.6,0.1
		c2-1,3.9-1.9,5.9-2.9c0.3-0.1,0.5-0.4,0.7-0.4c2.4-0.2,4.9-0.4,7.3-0.5c3.1-0.1,6.2-0.1,9.3-0.2c2.1,0,4.3,0,6.4,0.1
		c0.4,0,1,0.5,1,0.7c0,0.4-0.4,0.9-0.8,1.1c-0.4,0.2-0.9,0.2-1.3,0.2c-3.6,0.2-7.1,0.4-10.7,0.5c-1.1,0-2.3,0-3.4-0.1
		c-1.7-0.1-2.4,0.2-2.4,1.9c-0.2,6.6-2.1,13-1.6,19.7c0.2,2.5-0.5,5.1-0.6,7.7c-0.1,1.5,0.2,2.9,0.3,4.4c0.1,0.8,0.5,1,1.2,1.1
		c1.6,0.2,3.2,0.6,4.8,0.8c0.5,0.1,1.1-0.1,1.4-0.4c1.6-1.5,3-3.2,4.6-4.7c2.6-2.5,5.8-3.6,9.3-4.2c2.2-0.4,4.5-0.8,7,0.5
		C511.9,123.6,511.4,121,510.8,118.5z M486.5,136.8c-2.7,0.1-5.5,0.2-8.2,0.5c-1.5,0.2-2.9,0.8-3.6,2.4c-0.5,1.2-1.7,1.7-3,1.9
		c-0.9,0.1-1.9,0.1-2.8,0.3c-2.6,0.5-4.3-1.2-6.1-2.5c-3.7-2.5-7.8-3.5-12.3-3.7c-1.1,0-2.3-0.3-3.4-0.2c-2.1,0-4.2,0-6.3,0.2
		c-2.4,0.3-3.5,2.2-4.5,4.2c-1.4,3-1.4,6.1-1.1,9.2c0.3,3.7,1,7.4,1.5,11.1c0,0.3,0.2,0.6,0.2,0.9c1.4,0,2.7,0,4.2,0
		c-0.1-4.8-1.6-9.4-0.2-14.1c0.7,1.3,1.9,13.1,1.5,14.2c2.8,1.4,5.6,3.1,8.6,4.2c2.1,0.8,4.4,0.6,6.7,1c2.9,0.5,5.8-0.2,8.6-0.5
		c3.4-0.3,5.8-1.9,7.1-5.1c0.2-0.4,0.8-0.5,1.2-0.8c0.2,0.5,0.6,1,0.5,1.4c-0.4,1.2-1,2.4-1.6,3.9c1.4,0.5,2.8,0.9,4.6,1.5
		c-0.5-1.8-1.1-3.1-1.3-4.5c-0.6-3.4-1.1-6.8-1.4-10.2c-0.2-2.3-0.1-4.7,0-7c0-0.8,0.6-1.5,1-2.3c0.2,0,0.4,0.1,0.6,0.1
		c0.1,0.6,0.2,1.2,0.2,1.7c0.1,3,0.1,6,0.4,9c0.3,2.8,0.6,5.7,1.3,8.4c0.4,1.5,1.4,2.9,2.2,4.3c0.1,0.2,0.5,0.3,0.8,0.3
		c3.8,0.9,7.6,1.6,11.5,1.1c2.9-0.4,5.4-1.6,7.8-3.2c1.9-1.2,2.6-2.8,2.8-5c0.2-2.9,0-5.5-1.8-7.9c-0.1-0.1-0.2-0.3-0.3-0.4
		c-0.1-0.1-0.1-0.1-0.2-0.1c-3.3,1.8-6.9,2.5-10.6,1.9c-2.6-0.4-4.6-2.9-4.8-5.6c-0.1-3.2,0.6-6.2,2.2-8.9c0.2-0.4,0.5-0.8,0.9-1.5
		C488.3,137.1,487.4,136.8,486.5,136.8z M452,133.6c3.5,0.3,6.9,0.9,9.9,2.6c1.7,0.9,3.2,2,4.8,3c1.8,1.1,3.8,0.7,5.5,0.1
		c1.2-0.5,1.9-2,2.9-3.1c0.3-0.3,0.6-0.7,0.9-0.8c1.3-0.4,1.3-1.2,1.1-2.3c-0.4-3-0.9-6-1.2-9c-0.7-6.4-1.3-12.9-1.9-19.3
		c-0.2-1.7-0.1-1.7-1.8-1.8c-6.1-0.6-12.1-1.2-18.1-1.9c-3.6-0.4-7.2-0.9-10.7-1.4c-0.6-0.1-1.1-0.1-1.2,0.7
		c-0.6,3.8-1.5,7.6-1.8,11.4c-0.3,3.6-0.1,7.3,0.1,10.9c0.2,3.1,0.7,6.1,0.9,9.1c0.1,0.9,0.5,1.3,1.4,1.2c0.8,0,1.6,0,2.4,0
		c0,0,0-0.1,0-0.1C447.4,133.2,449.7,133.4,452,133.6z M407.4,182.8c-0.1,0.7,0.2,1.1,0.9,1.2c4.1,0.6,8.1,1.9,11.8,3.7
		c5.2,2.5,9.7,5.7,13.1,10.3c1.9,2.6,3.9,5.1,4.8,8.4c0.4,1.5,2.2,2,3.6,2.2c4.7,0.7,9.5,1.3,14.2,1.8c3,0.3,5.9,0.5,8.9,0.7
		c0.3,0,0.9-0.4,0.9-0.6c0.2-1.7,0.2-3.5,0.3-5.2c0.1-1.3,0.1-2.6,0.2-3.9c0.1-1.6,0.2-3.3,0.3-4.9c0.1-1.2-0.6-1.9-1.8-2.3
		c-4.8-1.5-9.5-2.9-14.3-4.4c-4.3-1.3-8.7-2.6-13-3.9c-1.6-0.5-3.4-0.7-5-1.1c-3-0.7-5.9-1.7-8.9-2.2c-4.5-0.9-9-1.4-13.5-2.2
		c-0.6-0.1-1.1-0.5-1.8-0.9C407.9,180.6,407.7,181.7,407.4,182.8z M510.6,94.8c1.7-0.2,3.1-0.3,4.5-0.5c3.9-0.5,7.8-1,11.7-1.6
		c3.8-0.5,7.6-0.5,11.4,0.2c2.6,0.5,5.3,0.6,7.9,1c2.8,0.5,5.6,1.3,8.5,1.9c3.4,0.7,6.9,1.2,10.3,1.8c0.4,0.1,0.9,0.1,1.7,0.2
		c-0.8-2.4-1.5-4.6-2.3-6.7c-0.1-0.3-0.4-0.6-0.3-0.8c0.2-1.7-1-1.9-2.2-2c-6-0.7-12-1.3-18-2.1c-3.1-0.4-6.1-1.1-9.2-1.5
		c-4.3-0.6-8.6-1.1-12.9-1.5c-3.7-0.3-7.5-0.5-11.2-0.7c-1.1-0.1-2.2-0.1-3.5-0.2C508.2,86.7,509.4,90.9,510.6,94.8z M439.6,82.6
		c-0.5,0.1-1,0.2-1.6,0.4c-0.4,0.1-0.7,0.4-1.1,0.3c-3.1-0.3-5.6,1.7-8.5,2.3c-1.1,0.2-2,1.6-2.9,2.4c-0.1,0.1-0.1,0.6,0,0.8
		c0.1,0.2,0.5,0.2,0.8,0.2c2-0.4,4-0.9,6-1.4c1.7-0.4,3.3-1.1,5.1-1.5c3.2-0.7,6.4-1.1,9.5-1.7c2.2-0.4,4.3-1,6.5-1.3
		c5-0.7,10-1.2,15-1.8c1.5-0.2,3-0.5,4.5-0.6c6.8-0.4,13.7-0.8,20.5-1.1c1.7-0.1,3.4,0.2,5,0.2c7.8,0,15.6,0.4,23.4,1.2
		c5,0.5,10,1.3,15,2c5,0.7,10.1,1.2,15.1,2c5.9,0.8,11.8,1.8,17.7,2.7c2,0.3,4,0.4,6,0.6c0.1-0.6,0.1-1,0.2-1.6
		c-3.2-1-6.4-2-9.7-2.8c-3-0.8-6.1-1.4-9.2-1.9c-4.7-0.8-9.5-1.4-14.3-2.1c-3.9-0.5-7.8-1.1-11.7-1.5c-2.3-0.3-4.7-0.4-7-0.6
		c-4-0.2-8-0.4-12-0.5c-5.1-0.1-10.2,0-15.2,0c-4.4,0-8.8,0-13.2,0.2c-3.5,0.1-6.9,0.4-10.4,0.6c-5,0.3-10,0.6-14.9,1.1
		c-2.5,0.2-4.9,0.8-7.3,1c-1.3,0.1-2.4,0.3-3.6,1c-1.6,1-3.6,1.1-5.1,0.8C441.1,82.1,440.4,82.3,439.6,82.6z M508.5,176.7
		c-2.5-0.1-5-0.3-7.5-0.4c-2.9-0.1-5.8-0.1-8.6-0.1c-3.8,0-7.6,0-11.3,0.1c-3.6,0-7.3,0.1-10.9,0.2c-0.5,0-1-0.1-1.5-0.1
		c-2.8,0-5.7,0.1-8.5,0.1c-0.1,0.1-0.1,0.3-0.2,0.4c0.9,1.1,1.8,2.2,2.7,3.4c0.2,0.2,0.4,0.3,0.5,0.5c1.6,3,4.5,2.9,7.3,3
		c1.2,0,2.4,0.1,3.7,0c0.5,0,1.1-0.3,1.6-0.3c0.5,0,1.1,0,1.6,0.1c0.6,0.1,1.2,0.4,1.8,0.4c5.9,0,11.8-0.3,17.6-0.2
		c4.7,0.1,9.4,0.7,14.1,1.1c0.7,0.1,1.6,0.6,2.1,0.4c0.6-0.3,0.8-1.2,1.2-1.9c0.8-1.2,1.6-2.4,2.3-3.6c0.4-0.7,0.8-1.5,1.3-2.5
		C514.4,177.1,511.4,176.9,508.5,176.7z M528.1,230.5c-0.3,0.7-0.8,1.1-1.5,0.9c-0.9-0.2-0.9-0.9-0.9-1.7c0-1.1-0.2-2.3-0.3-3.4
		c0-0.2-0.3-0.4-0.5-0.7c-0.2,0.4-0.4,0.6-0.5,0.9c-1.2,5.1-0.7,10.1,2.7,14.2c1.4,1.7,3.6,2.8,5.7,3.7c0.8,0.4,2.2-0.4,3.3-0.9
		c1.2-0.5,2-1.3,1.9-3c-0.1-2.2,1-3.9,2.5-5.4c0.1-0.1,0.3-0.3,0.5-0.4c0.4-0.2,1.1-0.3,1.2-0.6c0.2-1,0.4-2.1,0.2-3.1
		c-0.1-0.6-1.1-0.9-1.7-1.4c-1.5-1.6-2.2-5.3-1.2-7.3c0.5-1,0.3-1.7-0.4-2.5c-1.8-2.2-4.2-2.7-6.9-2.6c-0.2,0-0.4,0.2-0.7,0.3
		c-0.7,0.3-1.3,0.7-2,0.7c-1.1,0.1-1.5,0.7-2,1.5c-0.7,1.3-1.5,2.5-2.3,3.9C527.7,224.8,529,228.3,528.1,230.5z M435,166.6
		c0-0.4,0-0.8,0-1.3c-0.1-1.9-0.1-1.8-2-2.2c-2.6-0.5-5.2-1.2-7.9-1.4c-3.4-0.3-6.8-0.3-10.1,1.3c-3.1,1.6-4.2,4.4-5.1,7.4
		c-0.2,0.7,0.1,1,1,1c4.3-0.1,8.5,0.8,12.7,1.7c3.9,0.8,7.8,1.7,11.7,2.5c0.2,0,0.3,0,0.6,0C434.8,172.7,434.8,169.6,435,166.6z
		 M545.1,172.6c-0.3,1.3-1,1.6-2.1,0.7c-0.7-0.6-1.3-1.1-2.1-1.9c-0.6,0.8-1,1.6-1.6,2.2c-0.3,0.3-0.9,0.5-1.3,0.5
		c-0.7-0.1-1.3-0.5-1.8-0.6c-0.3,0.6-0.4,1.6-0.8,1.7c-0.6,0.2-1.4-0.2-2.1-0.5c-0.6-0.2-1.1-0.7-1.6-1c-0.2,1.3-0.4,2.5-0.7,3.7
		c-0.2,0.8-0.7,1-1.4,0.8c-0.5-0.1-1-0.3-1.5-0.5c-0.4,0.8-0.9,1.5-1.3,2.3c3.7,0.3,6.8,2,10.1,3.3c2,0.8,4.1,1.5,6.1,2.3
		c0.5,0.2,1,0.4,1.7,0.7c-0.1-0.4-0.2-0.6-0.2-0.8c-0.1-0.5-0.4-1.1-0.2-1.3c0.3-0.4,1-0.7,1.4-0.6c1.4,0.4,2.7,0.9,4.1,1.4
		c0.3,0.1,0.5,0.3,0.7,0.4c1.2-1.4,1.5-1.4,3.1-0.6c1.5,0.7,3.2,1,4.9,0.6c-0.7-2.4-10-12.1-13.3-13.6
		C545.2,172.2,545.2,172.4,545.1,172.6z M565.3,207.9c-0.1,0.2-0.2,0.3-0.2,0.5c1.1,2.4,2.2,4.8,3.4,7.2c0.5,0.9,1.4,1.2,2.4,1.3
		c3,0.2,5.9,0.7,8.9,0.6c2.7-0.1,5.3-0.7,8-1.1c1.4-0.2,2.8-0.1,4.1-0.3c0.4,0,1-0.4,1.1-0.8c0.6-1.9,1-3.9,1.5-5.9
		c0.2-0.8,0.4-1.6,0.6-2.7C585.2,207.9,575.3,209.6,565.3,207.9z M557.3,179.8c1.7-0.2,3.1-0.5,4.4-0.4c4.9,0.1,9.9,0.1,14.8,0.3
		c3.8,0.2,7.7,0.6,11.8,1c-2.2-2.1-4.3-4.2-6.4-6.1c-0.2-0.2-0.8-0.1-1.2,0.1c-0.8,0.4-1.4,0.3-2.2,0c-1.1-0.4-2.4-0.4-3.6-0.6
		c-5.8-1.1-11.6-0.7-17.5-1c-0.7,0-1.4,0.3-2,0.4c-0.5,0-1.2,0-1.4-0.2c-1-1.2-1.4-1.3-2.8-0.5c-0.2,0.1-0.4,0.4-0.7,0.6
		C552.9,175.7,555.3,177.9,557.3,179.8z M415.1,230c0.2-0.1,0.2-0.4,0.4-0.6c0.3-0.4,0.6-1.2,0.9-1.2c0.5,0,0.9,0.5,1.4,0.8
		c0.2,0.1,0.3,0.3,0.7,0.7c0.8-1.9,1.6-3.5,2.3-5.2c-1-0.3-1.7-0.5-2.6-0.7c-0.5,0-1.3,0.1-2,0.2c0-0.1,0-0.2-0.1-0.3
		c-0.4,0.3-0.7,0.7-1.2,0.9c-0.5,0.2-1.1,0.3-1.5,0.1c-1.3-0.7-1.4-3.7-0.3-4.5c1.2-0.9,2.1-0.5,3.1,1.2c1.2-0.3,2.1-0.9,2.2-2.4
		c0-1.3,1-1.2,2.3-0.9c-0.3-1.2-0.3-2.3-0.8-3c-1.2-1.7-2.1-3.6-4.2-4.6c-2.2-1.1-4.2-0.7-6.2,0.6c-4,2.5-4.6,6.3-4.4,10.5
		c0.1,3.1,0.5,6,1.8,8.9c1.3,2.6,4.3,3.8,7.1,2.3C413.7,231.6,413.8,230.6,415.1,230z M526.3,181.5c0.2-0.1,0.3-0.3,0.5-0.4
		c-0.9-0.1-1.8-0.3-2.5-0.4c-3,2.3-3.5,5.8-4.7,8.9c-0.5,1.4-0.4,1.6,1.1,1.8c4.6,0.4,9.1,0.9,13.7,1.3c3.6,0.3,7.2,0.6,10.8,0.9
		c0.6,0.1,1.2,0,2.1-0.3c-0.6-0.5-1.1-1-1.8-1.4c-1.2-0.6-2.5-1.1-3.7-1.6c-0.8-0.4-1.6-0.7-1.5-1.9c0-0.2-0.3-0.6-0.5-0.7
		c-2.8-1.5-5.8-2.4-9-2.6c-0.9-0.1-1.7-0.3-2.6-0.3c-0.7,0-1.3,0-2,0.1c-0.9,0.1-1.8,0.4-2-0.8c-0.2-1.1,0.7-1.4,1.6-1.5
		c0.8-0.1,1.6,0,2.3,0c0-0.1,0.1-0.2,0.1-0.2C527.5,182.1,526.9,181.8,526.3,181.5z M562.2,186.6c2.2-0.1,4.2-0.2,6.2-0.3
		c4.7-0.1,9.5-0.3,14.2-0.2c2.2,0,4.6,0.3,6.7,0.9c1,0.3,1.9,1.5,2.6,2.5c0.2,0.2-0.3,1-0.5,1.7c-0.1-0.2,0,0,0,0
		c1.4,0,2.4,0.6,3.1,1.8c0.2,0.2,0.9,0.1,1.4,0.1c0.9,0,1.8-0.1,2.9-0.2c-3.2-3.8-6.5-7.6-10-11.8c-0.2,1.9-0.9,2.1-2.3,1.7
		c-2.1-0.5-4.3-0.5-6.5-0.7c-2.5-0.2-4.9-0.3-7.4-0.3c-1,0-2,0.2-3,0.1c-2.5-0.1-5-0.3-7.5-0.4c-1,0-2.1,0.2-3.4,0.3
		C560.1,183.7,561.2,185.3,562.2,186.6z M536.6,165.8c0-0.1,0.1-0.1,0.1-0.2c-0.8-0.9-1.6-1.8-2.4-2.7c-0.2-0.3-0.3-0.7-0.4-1.1
		c0.4,0.1,0.9,0,1.2,0.2c0.5,0.3,1,0.6,1.4,1c0.6,0.5,1.1,1,2.1,0.5c0.3-0.2,1,0.2,1.4,0.6c1.6,1.4,3.1,3,4.6,4.5
		c0.6,0.6,3,1,3.7,0.6c1.7-1.2,3.8-1.5,5.8-1.4c5.4,0.3,10.7,0.7,16.1,1.1c0.9,0.1,1.7,0.8,2.5,1.3c0.9,0.6,1.7,0.9,3.1,0.5
		c-0.7-0.4-1.1-0.7-1.5-0.9c-3.5-1.5-7-3.1-10.6-4.4c-2.8-1-5.8-1.5-8.7-2.3c-1.2-0.3-2.4-0.9-3.6-1.1c-2.4-0.3-4.8-0.4-7.1-0.5
		c-2.1-0.1-4.1-0.2-6.2-0.2c-1.5,0-3-0.1-4.5,0.2c-0.7,0.1-1.2,0.9-2.1,1.5C533.3,163.9,535,164.8,536.6,165.8z M559.1,248.5
		c0.5-1.2,0.6-2.5,1.3-3c1-0.8,2.4-1.1,3.7-1.5c0.3-0.1,0.8,0.1,1.1,0.3c0.8,0.4,1.4,0.7,2.3,0.1c0.3-0.2,1,0,1.4,0.2
		c0.9,0.4,1.7,0.8,2.7,1.3c0.4-1.1,1-1.7,2.2-1.1c0.2,0.1,0.6,0,0.7-0.2c0.7-0.8,1.3-0.5,2-0.1c1.7,1,3.3,2,5,3
		c0.3-0.4,0.6-0.7,1-1.1c-3.3-2.2-5-5.5-6.5-8.9c-0.1-0.3-0.7-0.5-1-0.6c-1.1-0.2-2.2-0.2-3.4-0.4c-0.3,0-0.7-0.1-0.9-0.3
		c-2-1.8-4.4-1.1-6.6-1c-0.4,0-1,0.5-1.1,0.9c-1.2,4.1-3.1,7.8-5.4,11.3c-0.1,0.1-0.1,0.3-0.2,0.7
		C558.2,248.4,558.8,248.5,559.1,248.5z M446.5,215.8c5.6,0.5,11.1,1.2,16.6,1.8c0.5,0.1,1,0.1,1.5,0.1c0.2,0,0.6-0.1,0.7-0.2
		c0.4-0.9,0.9-1.8,1.1-2.7c0.4-1.3,0.2-1.7-1.2-1.7c-2.8-0.1-5.6-0.1-8.4-0.3c-2.6-0.2-5.3-0.6-7.9-0.9c-2.5-0.3-5.1-0.5-7.6-0.9
		c-1.4-0.2-2.7-0.8-4-1.2C439.8,212.5,442.3,215.4,446.5,215.8z M498.3,237.9c0.1-0.1,0.1-0.1,0.2-0.2c-0.1-0.2-0.2-0.5-0.3-0.7
		c-0.8-1.4-0.4-2.6,1-3.3c0.3-0.1,0.7,0,1.1,0.1c0.2,0.1,0.4,0.4,0.6,0.6c1.4,2,1.4,2,3.6,2.7c0.1-0.9,0.2-1.8,0.3-2.8
		c0.6,0.1,1.1,0.2,1.9,0.4c1.3-0.8,1.3-0.8,4.3,2c0.5-0.2,1.2-0.7,1.4-0.5c0.5,0.3,0.8,0.9,1,1.5c0.2,0.5,0.3,1.1,0.5,1.7
		c1-0.2,1.3-0.5,1.2-1.4c-0.5-2.4-0.8-4.9-1.3-7.3c-0.2-1.1-1.5-1.7-3-1.4c-2.2,0.5-4.3,0.5-6.5,0.2c-1.2-0.1-2.5-0.1-3.7-0.1
		c-0.3,0-0.8,0.3-0.8,0.6c-0.2,1.9-1.8,2.5-3,3.5c-0.6,0.5-1.3,0.8-1.9,1.2C496,236,497.2,236.9,498.3,237.9z M406.8,206.9
		c1-0.2,2.2-0.2,3.1-0.7c2.2-1.2,4.1-1.3,6.2,0.2c0.3,0.2,0.7,0.4,1.1,0.5c1.3,0.2,1.8,1.1,1.6,2.4c-0.1,0.4,0.2,1.2,0.5,1.3
		c2.1,1,3.1,3,3.5,5c0.7,3.3,1.2,6.7,0.1,10.1c-1,3.1-2.2,6.2-5.1,8.2c-1.4,0.9-3,1.5-4.6,2.3c0.6,0.1,1.2,0.4,1.7,0.2
		c1.8-0.4,3.6-0.4,5.1-1.7c0.6-0.6,1.7-0.7,2.3-1.3c1.3-1.2,2.4-2.5,2-4.4c-0.1-0.3,0.2-0.7,0.3-1.1c0.7-2.7,1.7-5.4,0.7-8.3
		c-0.5-1.5-0.6-3.1-0.8-4.7c-0.1-0.8-0.2-1.5-1.3-1.6c-0.3,0-0.7-0.6-0.7-0.9c0-2.2-1.5-3.6-2.6-5.2c-0.5-0.8-0.7-1.3,0.1-2
		C415.5,202.4,410.2,203.7,406.8,206.9z M520.2,173.4c0.3-0.2,0.4-0.5,0.7-0.7c1.6-1.1,1.6-1.1,0.2-2.6c-1.8-1.8-3.5-3.7-5.4-5.4
		c-0.9-0.8-2.2-1.2-3.4-1.4c-2.1-0.3-3.1,1.9-2.6,3.9c0.6,2.4,1.7,4.6,2.6,6.9c0.1,0.2,0.4,0.5,0.6,0.5c1.1,0.3,2.3,0.6,3.7,0.9
		C517.7,175,519,174.2,520.2,173.4z M461.4,190.8c-2.2-1.9-4.2-3.6-6.8-4.2c-2.5-0.6-5-1.1-7.5-1.8c-0.5-0.1-1.3-0.7-1.4-1.1
		c-0.1-1-0.7-1-1.3-1.1c-2.6-0.6-5.2-1.2-7.7-1.7c-3.5-0.7-7-1.5-10.5-1.9c-4.2-0.6-8.4-0.9-12.6-1.3c0,0.2-0.1,0.4-0.1,0.6
		C429.7,181.2,445.3,186.4,461.4,190.8z M431.1,157.4c0.1,0.8,0.7,1.7,1.3,2.3c0.3,0.4,1.3,0.6,1.7,0.3c0.4-0.2,0.4-1.1,0.4-1.7
		c0-0.9-0.2-1.8-0.4-2.7c-1.1-5.3-1-10.8-0.8-16.2c0-0.5,0.1-0.9,0-1.4c-0.1-0.5-0.5-1.2-0.7-1.2c-0.6,0.1-1.4,0.3-1.6,0.7
		c-0.5,1-0.7,2.1-0.9,3.1c-0.1,1.2,0,2.5,0,3.8c-0.1,0-0.2,0-0.4,0C430.1,148.8,430.5,153.1,431.1,157.4z M582.3,200
		c0.4-0.5,0.7-1,1.1-1.4c0.3-0.3,1-0.5,1-0.4c0.3,0.3,0.5,0.8,0.6,1.3c0,0.5-0.2,0.9-0.2,1.6c0.6-0.5,1.1-1.1,1.7-1.6
		c0.4-0.3,1-0.4,1.5-0.6c0,0.6,0.3,1.3,0.1,1.7c-0.5,1.2-1.3,2.3-1.8,3.5c1-1.1,2-2.2,3.1-3.3c0.6-0.6,1.2-1.3,1.8-1.9
		c0.2-0.2,0.7-0.2,1-0.3c0,0.3,0.2,0.8,0,1c-0.3,0.6-0.7,1.2-1.1,1.8c-0.2,0.3-0.4,0.6-0.5,1.1c2-1.5,3.3-3.5,4.8-5.8
		c-0.8,0-1.3,0.1-1.8,0.1c-4.2,0.3-8.4,0.6-12.5,0.9c-2.4,0.2-4.8,0.4-7.2,0.6c-0.3,0-0.6,0.2-0.7,0.4c-1.2,1.7-2.4,3.4-3.6,5.1
		c-0.1,0.2-0.2,0.3-0.3,0.6c1.4-0.1,2.2-0.8,2.9-1.7c0.7-0.8,1.4-1.6,2.2-2.2c0.2-0.2,0.7-0.2,1.1-0.3c0,0.4,0.3,1,0.1,1.2
		c-0.4,0.7-1,1.3-1.6,1.9c-0.7,0.7-1.4,1.5-2.1,2.2c0.1,0.1,0.2,0.2,0.3,0.4c0.8-0.6,1.8-1.2,2.5-1.9c1.5-1.6,2.8-3.4,4.2-5
		c0.2-0.2,0.5-0.3,0.8-0.5c0.1,0.3,0.4,0.7,0.4,1c-0.2,0.6-0.4,1.3-0.8,1.8c-1,1.3-2,2.5-3,3.7c-0.2,0.3-0.4,0.6-0.6,0.9
		C578.3,204.4,580.5,202.4,582.3,200z M510.9,146.2c-0.6,0.7-0.6,1.2-0.1,1.8c2.4,2.8,4.7,5.7,7.1,8.5c0.4,0.5,0.9,1,1.4,1.5
		c0.1-0.1,0.3-0.1,0.4-0.2c-1.1-5.8-2.3-11.6-3.4-17.4c-0.1,0-0.3,0-0.4,0.1C514.2,142.4,512.6,144.3,510.9,146.2z M586.6,188.7
		c-3.6-0.2-7.2-0.3-10.8-0.3c-3.9,0.1-7.7,0.4-11.5,0.6c-0.2,0-0.4,0.1-0.7,0.2c0.2,0.7,0.4,1.4,0.5,1.7c1.2,0.1,2.1,0.1,3.1,0.1
		c0.5,0,1.2-0.5,1.5-0.3c1.5,0.7,3.1-0.2,4.4,0.4c1.7,0.8,3.5,0.6,4.8,0.2c1.3-0.4,2.3-0.6,3.6-0.4c1,0.1,2.2-0.6,3.3-0.9
		c0.3-0.1,0.6-0.1,0.9-0.1c1.4,0.5,2.8,1.2,4.2,0.1C589.4,188.8,587.9,188.8,586.6,188.7z M503.5,166.2c-0.3,0.1-0.7,0.2-0.9,0.3
		c-1.6,1.1-3.2,1.9-4.4,3.6c-0.9,1.2-2.9,1.6-4.4,2.4c-0.4,0.2-0.7,0.5-1,0.8c0.3,0.2,0.7,0.5,1,0.5c3.2,0.2,6.4,0.3,9.7,0.4
		c0.7,0,1.3,0.1,2.1,0.1C504.9,171.6,504.2,169,503.5,166.2z M448.4,172.6c-0.4,0.6-0.7,1.2-1.1,1.7c-0.3,0.4-0.8,0.6-1.2,0.9
		c-0.2,0.2-0.5,0.3-0.8,0.4c0.2,0.3,0.4,0.7,0.7,0.8c2.6,1.2,5.1,2.3,7.7,3.4c1.4,0.6,2.9,1.1,4.3,1.7c0.1-0.1,0.1-0.2,0.2-0.3
		c-1.7-2.1-3.4-4.2-5-6.2C450,177.2,449.9,173.9,448.4,172.6z M605.1,237.3c0.5,0.3,1.1,0.7,1.7,0.9c0.8,0.2,1.8,0.5,2.6,0.3
		c0.6-0.2,0.9-1,0.6-1.9c-0.3-0.8,1-2,2.3-2.2c1.2-0.2,1.8-0.9,2.2-2c0.3-0.8,0.1-1.2-0.8-1.2c-1.3-0.1-2.5-0.4-3.8-0.5
		C608.2,232.9,606.6,235.2,605.1,237.3z M513.6,191.7c2.3,0.2,2.7-0.2,3.5-2.2c1.7-4.3,3.5-8.6,5.3-12.9c0.1-0.3,0.2-0.6,0.4-1.2
		C520.4,176.8,514.4,187.6,513.6,191.7z M547.8,221.2c1.5,4.5,1.9,9.1,1.2,13.8c-0.1,1-0.3,1.9,1.1,2.1c0.2,0,0.5,0.3,0.8,0.4
		c-0.8-1.1-1-2.1-0.3-3.4c0.2-0.4-0.2-1.2-0.2-1.8c0-0.7,0.3-1.3,0.4-2c0.6,0.1,1.2,0.3,1.8,0.4c0,0,0-0.2-0.1-0.4
		c-1-1.8-2-3.6-2.9-5.5c-0.2-0.4-0.2-1.1,0-1.5c0.4-0.7,0.3-1.1-0.2-1.7c-0.5-0.6-0.7-1.2-0.2-2c0.2-0.4-0.4-1.2-0.7-2
		C547.2,218.9,547.4,219.9,547.8,221.2z M581.8,225.3c-0.6,0.1-1.4,0.2-1.7-0.1c-0.4-0.3-0.3-1.1-0.4-1.7c0-0.3,0.1-0.6,0.1-0.8
		c0-0.8,0.1-1.6,0.1-2.6c-2.2-0.1-4.7-0.2-7.7-0.4c0.9,1.5,1.6,2.5,2.3,3.6c0.1,0,0.1-0.1,0.2-0.1c-0.2-0.7-0.4-1.3-0.6-2
		c0.1-0.1,0.2-0.2,0.4-0.3c0.8,0.8,1.6,1.6,2.4,2.4c0-0.4,0-0.7,0-1.1c0.2,0,0.4,0,0.4,0.1c0.8,1.1,1.5,2.2,2.3,3.3
		c0.2,0.3,0.7,0.7,1,0.6c2.3-0.4,4.7-0.9,7-1.4c0-0.2,0-0.3-0.1-0.5C585.7,224.7,583.7,225,581.8,225.3z M442.9,174.6
		c-0.2-0.4-0.3-0.7-0.4-1c-0.2-0.4-0.6-0.9-0.5-1.1c1-1.5-0.5-2-1-2.9c-0.3-0.5-0.5-1-0.9-1.8c1.7,0.1,2.5,1,3.4,1.8
		c0.9,0.8,1.7,1.7,2.6,2.5c0.1-0.1,0.2-0.2,0.4-0.2c-0.4-0.6-0.7-1.2-1.1-1.7c-1-1.3-1.9-2.7-3.1-3.9c-0.6-0.6-1.6-0.9-2.6-1.3
		C438.7,168.1,440.7,173.8,442.9,174.6z M474.1,209.2c0.3,0.5,0.5,1,0.8,1.4c1.7,2.2,3.5,4.3,5.2,6.5c0.5,0.6,0.7,1.4,1.1,2.1
		c0.2,0.3,0.5,0.5,0.8,0.6c0.6,0.1,1.2,0,1.9,0c0.1-0.1,0.1-0.2,0.2-0.3C480.8,215.9,478.6,211.6,474.1,209.2z M557.4,199.8
		c0.4-0.2,0.8-0.2,1.3-0.3c-0.1,0.5,0,1.1-0.3,1.5c-0.4,0.5-1,0.9-1.4,1.4c-0.2,0.2-0.3,0.4-0.4,0.6c0,0.1,0.1,0.2,0.1,0.3
		c0.4-0.2,1-0.2,1.3-0.5c1-1.1,1.9-2.3,3-3.4c0.3-0.3,0.8-0.4,1.2-0.7c0.1,0.5,0.3,1.1,0.2,1.6c-0.1,0.5-0.5,0.9-0.7,1.3
		c0.1,0.1,0.2,0.2,0.3,0.2c1-1.1,2-2.1,3-3.2c-0.1-0.2-0.1-0.3-0.2-0.5c-2.1-0.2-4.3-0.4-6.4-0.6c-0.2,0-0.4,0.1-0.5,0.3
		c-0.7,0.9-1.3,1.8-2,2.7c0.1,0.1,0.1,0.1,0.2,0.2C556.5,200.5,556.9,200.1,557.4,199.8z M434.2,220.1c-0.7-0.4-1.3-1.1-1.7-1.8
		c-0.6-1,0.4-1.5,1-2c0.8-0.8,1.7-1.5,2.4-2.3c0.7-0.7,0.7-1.5-0.3-2c-1.4,1.5-2.8,2.9-4.3,4.4c-0.1,0.1-0.1,0.2-0.2,0.3
		c-0.3,1.8,1.6,5.1,3.3,5.8C435.2,221.5,435.5,220.8,434.2,220.1z M543.6,208c-0.1-0.6-0.2-1-0.3-1.3c-0.7-1.7-1.4-3.3-2.2-4.9
		c-0.2-0.4-0.8-0.8-1.2-0.8c-1.2-0.1-2.3,0-3.8,0C538.7,203.4,541,205.6,543.6,208z M613.8,226.6c-1.3,0.3-1.8-0.2-1.5-1.5
		c0.2-0.6,0.5-1.4,0.3-1.9c-0.2-0.6-0.9-1.1-1.4-1.6c-0.1,0.1-0.2,0.1-0.4,0.2c0.1,0.7,0.2,1.4,0.2,2.1c0,1.2,0.1,2.5-0.1,3.7
		c-0.1,0.8,0,1.2,0.8,1.4c0.1,0,0.2,0.1,0.2,0.1c0.9,0,2,0.4,2.6,0c0.5-0.3,0.3-1.6,0.4-2.7C614.3,226.5,614.1,226.6,613.8,226.6z
		 M543.4,223.1c0.4,1.8,0.8,3.8,1.1,5.7c0.3,0.1,0.4,0.1,0.5,0.1c1.8-0.7,1.8-0.7,1.4-2.6c-0.3-1.5-0.6-3-0.9-4.6
		C544.7,222.3,544.1,222.6,543.4,223.1z M526.5,194.4c-2.6-0.2-4.8-0.5-7-0.7c-0.1,0.1-0.2,0.2-0.2,0.4c0.5,0.5,1.3,0.9,1.5,1.5
		c0.3,0.7,0.1,1.5,0.1,2.6c0.4-0.6,0.8-1.1,1.2-1.5c0.3-0.3,0.7-0.5,1-0.8c0.2,0.4,0.4,0.8,0.6,1.2c0.1,0.1,0.1,0.3,0.1,0.5
		c0.1,0.1,0.2,0.1,0.3,0.2C524.8,196.6,525.6,195.6,526.5,194.4z M506.5,157.9c1.2-0.1,2.5-0.1,4-0.2c-1.6-2.3-3-4.3-5.2-5.9
		C505.7,154,506.1,155.9,506.5,157.9z M473.5,171c-0.4-0.3-0.8-0.5-1-0.9c-0.3-0.5-0.5-1.1-0.8-1.7c0.6-0.2,1.1-0.5,1.5-0.6
		c-1.5-0.8-2-0.7-3.6,0.8c1.2,1.4,2.6,2.6,3.5,4.2c0.8,1.3,1.8,1.3,3,1.1c0.1,0,0.1-0.1,0.5-0.4C475.5,172.7,474.5,171.8,473.5,171z
		 M547.7,206.3c-0.7-1.1-1.2-2.4-2.2-3.5c-0.5-0.6-1.6-0.7-2.4-1c-0.1,0.1-0.1,0.2-0.2,0.3c1.1,2,2.1,3.9,3.2,5.9
		C546.7,207.3,547.2,206.8,547.7,206.3z M511.7,219.9c-0.2-0.6-0.2-0.8-0.3-1.1c-0.7-1.4-0.7-1.3,0.9-1.4c0.3,0,0.8-0.3,1-0.6
		c0.1-0.2,0-0.6-0.1-0.9c-0.8-1.5-1.4-1.6-2.6-0.4c-0.7,0.8-1.4,1.6-2.2,2.5C509.5,218.7,510.4,219.2,511.7,219.9z M429.9,212.5
		c-0.3,0.3,0.1,1.2,0.3,2.1c1.9-1.3,3.1-2.7,4-4.4c0.2-0.3-0.2-0.9-0.3-1.4c-0.2,0-0.3,0-0.5-0.1C432.2,210,430.9,211.2,429.9,212.5
		z M529.8,195.2c-1.2-0.8-1.4-0.7-2.1,0.3c-1.1,1.6-2.3,3.1-3.5,4.7c-0.3,0.4-0.7,0.9-1.3,1.5C526.3,200.3,528.1,197.8,529.8,195.2z
		 M571.8,198.6c-0.1-0.1-0.1-0.2-0.2-0.3c-1.4,0-2.9,0-4.3,0c-0.2,0-0.4,0.3-0.5,0.5c-0.3,0.9-0.5,1.8-0.6,2.9
		c0.7-0.8,1.3-1.6,2-2.4c0.2-0.3,0.6-0.4,0.8-0.6c0.2,0.4,0.5,0.8,0.5,1.2c-0.1,0.5-0.5,1-0.9,1.5c-0.7,0.9-1.4,1.8-2.1,2.6
		c0.1,0.1,0.3,0.2,0.4,0.3C568.6,202.4,570.2,200.5,571.8,198.6z M539.1,212.1c-0.3-0.5-0.5-1.4-1.1-1.8c-0.7-0.5-1.6-0.6-2.4-0.7
		c-1.4-0.2-2.7-0.3-4.1-0.4c-0.4,0-0.8,0.1-1.4,0.3C533.4,210.4,536.3,211.3,539.1,212.1z M461.9,168.9c-2.6,0-5.3,0-8.4,0
		c1.5,0.5,2.8,1,4.1,1.4c0.5,0.1,1-0.3,1.5-0.4c0.3-0.1,0.7-0.1,0.9,0c1,0.5,2,1,3.2,1.7C462.8,170.6,462.4,169.9,461.9,168.9z
		 M512.7,194.8c-0.4,0.2-0.6,1.2-0.4,1.7c0.4,0.8,0.3,1.4-0.1,2.1c-0.5,0.9-0.9,1.8-1.3,2.7c0.1,0.1,0.2,0.1,0.3,0.2
		c1.4-2.4,2.8-4.7,4.2-7.1c-0.1-0.1-0.2-0.3-0.3-0.4C514.3,194.3,513.4,194.4,512.7,194.8z M468.5,170.7c-2.5-2.8-2.9-2.9-4.8-1.7
		c1.5,1.2,2.9,2.4,4.4,3.7C468.3,171.9,468.4,171.3,468.5,170.7z M559,227.4c0.1,0.7,0.3,1.4,0.1,2.1c-0.1,0.9,0.3,1.8,1.6,2.3
		c1.3-2.5,0.4-5-2.4-6.1C558.6,226.4,558.9,226.9,559,227.4z M594.7,231c-2.4-0.3-4.8-0.5-7.3-0.6c-1,0-2.1,0.3-3.1,0.7
		c3.6,0.7,7.4-0.5,10.8,1.3c0.1-0.2,0.2-0.3,0.3-0.5C595.2,231.6,595,231.1,594.7,231z M583.8,219.8c3.6,0,6.9,0,10.2,0
		C592.2,218.4,586.3,218.5,583.8,219.8z M511.7,207.8c-0.7,0.4-1.5,0.7-2.2,1.2c-0.2,0.1-0.3,0.4-0.4,0.6c-0.2,1.2-0.4,2.4-0.5,3.7
		C511.2,212.2,511.4,209.9,511.7,207.8z M561.1,216.2c-0.1-0.6,0-1.2-0.1-1.8c0-0.2,0-0.5-0.1-0.6c-0.2-0.2-0.7-0.3-0.8-0.2
		c-1.2,1.1-2,0.3-2.9-0.5c-0.2-0.2-0.4-0.2-0.8-0.1c0.2,0.3,0.4,0.7,0.6,0.8c1.6,0.8,2.6,2.2,3.4,3.8c0.2,0.5,0.8,0.8,1.1,1.1
		c0.1-0.1,0.2-0.2,0.3-0.3C561.6,217.6,561.3,216.9,561.1,216.2z M611.8,216.1c-0.4-2.1-1.3-2.7-4.4-2.7
		C608.6,216.3,608.8,216.4,611.8,216.1z M430.1,202.6c-1,1.2-2.1,2.4-3,3.6c-0.2,0.2,0.1,0.9,0.2,1.4
		C430.2,206.1,431.2,204.1,430.1,202.6z M456.9,219.7c-0.7-0.5-1.4-0.7-2.1,0.1c-0.9,1.1-1.8,2.3-2.7,3.4c-0.1,0.1-0.1,0.3-0.2,0.5
		C453.5,223.7,455.5,222,456.9,219.7z M536.5,195.2c-1.6-0.1-2.8-0.2-4.1-0.2c-0.2,0-0.6,0.4-0.7,0.7c-0.3,0.8-0.6,1.6-0.7,2.6
		c0.6-0.5,1.2-1,1.8-1.5c1.2-1.2,1.2-1.2,2.4,0.1C535.6,196.4,535.9,196,536.5,195.2z M443,224.3c0.1,0,0.3,0.1,0.4,0.1
		c1.6-1.2,3.3-2.3,4.8-3.6c0.6-0.5,1-1.2,1.5-1.8C447.7,219.2,443.9,222.4,443,224.3z M607.3,224.4c1,1.5,0.5,2.8-0.2,4.2
		c-0.4,0.9-0.6,2-0.9,3c0.1,0.1,0.3,0.1,0.4,0.2c0.5-0.9,1-1.8,1.4-2.8c0.4-0.9,0.6-1.9,0.9-2.9c0.1-0.2,0-0.8-0.1-0.8
		c-1-0.3-1.3-1-1.2-1.9c0-0.1-0.3-0.2-0.4-0.4c-0.1,0.1-0.2,0.1-0.3,0.2C607,223.6,607.1,224,607.3,224.4z M485.9,211.3
		c0.3,1.5,5.2,7.3,6.6,8c0.1-0.1,0.2-0.2,0.4-0.3C490.6,216.5,488.4,214,485.9,211.3z M539.9,198.4c0.8-0.8,1.5-1.5,2.2-2.2
		c-2.1-1.5-4.1-0.9-4.7,1.5C539.3,196.5,539.3,196.5,539.9,198.4z M595.9,221.3c-2.4,0.2-4.7,0.3-7,0.5c0,0.1,0,0.2,0,0.4
		c2.3,0.2,4.6,0.5,7.2,0.7C596,222.2,595.9,221.7,595.9,221.3z M469.8,207.4c-0.1,0-0.3,0.1-0.4,0.1c0.1,1.6,0.2,3.2,0.3,4.8
		c1.7,0.1,1-1.8,2.3-2.1C471.1,209.1,470.4,208.3,469.8,207.4z M428.7,209.6c-0.1,0.2,0,0.6,0,0.9c0.3,0,0.6,0.1,0.8-0.1
		c1-1,2-2.1,2.9-3.2c0.2-0.2-0.1-0.8-0.2-1.2c-0.1,0-0.3,0-0.4-0.1C430.8,207.1,429.7,208.3,428.7,209.6z M419.4,195
		c0,0.4,1.1,1.4,1.2,1.3c0.7-0.4,1.3-1.1,1.9-1.6c-0.6-0.5-1.2-1.1-2.1-1.9C420,193.7,419.4,194.4,419.4,195z M464.2,221.2
		c-0.4,1-1.1,2-1.7,3c1.1,0,3.4-2.2,3.9-3.8C465,219.6,464.7,219.8,464.2,221.2z M563.6,231.8c0,0.2,0.4,0.5,0.7,0.7
		c0.2-0.2,0.6-0.5,0.6-0.7c-0.4-1.7,0.6-3.7-1.3-4.7C563.6,228.5,563.6,230.1,563.6,231.8z M606.3,244c-0.8-0.4-1.5-0.8-2.5-1.4
		c-0.1,1.5-0.1,3-2.2,2.9C602.4,246.6,603.9,246,606.3,244z M493.2,237.1c0-0.5,0-0.9-0.1-1.5c-1.5,0.3-2.8,0.6-4.2,1
		C490.3,238.5,491.7,237.3,493.2,237.1z M497,221.1c1.4,1.9-0.8,2.3-1,3.6c1.6-1.3,3.1-2.7,4.7-4c0-0.1-0.1-0.2-0.1-0.3
		C499.5,220.6,498.4,220.8,497,221.1z M549.8,196.3c-1-0.2-2.1-0.2-3.1-0.2c-0.2,0-0.5,0.4-0.5,0.6c-0.1,0.4,0,0.9,0,1.6
		c0.6-0.3,1.2-0.5,1.7-0.9c0.9-0.8,1.6-0.9,2.2,0.4C550.9,197,550.7,196.4,549.8,196.3z M585.2,228.3c3.3-0.8,6.4,0,9.6,0.6
		c0.2,0,0.5-0.1,0.7-0.1c-0.1-0.2-0.2-0.5-0.3-0.5c-3.5-0.2-7-1.4-10.5-0.2c-0.1,0-0.1,0.1-0.4,0.3
		C584.7,228.3,585,228.3,585.2,228.3z M515,243c0.2,0.3,0.7,0.5,1,0.7c0.2-0.5,0.7-1,0.6-1.4c-0.1-0.7-0.5-1.4-0.9-2.2
		C514.4,241.4,514.3,242,515,243z M542.1,248.9c0.6-0.8,1.5-1.3,2.2-2c0.2-0.2,0.2-0.7,0.2-1.1c-0.4,0.1-0.9,0.1-1.1,0.3
		c-0.9,0.9-1.8,1.9-2.8,3C541.3,249.6,541.6,249.5,542.1,248.9z M504.2,188.2c0.7-0.3,1.2-0.5,1.7-0.8c0.2-0.1,0.4-0.4,0.5-0.6
		c-0.2-0.2-0.5-0.5-0.7-0.5c-1.5,0-3,0-4.5,0C502.5,186.5,503.7,187,504.2,188.2z M436.3,219.8c1.1,0.3,3.3-2,4-4.2
		C438.2,216.5,437.9,218.8,436.3,219.8z M581.7,228.7c-0.6,0.1-1.3,0-1.7,0.3c-0.2,0.1-0.2,0.9-0.1,1.3c0.3,0.9,0.9,1.3,1.8,0.8
		C581.7,230.3,581.7,229.7,581.7,228.7z M460.3,219.7c-0.7-0.4-1.2-0.4-1.6,0.4c-0.5,1-1.1,1.9-1.9,3.2
		C458.7,222.6,459.6,221.3,460.3,219.7z M609.9,240.4c0-0.1-0.1-0.2-0.1-0.2c-0.8,0.2-1.6,0.3-2.5,0.5c0,0.8,0.1,1.5,0.1,2.2
		c0.1,0.1,0.2,0.1,0.3,0.2C608.4,242.2,609.2,241.3,609.9,240.4z M547.1,241.3c-1.6,1.4-1.7,2.4-0.2,3.1
		C547.1,243.3,549.1,242.5,547.1,241.3z M544.1,238.3c0.6-0.3,1.1-0.5,1.1-0.7c0.1-1.6,0-3.2,0-4.8c-0.1,0-0.3,0-0.4,0
		C544.6,234.6,544.4,236.3,544.1,238.3z M412.4,192.9c0.5-0.7,0.9-1.4,1.2-2.2c0.1-0.2-0.2-0.6-0.3-0.8c-0.3,0.1-0.6,0.2-0.8,0.4
		c-0.5,0.8-0.8,1.7-1.4,3C411.8,193.1,412.3,193.1,412.4,192.9z M476.9,217.1c-0.6,1.7-1.7,1.5-2.9,1.1c1.3,1.1,2.8,0.7,4.3,0.7
		C477.9,218.4,477.5,217.8,476.9,217.1z M509.7,134.3c0.2-1.9-1-3-3.2-2.9C507.6,132.4,508.6,133.3,509.7,134.3z M572.6,231.4
		c-0.6-1-1.1-1.9-1.7-3C570.2,230.8,570.4,231.2,572.6,231.4z M582.2,237.5c-0.2-1.1-0.6-1.3-2.7-0.8
		C580.3,238.3,580.4,238.3,582.2,237.5z M522.1,237.4c-0.8,0.5-1.3,0.8-1.9,1.2c0.5,1.1,1.1,2.2,1.6,3.3c0.2,0,0.3-0.1,0.5-0.1
		C520.9,240.4,521.7,239,522.1,237.4z M526.8,203.2c1,0.5,2,1,3.3,1.6C529.2,202.5,527.9,202.1,526.8,203.2z M527.5,248
		c-0.2,0.3-0.4,0.6-0.9,1.1c1.3,0.4,2.3,0.8,3.4,1.1c0.1-0.1,0.1-0.3,0.2-0.4C529.3,249.2,528.5,248.6,527.5,248z M599.5,196.4
		c-1.4-0.7-1.7-0.4-2.4,2.7C597.9,198.2,598.7,197.4,599.5,196.4z M486,188.4c-0.4-1.9-1.2-2.5-3.1-2C484,187.2,485,187.7,486,188.4
		z M421.4,201.4c-0.5,2-0.4,2.3,1.8,3.2C422.6,203.5,422.1,202.5,421.4,201.4z M551.2,206.7c-0.4-2.8-0.5-2.9-2.2-2.8
		C549.9,205,550.5,205.8,551.2,206.7z M549.9,192.5c0.2,1.6,0.8,2,3,1.8C551.8,193.6,550.9,193.1,549.9,192.5z M405.8,194.1
		c-0.8-1-1.6-0.7-2.6,1.3C404,195,404.9,194.5,405.8,194.1z M469.7,223.2c0.1,0.1,0.2,0.2,0.4,0.3c0.7-0.8,1.4-1.6,2.1-2.3
		c-0.2-0.2-0.3-0.3-0.5-0.5C470.7,221.2,470.4,222.3,469.7,223.2z M426.3,196.9c-0.8,1.3-1.5,2.4-2.2,3.4
		C425.5,199.7,426.5,198.1,426.3,196.9z M516.3,205.8c-0.3-0.6-0.6-1.1-1-1.7c-0.2,1-0.4,2-0.6,2.9c0.1,0.1,0.2,0.1,0.3,0.2
		C515.4,206.7,515.9,206.2,516.3,205.8z M505.5,226.7c0.2-0.2,0.4-0.4,0.7-0.7c-0.3-0.3-0.5-0.6-1-1.2c-0.2,1.1-0.3,1.9-0.5,2.6
		c0.1,0,0.3,0.1,0.4,0.1C505.2,227.3,505.3,227,505.5,226.7z M557.8,241c0.8-0.9,0.6-1.3-1.3-2.4C556.9,239.4,557.3,240.2,557.8,241
		z M558.6,234.9c0.4,0.7,0.7,1.5,1.2,2.3C560.5,235.8,560.4,235.6,558.6,234.9z M487.6,223.6c0.8-0.5,1.5-1,2.5-1.7
		C488.2,221.2,488.1,222.6,487.6,223.6z M470,201.4c-0.3,0.7-0.6,1.2-0.5,1.4c0.3,0.4,0.8,0.7,1.3,1c0.1-0.1,0.2-0.2,0.3-0.3
		C470.8,202.9,470.5,202.3,470,201.4z M453,219.4c-0.2-0.1-0.3-0.3-0.5-0.4c-0.7,0.9-1.5,1.8-2.2,2.7c0.1,0.1,0.2,0.2,0.3,0.3
		C451.4,221.1,452.2,220.2,453,219.4z M595.5,225.5c0-0.1,0-0.3,0-0.4c-1.2,0-2.5,0-3.7,0C593,225.3,594.3,226,595.5,225.5z
		 M468.7,188.1c0.3,0.3,0.7,0.5,1,0.7c0-0.9,0-1.7,0-2.5c-0.1-0.1-0.1-0.2-0.2-0.3C469.2,186.7,468.9,187.3,468.7,188.1z
		 M604.2,233.1c-0.2,0.5-0.2,1-0.3,1.5c0.1,0.1,0.2,0.1,0.4,0.2c0.3-0.4,0.7-0.8,1-1.2c0-0.1-0.1-0.3-0.1-0.4
		C604.8,233.2,604.2,233.1,604.2,233.1z M487.5,172.4c-0.1,0.1-0.2,0.1-0.2,0.2c0.5,0.5,0.2,1.7,1.8,1.2
		C488.6,173.3,488,172.8,487.5,172.4z M528.9,166c1.3,0.4,1.5,0.2,1.3-1.5C529.8,165,529.4,165.5,528.9,166z M493.5,221.8
		c-0.8,0-1.3,0-1.9,0c0,0.4,0,0.8,0.1,1.5C492.3,222.8,492.8,222.4,493.5,221.8z M543.5,197.3c0.1,0.1,0.2,0.2,0.3,0.3
		c0.4-0.4,0.9-0.8,1.3-1.1c-0.1-0.2-0.3-0.3-0.4-0.5C543.3,195.6,543.8,196.8,543.5,197.3z M594.5,248c-0.6-0.9-1.2-1.5-2.2-0.3
		C593.1,247.8,593.8,247.9,594.5,248z M477.1,187.7c-0.2-1-0.4-1.8-2-1.4C475.9,186.9,476.5,187.3,477.1,187.7z M417.1,193.8
		c0.2,0.1,0.3,0.2,0.5,0.3c0.4-0.6,0.7-1.2,1.1-1.9c-0.2-0.1-0.4-0.2-0.5-0.3C417.8,192.6,417.4,193.2,417.1,193.8z M481.4,223.4
		c0.7-0.4,1.2-0.8,1.7-1.2C482,221.7,481.4,222,481.4,223.4z M481.8,228.7c1.5,1.2,1.9,1.3,2.5,0.3
		C483.5,228.9,482.8,228.8,481.8,228.7z M598.2,206.4c0,0.2,0.1,0.4,0.1,0.6c0.7-0.1,1.5-0.3,2.2-0.4c0-0.2-0.1-0.4-0.1-0.6
		C599.7,206.1,599,206.3,598.2,206.4z M415.4,190.7c-0.1,0.6-0.3,1.2-0.4,2C416.5,191.5,416.6,191.2,415.4,190.7z M532.8,204.6
		c-0.1,1.4-0.1,1.5,1.7,1.5C533.8,205.5,533.4,205.1,532.8,204.6z"/>
	<path class="st3" d="M532.2,241c0-2.4-2.3-4.7-4.3-4.5c-0.5,0-1.1,0.5-1.2,0.9c-0.1,0.4,0.3,1.1,0.7,1.4c1.2,0.9,2.7,1.5,2.9,3.3
		c0,0.2,0.4,0.7,0.6,0.7c0.4-0.1,0.9-0.3,1.1-0.7C532.2,241.7,532.2,241.1,532.2,241z"/>
	<path class="st3" d="M530.9,220c-0.1,2,1.1,3,2.6,2.4c0.9-0.3,1.7-0.7,2.5-1.2c0.8-0.5,0.7-1.2-0.1-1.7c-0.3-0.2-0.6-0.4-0.7-0.6
		c-0.8-1.3-1.9-0.5-2.7-0.3C531.8,218.8,531.3,219.6,530.9,220z"/>
	<path class="st3" d="M536.5,230.9c-0.1-1.3-0.6-1.9-1.7-1.9c-1.3,0-2.4,1.1-2.3,2.3c0,1,1.1,2,2.1,2
		C535.6,233.2,536.6,232.1,536.5,230.9z"/>
	<path class="st3" d="M529.9,236.1c0.3,0.2,0.7,0.8,1.2,0.8c1,0.2,2.1-1.2,2.1-2.5c0-0.8-0.3-1.4-1.2-1.4
		C531.1,233,529.9,234.6,529.9,236.1z"/>
	<path class="st3" d="M529.3,227.6c0.2,0.2,0.7,0.9,1.2,1.1c0.7,0.2,1.9-1.3,1.8-2.2c0-0.8-0.9-1.6-1.7-1.6
		C529.9,225,529.3,225.9,529.3,227.6z"/>
	<path class="st3" d="M534.9,226.1c0.4,0.8,0.8,1.5,1.3,2.2c0.1,0.2,0.8,0.2,1,0.1c0.3-0.4,0.8-1,0.7-1.5c-0.1-0.6-0.6-1.2-1-1.7
		c-0.2-0.2-0.8-0.3-1.1-0.2C535.3,225.2,535.1,225.7,534.9,226.1z"/>
	<path class="st3" d="M536.3,235.3c0.2,0.2,0.9,0.9,1,0.8c0.6-0.4,1.2-0.9,1.5-1.6c0.1-0.3-0.6-1.3-1.1-1.3
		C536.7,233.1,536.4,234,536.3,235.3z"/>
	<path class="st3" d="M409.9,215.2c0.1-1.2-0.5-1.6-1.4-1.7c-0.9-0.1-1.4,0.3-1.6,1.1c-0.2,0.6-0.4,1.2-0.7,1.7
		c-0.6,1.1-0.2,2.4,0.8,2.9c0.8,0.4,1.9-0.1,2.3-1.2C409.6,217.1,409.8,216,409.9,215.2z"/>
	<path class="st3" d="M409.7,227.3c-0.4-1.1-0.7-2.3-1.3-3.3c-0.4-0.8-1.4-1.1-2.2-0.4c-0.8,0.7-0.7,1.4,0,2.2
		c0.3,0.3,0.4,0.9,0.6,1.3c0.1,0.4,0,0.9,0.2,1.2c0.3,0.5,0.8,0.8,1.3,1.2c0.4-0.5,0.8-0.9,1.2-1.4c0.1-0.2,0-0.5,0.1-0.7
		C409.6,227.4,409.6,227.3,409.7,227.3z"/>
	<path class="st3" d="M417.9,213.8c0-1.2-2.6-3.2-4.1-3.2c-0.3,0-0.7,0.2-0.9,0.5c-1,1.1-0.7,2,0.7,2.6c0.9,0.4,1.8,0.8,2.8,1.2
		C417.4,215.2,417.9,214.9,417.9,213.8z"/>
	<path class="st3" d="M409,221.4c0,0.9,0.9,2,1.6,1.9c0.9-0.1,1.4-0.8,1.3-1.5c-0.1-0.8-0.1-1.9-1.3-1.9
		C409.7,219.7,409,220.5,409,221.4z"/>
	<path class="st3" d="M412.4,216.8c0,0.9,1,2,1.8,2c0.9,0,1.3-0.7,1.4-1.5c0.1-0.8-0.9-1.7-2-1.7C412.7,215.6,412.4,216,412.4,216.8
		z"/>
	<path class="st3" d="M413.7,228.7c0.3-0.5,0.8-1,0.9-1.5c0.1-0.8-0.4-1.5-1.3-1.5c-0.8,0-1.4,0.4-1.2,1.2c0.1,0.7,0.7,1.2,1.1,1.8
		C413.4,228.7,413.6,228.7,413.7,228.7z"/>
</g>
</svg>
