<?xml version="1.0" encoding="utf-8"?>
<!-- Generator: Adobe Illustrator 21.0.2, SVG Export Plug-In . SVG Version: 6.00 Build 0)  -->
<svg version="1.1" id="Layer_1" xmlns="http://www.w3.org/2000/svg" xmlns:xlink="http://www.w3.org/1999/xlink" x="0px" y="0px"
	 viewBox="0 0 374 301.8" style="enable-background:new 0 0 374 301.8;" xml:space="preserve">
<style type="text/css">
	.st0{fill:#FFFFFF;}
	.st1{fill:#004E7B;}
	.st2{fill:#1C92A7;}
</style>
<g>
	<path class="st0" d="M334.3,285.5l3.4-32l13.5-125.9l5.1-48l-168.6-72l-1.3-0.5L16.6,79.6l5.2,48l13.5,125.9l3.7,34.9l2.4,0.5
		c22.2,4.3,46.1,6.4,71.1,6.4c26.9,0,53.5-2.6,77-7.6c23.5-5,50.1-7.6,77.1-7.6c22.4,0,44.7,1.7,64.3,5L334.3,285.5z"/>
	<path class="st0" d="M112.5,301.8c-25.4,0-49.7-2.2-72.3-6.5l-7.1-1.4L9.6,75.5L186.4,0l176.8,75.5L340,293.1l-10.2-1.7
		c-19.3-3.2-41.2-4.9-63.3-4.9c-26.5,0-52.6,2.6-75.7,7.5C166.9,299.1,139.8,301.8,112.5,301.8z M45,282.9
		c21.1,3.9,43.8,5.9,67.5,5.9c26.5,0,52.6-2.6,75.7-7.5c23.9-5.1,51-7.8,78.4-7.8c21.5,0,42.9,1.6,62,4.5l20.8-194.4L186.4,14.1
		L23.6,83.7L45,282.9z"/>
</g>
<g>
	<path class="st1" d="M0,134.1h14.9c5.1,0,9,1.2,11.7,3.7c2.7,2.4,4,5.8,4,10.2v5.9c0,5.6-2.3,9.2-7,10.8c5.3,1.5,8,5.1,8,11v8.9
		c0,4.4-1.3,7.8-4,10.2c-2.6,2.4-6.6,3.6-11.8,3.6H0V134.1z M23.7,153.9V148c0-2.1-0.8-4-2.3-5.5c-1.5-1.6-3.7-2.4-6.5-2.4h-8v22.2
		h8c2.8,0,4.9-0.9,6.5-2.6C22.9,158,23.7,156.1,23.7,153.9z M24.7,184.5v-8.9c0-2.1-0.8-4-2.4-5.8c-1.6-1.7-3.7-2.6-6.4-2.6h-9v25.2
		h9c2.8,0,4.9-0.8,6.5-2.3C23.9,188.6,24.7,186.7,24.7,184.5z"/>
	<path class="st1" d="M77.1,146.5V186c0,4.4-1.4,7.8-4.2,10.2c-2.8,2.4-7,3.6-12.6,3.6c-5.6,0-9.8-1.2-12.6-3.6
		c-2.8-2.4-4.3-5.8-4.3-10.2v-39.5c0-4.4,1.4-7.8,4.2-10.2c2.8-2.4,7-3.6,12.6-3.6c5.6,0,9.8,1.2,12.6,3.6
		C75.7,138.7,77.1,142.1,77.1,146.5z M70.2,186v-39.5c0-5.3-3.3-7.9-9.9-7.9c-6.6,0-9.9,2.6-9.9,7.9V186c0,5.3,3.3,7.9,9.9,7.9
		C66.9,193.9,70.2,191.3,70.2,186z"/>
	<path class="st1" d="M99,134.1h10.4l14.5,64.2H117l-3.4-14.8H94.8l-3.4,14.8h-6.9L99,134.1z M104.2,141.8l-8.1,35.8h16.2
		L104.2,141.8z"/>
	<path class="st1" d="M152.6,134.1v5.9h-12.8v58.3h-6.9v-58.3H120v-5.9H152.6z"/>
	<path class="st1" d="M167.4,198.4h-6.9v-64.2h6.9v28.7h19.5v-28.7h6.9v64.2h-6.9v-29.7h-19.5V198.4z"/>
	<path class="st1" d="M240.8,146.5V186c0,4.4-1.4,7.8-4.2,10.2c-2.8,2.4-7,3.6-12.6,3.6c-5.6,0-9.8-1.2-12.6-3.6
		c-2.8-2.4-4.3-5.8-4.3-10.2v-39.5c0-4.4,1.4-7.8,4.2-10.2c2.8-2.4,7-3.6,12.6-3.6c5.6,0,9.8,1.2,12.6,3.6
		C239.4,138.7,240.8,142.1,240.8,146.5z M233.8,186v-39.5c0-5.3-3.3-7.9-9.9-7.9c-6.6,0-9.9,2.6-9.9,7.9V186c0,5.3,3.3,7.9,9.9,7.9
		C230.6,193.9,233.8,191.3,233.8,186z"/>
	<path class="st1" d="M279.8,186v-51.9h6.9V186c0,4.4-1.4,7.8-4.2,10.2c-2.8,2.4-7,3.6-12.6,3.6c-5.6,0-9.8-1.2-12.6-3.6
		c-2.8-2.4-4.3-5.8-4.3-10.2v-51.9h6.9V186c0,5.3,3.3,7.9,9.9,7.9C276.5,193.9,279.8,191.3,279.8,186z"/>
	<path class="st1" d="M332,186c0,9.2-5.6,13.8-16.7,13.8c-11.1,0-16.7-4.6-16.7-13.8v-8.4h6.9v8.8c0,2.4,0.8,4.2,2.5,5.5
		c1.6,1.3,4.1,2,7.3,2c3.2,0,5.7-0.7,7.3-2c1.6-1.3,2.5-3.1,2.5-5.4c0-2.3-0.2-4.1-0.7-5.4c-0.5-1.3-1.5-2.8-3-4.3l-17.4-17
		c-2-2-3.4-4-4.2-6c-0.8-1.9-1.1-4.4-1.1-7.4c0-4.4,1.4-7.8,4.1-10.2c2.7-2.4,6.9-3.6,12.4-3.6c10.6,0,15.9,4.6,15.9,13.8v8.4h-6.9
		v-8.8c0-2.4-0.8-4.2-2.3-5.5c-1.5-1.3-3.9-2-7-2c-3.1,0-5.4,0.7-7,2c-1.5,1.3-2.3,3.1-2.3,5.4c0,2.3,0.2,4.1,0.7,5.4
		c0.5,1.3,1.5,2.7,3.1,4.2l17.7,17c1.9,2.1,3.2,4.1,4,6.1C331.6,180.6,332,183.1,332,186z"/>
	<path class="st1" d="M374,198.4h-29.2v-64.2H373v5.9h-21.3v22.7h17.3v5.9h-17.3v23.7H374V198.4z"/>
</g>
<path class="st2" d="M324.2,288.7c-17.6-2-46.4-4.7-67.5-3.8c-20.2,0.9-40.2,3.3-58.7,7.1c-2.7,0.5-5.3,1.1-7.9,1.7l-0.5,0
	c51.4-5.4,55.6-5.3,74-5.9c22.8-1,41.2,1.6,64.4,1.3L324.2,288.7z"/>
<path class="st2" d="M55.9,278.8c17.5,2.2,46.3,5.2,67.5,4.5c20.2-0.7,40.2-2.9,58.8-6.4c2.7-0.5,5.3-1,7.9-1.6l0.5,0
	c-51.5,4.9-55.6,4.7-74,5.1c-22.8,0.8-41.2-2.1-64.4-2L55.9,278.8z"/>
<g>
	<path class="st2" d="M236,103c1.6,2.3,2.5,4.8,2.4,7.6c0,1-0.1,2-0.6,3c-0.5,0.8-1,1.7-1.4,2.5c-1.1,2-2.9,3.4-5,4.1
		c-0.1,0-0.2,0.1-0.3,0.2c0.1,0.2,0.2,0.3,0.3,0.4c0.3,0.3,0.4,0.7,0.1,1.1c-0.3,0.4-0.6,0.2-1,0c-0.5-0.3-1-0.6-1.6-0.9
		c0,0.2,0.1,0.3,0.1,0.5c0,0.2,0,0.6-0.1,0.7c-0.2,0.1-0.5,0-0.7-0.1c-0.5-0.3-0.9-0.6-1.4-0.9c-0.3-0.2-0.5-0.3-0.8-0.4
		c-0.1,0.1-0.1,0.2-0.1,0.2c-0.1,0.3-0.1,0.7-0.3,0.8c-0.3,0.1-0.6-0.1-0.9-0.2c-0.5-0.3-1-0.7-1.4-1.1c-0.5,0.9-0.7,1-1.5,0.4
		c-0.3-0.2-0.6-0.5-0.9-0.7c-0.2,0.3-0.4,0.8-0.6,0.8c-0.3,0-0.6-0.2-0.9-0.4c-0.2-0.1-0.3-0.3-0.5-0.5c-0.5,0.7-0.8,0.7-1.4,0.2
		c-0.5-0.4-1-0.7-1.5-1.1c-0.4,0.7-0.9,0.6-1.4,0.3c-0.5,1.2-1.1,0.4-1.6,0.2c-0.3,0.5-0.4,1.2-0.8,1.4c-0.4,0.2-1.1-0.1-1.6-0.2
		c-0.1,0.4-0.1,0.9-0.2,1.3c-0.5-0.1-0.9-0.2-1.4-0.2c-0.1,0.1-0.2,0.5-0.3,0.5c-0.6,0.1-0.9,0.4-1.2,0.9c-0.2,0.4-0.8,0.5-1.3,0.7
		c0,0.1,0.1,0.2,0.1,0.3c0,0.3,0,0.5,0,0.8c-0.3,0-0.6,0-0.8-0.1c-0.3-0.1-0.5-0.4-0.8-0.5c-0.6,0.8-0.7,0.8-1.5,0.3
		c-0.2-0.2-0.5-0.3-0.7-0.4c-0.2-0.2-0.4-0.2-0.6,0c-0.3,0.3-0.6,0.3-0.9,0.1c-0.4-0.3-0.7-0.5-1.1-0.7c-0.5,0.6-0.8,0.6-1.3,0.3
		c-0.1-0.1-0.3-0.2-0.4-0.3c-0.3-0.2-0.6-0.3-1-0.1c-0.2,0.1-0.6,0-0.9-0.1c-0.4-0.2-0.7-0.4-1-0.6c-0.6,0.6-0.9,0.6-1.4,0
		c-0.5-0.5-1.1-1-1.6-1.5c-0.3-0.3-0.6-0.7-0.9-1c-0.2-0.2-0.4-0.5-0.6-0.7c-0.5,0.7-0.8,0.7-1.2,0c-0.2-0.4-0.5-0.8-0.8-1.2
		c-0.8,0.5-0.9,0.4-1.5-0.3c-0.3-0.3-0.6-0.7-0.8-1.1c-0.5,0.8-0.8,0.8-1.4,0.1c-0.1-0.1-0.4-0.2-0.5-0.2c-0.5,0.3-0.8,0.1-1.1-0.2
		c-0.2-0.2-0.3-0.3-0.5-0.4c-0.7,0.6-0.7,0.6-1.4,0c-0.1-0.1-0.2-0.2-0.3-0.3c-0.2-0.2-0.4-0.3-0.6,0c-0.3,0.4-0.6,0.4-1,0.1
		c-0.5-0.3-0.9-0.6-1.4-0.9c-0.2-0.1-0.5-0.1-0.6,0c-0.3,0.2-0.6,0.3-0.9,0.2c-0.1,0-0.3,0-0.3,0.1c-0.4,0.5-0.7,0.2-1.1,0
		c-0.2-0.1-0.6-0.3-0.7-0.2c-0.5,0.2-0.8,0.1-1.2-0.1c-0.2-0.2-0.4-0.2-0.6,0.1c-0.2,0.3-0.5,0.3-0.8,0.1c-0.4-0.3-0.7-0.6-1.1-0.8
		c-0.1-0.1-0.4,0-0.6,0.1c-0.3,0.3-0.6,0.3-1,0c-0.3-0.3-0.7-0.5-1-0.8c-0.1-0.1-0.4-0.1-0.5-0.1c-0.4,0.5-0.8,0.2-1.3,0
		c-0.2-0.1-0.5,0-0.7,0c-0.3,0-0.6,0.1-0.9,0c-0.4-0.1-0.7-0.2-1-0.3c-0.2,0.5-0.2,0.8-0.4,1c-0.1,0.1-0.6-0.1-0.8-0.2
		c-0.4-0.2-0.7-0.5-1.1-0.7c-0.6-0.3-1.3-0.6-1.9-0.9c0,0.2,0,0.2,0.1,0.3c0.4,0.7,0.3,0.9-0.4,1.1c-0.3,0.1-0.7,0.3-0.9,0.6
		c-0.3,0.4-0.6,0.4-1,0.2c-0.5-0.3-0.8-0.2-1.2,0.2c-0.1,0.2-0.5,0.3-0.6,0.2c-0.2-0.1-0.3-0.4-0.3-0.6c-0.1-0.7,0.4-1.1,0.9-1.4
		c0.6-0.4,1.3-0.7,1.9-1.2c0.4-0.3,0.8-0.4,1.3-0.3c0.7,0.2,1.4,0.6,2.1,0.8c0.2,0.1,0.4,0.1,0.6,0.1c0.4,0,0.9,0,1.3,0
		c0.7,0,1.3,0.4,2.1,0.1c0.3-0.1,0.6,0.1,1,0.1c0.8,0,1.6-0.1,2.4,0.3c0,0,0.1-0.1,0.2,0c0.4,0,0.8,0,1.1,0.1
		c0.2,0.1,0.4,0.2,0.7,0.3c0.2,0.1,0.4,0.2,0.6,0.3c-1-0.8-1.9-1.7-2.4-3c0-0.1-0.3-0.2-0.4-0.2c-1.4-0.1-2.8-0.1-4.3-0.2
		c-2.8-0.2-5.6-0.6-8.4-0.5c-0.3,0-0.6,0-0.6,0.4c-0.1,1.4-0.7,2.6-1.4,3.8c-0.2,0.3-0.5,0.6-0.8,0.9c-0.9,0.8-2,1-3.1,1.4
		c-2.1,0.8-4.2,0.8-6.4,0.5c-0.4-0.1-0.9-0.1-1.3-0.2c-2.2-0.5-3.5-2.1-4.4-3.9c-1.3-2.5-1.4-5.2-1.2-7.9c0-0.4-0.1-0.7-0.3-1
		c-0.5-0.5-0.8-1.2-0.8-2c0.1-1,0.1-2.1,0.5-3c0.8-2.5,1.8-5,2.7-7.4c0-0.1,0.2-0.2,0.2-0.3c0.1-0.2,0.2-0.3,0.3-0.5
		c0.2-1.8,0.9-3.5,1.6-5.2c0-0.1,0-0.2,0-0.3c-0.4-1.5,0.1-2.8,0.8-4c0.8-1.5,2.4-2.1,4-2.4c1.3-0.2,2.6,0.1,4,0.1
		c0.9,0,0.9,0,0.8-0.9c-0.2-1.9-0.4-3.8-0.5-5.7c0-1.3,0.1-2.6,0.3-3.9c0.1-0.9,0.9-1.4,1.6-1.4c0.5,0,0.6-0.2,0.6-0.6
		c0-0.3,0-0.5,0-0.8c0.1-2.6,0.2-5.2,0.4-7.7c0.2-2.4,0.6-4.7,0.9-7.1c0.1-0.4-0.1-0.5-0.4-0.6c-0.6-0.2-1.2-0.3-1.7-0.6
		c-1-0.6-1.8-1.3-2.8-1.8c-0.8-0.4-0.9-1-0.9-1.7c0-0.2-0.1-0.5,0-0.6c0.2-0.4,0.4-0.9,0.7-1.2c1.2-1.2,2.8-1.5,4.4-1.9
		c1.4-0.4,2.8-0.5,4.1-0.8c2.9-0.7,5.8-1.2,8.7-1.4c2.8-0.2,5.6-0.4,8.4-0.5c2.1-0.1,4.2-0.2,6.3-0.2c2.7,0,5.5,0,8.2,0.1
		c2.1,0.1,4.3,0.1,6.4,0.3c2.5,0.2,4.9,0.5,7.4,0.8c2.6,0.3,5.2,0.7,7.8,1.1c1.6,0.2,3.2,0.5,4.7,1c1.5,0.4,2.9,1.1,4.4,1.7
		c0.8,0.3,1,0.9,0.8,1.8c-0.1,0.4-0.2,0.4-0.5,0.4c-1.2-0.1-2.3-0.3-3.5-0.4c-0.4,0-0.8,0-1.2-0.1c0.3,0.4,0.6,0.7,0.7,1
		c0.4,0.8,0.8,1.6,1.2,2.5c0.3,0.6,0.6,1.2,0.8,1.9c0.3,0.9,0.5,1.9,0.8,2.8c0.6,1.9,1.2,3.8,1.8,5.8c0.9,3.2,1.6,6.5,2.4,9.7
		c0.9,3.5,1.9,7,1.9,10.6c0,1.8-0.1,3.6-0.4,5.3c-0.2,0.8,0.2,1.1,0.6,1.6c1.1,1.1,2.2,2.2,3.2,3.4c1.5,1.8,3,3.7,4.5,5.6
		c0.5,0.6,1,1.2,1.5,1.8c0.5,0.6,0.4,1-0.4,1.2c-0.3,0.1-0.6,0.2-1.1,0.4C234.1,100.5,235.1,101.7,236,103z M229.6,97.7
		c0.3-0.4,0.6-0.9,1-1.2c0.1-0.1,0.4-0.1,0.6-0.2c0,0.2,0.1,0.5,0,0.6c-0.3,0.5-0.7,1-1.1,1.6c-0.1,0.1-0.2,0.3-0.3,0.4
		c0,0.1,0,0.1,0.1,0.2c1.1-0.2,2.1-0.5,3.4-0.7c-0.8-1-1.5-1.8-2.3-2.7c-0.7,0.9-1.3,1.7-2,2.5c-0.4,0.3-0.8,0.6-1.2,1
		c0.5,0.1,0.8,0.1,0.9-0.4c0-0.2,0.2-0.4,0.4-0.6C229.2,98.1,229.5,97.9,229.6,97.7z M222.8,83.7c0-2.7,0.1-5.4-0.6-8
		c-0.5-1.6-1-3.2-1.5-4.8c-0.5-1.8-1-3.6-1.5-5.5c-0.3-1-0.7-2-1-3.1c-0.4-1.5-0.7-3.1-1.2-4.6c-0.6-2.1-1.3-4.3-1.9-6.4
		c-0.1-0.4-0.3-0.5-0.7-0.6c-1.9-0.3-3.7-0.5-5.6-0.8c-1.4-0.2-2.7-0.6-4.1-0.8c-0.2,0-0.3-0.1-0.5-0.1c-1.8-0.2-3.7-0.4-5.5-0.5
		c-1,0-2.1,0.2-3.1,0.3c-2.2,0.3-4.4,0.7-6.7,1c0.2,0.8,0.3,1.6,0.6,2.4c0.6,1.9,1.1,3.9,1.8,5.7c1,2.7,1.5,5.6,2.1,8.4
		c0.3,1.4,0.6,2.8,0.9,4.2c0.4,2.1,0.9,4.2,1.4,6.3c0.3,1.1,0.6,2.3,0.9,3.4c0.1,0,0.2,0,0.2,0.1c0.3-0.4,0.7-0.8,0.9-1.2
		c0.2-0.5,0.6-0.7,1-0.7c1.4,0,2.8,0,4.3,0c0.9,0,1.8,0.1,2.6,0.1c1.6,0,3.1,0.5,4.6,0.9c2.4,0.5,4.7,1.4,6.9,2.4
		c1.1,0.5,2.2,1,3.3,1.6c0.5,0.3,1,0.7,1.4,1c0.3,0.2,0.5,0.4,0.8,0.6c0.1,0,0.1-0.1,0.2-0.1C222.8,84.4,222.8,84,222.8,83.7z
		 M188.7,59.5c-0.5-2-0.9-3.9-1.4-5.9c-0.3-1.2-0.8-2.5-1.1-3.7c-0.4-1.5-0.7-3.1-1.1-4.6c0-0.2-0.1-0.3-0.2-0.5c-0.4-1-0.4-1-0.2-2
		c-0.1,0-0.3-0.1-0.4-0.1c-1.5-0.1-2.9-0.2-4.4-0.2c-2.3,0-4.5,0.2-6.8,0.3c-1.3,0.1-2.5,0.2-3.8,0.3c-2,0.2-4,0.5-6,0.8
		c-1.2,0.2-2.5,0.4-3.7,0.6c-1.5,0.3-3,0.5-4.4,0.8c-1,0.2-2,0.6-3,0.9c-0.6,0.2-1.2,0.4-1.8,0.5c-0.2,0.1-0.4,0.2-0.8,0.3
		c1,0.7,1.8,1.2,2.7,1.8c0.3,0.2,0.7,0.3,1.1,0.5c0.2,0.1,0.5,0.2,0.6,0.1c0.6-0.3,0.8-0.1,1,0.6c0.9-1.1,2-0.5,3-0.3
		c2.9,0.6,5.8,0.8,8.7,1.2c1.5,0.2,3.1,0.4,4.6,0.5c0.1,0,0.2,0.1,0.3,0c0.9-0.4,1.8-0.9,2.7-1.3c0.1-0.1,0.2-0.2,0.3-0.2
		c1.1-0.1,2.3-0.2,3.4-0.2c1.4-0.1,2.9-0.1,4.3-0.1c1,0,2,0,3,0.1c0.2,0,0.5,0.2,0.4,0.3c0,0.2-0.2,0.4-0.4,0.5
		c-0.2,0.1-0.4,0.1-0.6,0.1c-1.7,0.1-3.3,0.2-5,0.2c-0.5,0-1,0-1.6-0.1c-0.8-0.1-1.1,0.1-1.1,0.9c-0.1,3.1-1,6.1-0.7,9.2
		c0.1,1.2-0.2,2.4-0.3,3.6c0,0.7,0.1,1.4,0.1,2c0,0.4,0.2,0.5,0.6,0.5c0.7,0.1,1.5,0.3,2.2,0.4c0.2,0,0.5-0.1,0.7-0.2
		c0.7-0.7,1.4-1.5,2.1-2.2c1.2-1.2,2.7-1.7,4.3-2c1-0.2,2.1-0.4,3.3,0.2C189.2,61.9,189,60.7,188.7,59.5z M177.4,68
		c-1.3,0-2.5,0.1-3.8,0.2c-0.7,0.1-1.3,0.4-1.7,1.1c-0.2,0.5-0.8,0.8-1.4,0.9c-0.4,0.1-0.9,0.1-1.3,0.1c-1.2,0.2-2-0.6-2.8-1.2
		c-1.7-1.2-3.6-1.6-5.7-1.7c-0.5,0-1-0.1-1.6-0.1c-1,0-2,0-2.9,0.1c-1.1,0.1-1.6,1-2.1,2c-0.6,1.4-0.7,2.8-0.5,4.3
		c0.2,1.7,0.5,3.4,0.7,5.2c0,0.2,0.1,0.3,0.1,0.4c0.7,0,1.3,0,2,0c0-2.2-0.7-4.4-0.1-6.5c0.3,0.6,0.9,6.1,0.7,6.6
		c1.3,0.7,2.6,1.4,4,2c1,0.4,2.1,0.3,3.1,0.5c1.4,0.2,2.7-0.1,4-0.2c1.6-0.2,2.7-0.9,3.3-2.4c0.1-0.2,0.4-0.3,0.6-0.4
		c0.1,0.2,0.3,0.5,0.2,0.6c-0.2,0.6-0.4,1.1-0.7,1.8c0.7,0.2,1.3,0.4,2.1,0.7c-0.3-0.8-0.5-1.4-0.6-2.1c-0.3-1.6-0.5-3.2-0.7-4.7
		c-0.1-1.1-0.1-2.2,0-3.3c0-0.4,0.3-0.7,0.4-1.1c0.1,0,0.2,0,0.3,0c0,0.3,0.1,0.5,0.1,0.8c0.1,1.4,0.1,2.8,0.2,4.2
		c0.1,1.3,0.3,2.6,0.6,3.9c0.2,0.7,0.7,1.3,1,2c0.1,0.1,0.2,0.1,0.4,0.2c1.8,0.4,3.5,0.8,5.3,0.5c1.3-0.2,2.5-0.7,3.6-1.5
		c0.9-0.6,1.2-1.3,1.3-2.3c0.1-1.3,0-2.6-0.8-3.7c0-0.1-0.1-0.1-0.1-0.2c0,0-0.1,0-0.1,0c-1.6,0.8-3.2,1.1-4.9,0.9
		c-1.2-0.2-2.2-1.4-2.2-2.6c-0.1-1.5,0.3-2.9,1-4.2c0.1-0.2,0.2-0.4,0.4-0.7C178.3,68.1,177.8,68,177.4,68z M161.4,66.5
		c1.6,0.1,3.2,0.4,4.6,1.2c0.8,0.4,1.5,0.9,2.2,1.4c0.8,0.5,1.8,0.3,2.5,0c0.5-0.2,0.9-0.9,1.3-1.4c0.1-0.1,0.3-0.3,0.4-0.4
		c0.6-0.2,0.6-0.6,0.5-1.1c-0.2-1.4-0.4-2.8-0.6-4.2c-0.3-3-0.6-6-0.9-9c-0.1-0.8-0.1-0.8-0.9-0.9c-2.8-0.3-5.6-0.6-8.4-0.9
		c-1.7-0.2-3.3-0.4-5-0.7c-0.3,0-0.5,0-0.6,0.3c-0.3,1.8-0.7,3.5-0.9,5.3c-0.1,1.7,0,3.4,0.1,5.1c0.1,1.4,0.3,2.8,0.4,4.2
		c0,0.4,0.2,0.6,0.6,0.6c0.4,0,0.7,0,1.1,0c0,0,0,0,0-0.1C159.3,66.3,160.3,66.4,161.4,66.5z M140.7,89.4c-0.1,0.3,0.1,0.5,0.4,0.6
		c1.9,0.3,3.7,0.9,5.5,1.7c2.4,1.1,4.5,2.7,6.1,4.8c0.9,1.2,1.8,2.4,2.2,3.9c0.2,0.7,1,0.9,1.7,1c2.2,0.3,4.4,0.6,6.6,0.9
		c1.4,0.2,2.8,0.2,4.1,0.3c0.1,0,0.4-0.2,0.4-0.3c0.1-0.8,0.1-1.6,0.2-2.4c0-0.6,0.1-1.2,0.1-1.8c0-0.8,0.1-1.5,0.1-2.3
		c0-0.6-0.3-0.9-0.8-1.1c-2.2-0.7-4.4-1.4-6.7-2c-2-0.6-4-1.2-6-1.8c-0.8-0.2-1.6-0.3-2.3-0.5c-1.4-0.3-2.7-0.8-4.1-1
		c-2.1-0.4-4.2-0.7-6.3-1c-0.3,0-0.5-0.2-0.8-0.4C140.9,88.4,140.8,88.9,140.7,89.4z M188.6,48.5c0.8-0.1,1.4-0.1,2.1-0.2
		c1.8-0.2,3.6-0.5,5.5-0.7c1.8-0.2,3.5-0.2,5.3,0.1c1.2,0.2,2.4,0.3,3.7,0.5c1.3,0.2,2.6,0.6,3.9,0.9c1.6,0.3,3.2,0.6,4.8,0.8
		c0.2,0,0.4,0,0.8,0.1c-0.4-1.1-0.7-2.1-1-3.1c0-0.1-0.2-0.3-0.2-0.4c0.1-0.8-0.5-0.9-1-0.9c-2.8-0.3-5.6-0.6-8.4-1
		c-1.4-0.2-2.8-0.5-4.3-0.7c-2-0.3-4-0.5-6-0.7c-1.7-0.2-3.5-0.2-5.2-0.3c-0.5,0-1-0.1-1.6-0.1C187.5,44.7,188.1,46.7,188.6,48.5z
		 M155.6,42.8c-0.2,0.1-0.5,0.1-0.7,0.2c-0.2,0-0.3,0.2-0.5,0.2c-1.4-0.1-2.6,0.8-4,1.1c-0.5,0.1-0.9,0.7-1.4,1.1
		c-0.1,0.1-0.1,0.3,0,0.4c0.1,0.1,0.2,0.1,0.4,0.1c0.9-0.2,1.9-0.4,2.8-0.6c0.8-0.2,1.6-0.5,2.4-0.7c1.5-0.3,3-0.5,4.4-0.8
		c1-0.2,2-0.5,3-0.6c2.3-0.3,4.6-0.5,7-0.8c0.7-0.1,1.4-0.2,2.1-0.3c3.2-0.2,6.4-0.3,9.5-0.5c0.8,0,1.6,0.1,2.3,0.1
		c3.6,0,7.3,0.2,10.9,0.6c2.3,0.3,4.6,0.6,7,0.9c2.3,0.3,4.7,0.6,7,0.9c2.7,0.4,5.5,0.8,8.2,1.2c0.9,0.1,1.9,0.2,2.8,0.3
		c0-0.3,0.1-0.4,0.1-0.7c-1.5-0.4-3-0.9-4.5-1.3c-1.4-0.4-2.9-0.6-4.3-0.9c-2.2-0.4-4.4-0.7-6.6-1c-1.8-0.3-3.6-0.5-5.4-0.7
		c-1.1-0.1-2.2-0.2-3.3-0.3c-1.9-0.1-3.7-0.2-5.6-0.2c-2.4,0-4.7,0-7.1,0c-2,0-4.1,0-6.1,0.1c-1.6,0-3.2,0.2-4.8,0.3
		c-2.3,0.2-4.6,0.3-6.9,0.5c-1.1,0.1-2.3,0.4-3.4,0.4c-0.6,0-1.1,0.1-1.7,0.4c-0.8,0.4-1.7,0.5-2.4,0.4
		C156.3,42.6,156,42.7,155.6,42.8z M187.6,86.6c-1.2-0.1-2.3-0.2-3.5-0.2c-1.3,0-2.7,0-4,0c-1.8,0-3.5,0-5.3,0
		c-1.7,0-3.4,0.1-5.1,0.1c-0.2,0-0.5-0.1-0.7-0.1c-1.3,0-2.6,0-4,0.1c0,0.1-0.1,0.1-0.1,0.2c0.4,0.5,0.8,1,1.2,1.6
		c0.1,0.1,0.2,0.1,0.2,0.2c0.8,1.4,2.1,1.3,3.4,1.4c0.6,0,1.1,0,1.7,0c0.2,0,0.5-0.1,0.7-0.1c0.3,0,0.5,0,0.8,0
		c0.3,0,0.6,0.2,0.8,0.2c2.7,0,5.5-0.1,8.2-0.1c2.2,0.1,4.4,0.3,6.5,0.5c0.3,0,0.7,0.3,1,0.2c0.3-0.1,0.4-0.6,0.5-0.9
		c0.4-0.6,0.7-1.1,1.1-1.7c0.2-0.3,0.4-0.7,0.6-1.2C190.4,86.7,189,86.7,187.6,86.6z M196.8,111.5c-0.1,0.3-0.3,0.5-0.7,0.4
		c-0.4-0.1-0.4-0.4-0.4-0.8c0-0.5-0.1-1.1-0.2-1.6c0-0.1-0.1-0.2-0.2-0.3c-0.1,0.2-0.2,0.3-0.2,0.4c-0.5,2.4-0.3,4.7,1.2,6.6
		c0.6,0.8,1.7,1.3,2.6,1.7c0.4,0.2,1-0.2,1.5-0.4c0.6-0.2,0.9-0.6,0.9-1.4c-0.1-1,0.5-1.8,1.2-2.5c0.1-0.1,0.1-0.1,0.2-0.2
		c0.2-0.1,0.5-0.2,0.5-0.3c0.1-0.5,0.2-1,0.1-1.4c-0.1-0.3-0.5-0.4-0.8-0.6c-0.7-0.7-1-2.5-0.5-3.4c0.2-0.5,0.1-0.8-0.2-1.1
		c-0.8-1-2-1.3-3.2-1.2c-0.1,0-0.2,0.1-0.3,0.1c-0.3,0.1-0.6,0.3-0.9,0.3c-0.5,0-0.7,0.3-0.9,0.7c-0.3,0.6-0.7,1.2-1.1,1.8
		C196.5,108.9,197.2,110.6,196.8,111.5z M153.5,81.9c0-0.2,0-0.4,0-0.6c0-0.9,0-0.9-0.9-1c-1.2-0.2-2.4-0.5-3.7-0.6
		c-1.6-0.1-3.2-0.2-4.7,0.6c-1.5,0.7-1.9,2-2.4,3.4c-0.1,0.3,0,0.5,0.4,0.5c2,0,4,0.4,5.9,0.8c1.8,0.4,3.6,0.8,5.4,1.2
		c0.1,0,0.1,0,0.3,0C153.4,84.7,153.4,83.3,153.5,81.9z M204.7,84.6c-0.1,0.6-0.5,0.7-1,0.3c-0.3-0.3-0.6-0.5-1-0.9
		c-0.3,0.4-0.5,0.7-0.7,1c-0.1,0.1-0.4,0.2-0.6,0.2c-0.3,0-0.6-0.2-0.8-0.3c-0.1,0.3-0.2,0.7-0.4,0.8c-0.3,0.1-0.7-0.1-1-0.2
		c-0.3-0.1-0.5-0.3-0.7-0.4c-0.1,0.6-0.2,1.2-0.3,1.7c-0.1,0.4-0.3,0.5-0.7,0.4c-0.2-0.1-0.5-0.2-0.7-0.2c-0.2,0.4-0.4,0.7-0.6,1.1
		c1.7,0.1,3.2,0.9,4.7,1.6c0.9,0.4,1.9,0.7,2.8,1.1c0.2,0.1,0.5,0.2,0.8,0.3c-0.1-0.2-0.1-0.3-0.1-0.4c0-0.2-0.2-0.5-0.1-0.6
		c0.1-0.2,0.5-0.3,0.6-0.3c0.7,0.2,1.3,0.4,1.9,0.7c0.1,0,0.2,0.1,0.3,0.2c0.6-0.6,0.7-0.7,1.4-0.3c0.7,0.3,1.5,0.5,2.3,0.3
		c-0.3-1.1-4.6-5.6-6.2-6.3C204.7,84.5,204.7,84.5,204.7,84.6z M214,101c0,0.1-0.1,0.1-0.1,0.2c0.5,1.1,1,2.2,1.6,3.3
		c0.2,0.4,0.6,0.6,1.1,0.6c1.4,0.1,2.8,0.3,4.1,0.3c1.2,0,2.5-0.3,3.7-0.5c0.6-0.1,1.3,0,1.9-0.1c0.2,0,0.5-0.2,0.5-0.4
		c0.3-0.9,0.5-1.8,0.7-2.7c0.1-0.4,0.2-0.8,0.3-1.2C223.3,101,218.7,101.8,214,101z M210.3,88c0.8-0.1,1.4-0.2,2.1-0.2
		c2.3,0,4.6,0.1,6.9,0.2c1.8,0.1,3.6,0.3,5.5,0.5c-1-1-2-1.9-3-2.8c-0.1-0.1-0.4,0-0.5,0c-0.4,0.2-0.7,0.1-1,0
		c-0.5-0.2-1.1-0.2-1.7-0.3c-2.7-0.5-5.4-0.3-8.1-0.5c-0.3,0-0.6,0.1-0.9,0.2c-0.2,0-0.5,0-0.7-0.1c-0.5-0.5-0.7-0.6-1.3-0.2
		c-0.1,0.1-0.2,0.2-0.3,0.3C208.3,86.1,209.4,87.1,210.3,88z M144.3,111.3c0.1,0,0.1-0.2,0.2-0.3c0.1-0.2,0.3-0.5,0.4-0.5
		c0.2,0,0.4,0.2,0.6,0.4c0.1,0.1,0.1,0.1,0.3,0.3c0.4-0.9,0.7-1.6,1.1-2.4c-0.5-0.1-0.8-0.2-1.2-0.3c-0.2,0-0.6,0-0.9,0.1
		c0,0,0-0.1,0-0.1c-0.2,0.1-0.3,0.3-0.5,0.4c-0.2,0.1-0.5,0.1-0.7,0c-0.6-0.3-0.7-1.7-0.1-2.1c0.6-0.4,1-0.3,1.4,0.5
		c0.6-0.2,1-0.4,1-1.1c0-0.6,0.5-0.6,1.1-0.4c-0.1-0.5-0.1-1.1-0.4-1.4c-0.6-0.8-1-1.7-1.9-2.1c-1-0.5-1.9-0.3-2.9,0.3
		c-1.8,1.1-2.1,2.9-2.1,4.9c0.1,1.4,0.2,2.8,0.9,4.1c0.6,1.2,2,1.7,3.3,1.1C143.6,112.1,143.6,111.6,144.3,111.3z M195.9,88.8
		c0.1-0.1,0.2-0.1,0.2-0.2c-0.4-0.1-0.9-0.1-1.2-0.2c-1.4,1.1-1.6,2.7-2.2,4.2c-0.2,0.7-0.2,0.8,0.5,0.8c2.1,0.2,4.2,0.4,6.3,0.6
		c1.7,0.1,3.3,0.3,5,0.4c0.3,0,0.6,0,1-0.1c-0.3-0.2-0.5-0.5-0.8-0.6c-0.6-0.3-1.1-0.5-1.7-0.8c-0.4-0.2-0.7-0.3-0.7-0.9
		c0-0.1-0.1-0.3-0.2-0.3c-1.3-0.7-2.7-1.1-4.2-1.2c-0.4,0-0.8-0.1-1.2-0.1c-0.3,0-0.6,0-0.9,0c-0.4,0.1-0.8,0.2-0.9-0.4
		c-0.1-0.5,0.3-0.7,0.7-0.7c0.4,0,0.7,0,1.1,0c0,0,0-0.1,0-0.1C196.5,89.1,196.2,88.9,195.9,88.8z M212.6,91.2c1,0,2-0.1,2.9-0.1
		c2.2-0.1,4.4-0.1,6.6-0.1c1,0,2.1,0.1,3.1,0.4c0.5,0.1,0.9,0.7,1.2,1.1c0.1,0.1-0.1,0.5-0.2,0.8c0-0.1,0,0,0,0
		c0.7,0,1.1,0.3,1.5,0.8c0.1,0.1,0.4,0.1,0.7,0c0.4,0,0.8-0.1,1.3-0.1c-1.5-1.8-3-3.6-4.7-5.5c-0.1,0.9-0.4,1-1.1,0.8
		c-1-0.2-2-0.2-3-0.3c-1.1-0.1-2.3-0.1-3.4-0.2c-0.5,0-0.9,0.1-1.4,0.1c-1.2,0-2.3-0.1-3.5-0.2c-0.5,0-1,0.1-1.6,0.1
		C211.6,89.8,212.1,90.5,212.6,91.2z M200.7,81.5C200.7,81.5,200.7,81.4,200.7,81.5c-0.3-0.5-0.7-0.9-1-1.3
		c-0.1-0.1-0.1-0.3-0.2-0.5c0.2,0,0.4,0,0.6,0.1c0.2,0.1,0.5,0.3,0.7,0.5c0.3,0.2,0.5,0.5,1,0.2c0.1-0.1,0.5,0.1,0.6,0.3
		c0.7,0.7,1.4,1.4,2.2,2.1c0.3,0.3,1.4,0.5,1.7,0.3c0.8-0.6,1.7-0.7,2.7-0.6c2.5,0.1,5,0.3,7.5,0.5c0.4,0,0.8,0.4,1.2,0.6
		c0.4,0.3,0.8,0.4,1.4,0.2c-0.3-0.2-0.5-0.3-0.7-0.4c-1.6-0.7-3.2-1.4-4.9-2c-1.3-0.5-2.7-0.7-4.1-1.1c-0.6-0.2-1.1-0.4-1.7-0.5
		c-1.1-0.1-2.2-0.2-3.3-0.2c-1-0.1-1.9-0.1-2.9-0.1c-0.7,0-1.4,0-2.1,0.1c-0.3,0-0.6,0.4-1,0.7C199.2,80.6,199.9,81,200.7,81.5z
		 M211.1,119.9c0.2-0.6,0.3-1.1,0.6-1.4c0.5-0.4,1.1-0.5,1.7-0.7c0.1,0,0.4,0,0.5,0.1c0.4,0.2,0.7,0.3,1.1,0.1
		c0.1-0.1,0.5,0,0.7,0.1c0.4,0.2,0.8,0.4,1.3,0.6c0.2-0.5,0.5-0.8,1-0.5c0.1,0,0.3,0,0.3-0.1c0.3-0.4,0.6-0.2,0.9,0
		c0.8,0.5,1.5,0.9,2.3,1.4c0.2-0.2,0.3-0.3,0.5-0.5c-1.5-1-2.3-2.5-3-4.1c-0.1-0.1-0.3-0.3-0.5-0.3c-0.5-0.1-1-0.1-1.6-0.2
		c-0.2,0-0.3-0.1-0.4-0.1c-0.9-0.9-2-0.5-3.1-0.5c-0.2,0-0.5,0.2-0.5,0.4c-0.6,1.9-1.4,3.6-2.5,5.3c0,0.1,0,0.1-0.1,0.3
		C210.7,119.9,211,119.9,211.1,119.9z M158.8,104.7c2.6,0.2,5.2,0.6,7.7,0.9c0.2,0,0.5,0,0.7,0c0.1,0,0.3,0,0.3-0.1
		c0.2-0.4,0.4-0.8,0.5-1.3c0.2-0.6,0.1-0.8-0.6-0.8c-1.3-0.1-2.6-0.1-3.9-0.2c-1.2-0.1-2.4-0.3-3.7-0.4c-1.2-0.1-2.4-0.2-3.5-0.4
		c-0.6-0.1-1.2-0.4-1.9-0.6C155.7,103.2,156.9,104.5,158.8,104.7z M182.9,115C182.9,115,183,115,182.9,115c0-0.2,0-0.3-0.1-0.4
		c-0.4-0.6-0.2-1.2,0.5-1.5c0.1-0.1,0.3,0,0.5,0c0.1,0,0.2,0.2,0.3,0.3c0.7,0.9,0.7,0.9,1.7,1.3c0-0.4,0.1-0.9,0.1-1.3
		c0.3,0.1,0.5,0.1,0.9,0.2c0.6-0.4,0.6-0.4,2,0.9c0.2-0.1,0.5-0.3,0.6-0.2c0.2,0.1,0.4,0.4,0.5,0.7c0.1,0.2,0.1,0.5,0.2,0.8
		c0.4-0.1,0.6-0.2,0.5-0.6c-0.2-1.1-0.4-2.3-0.6-3.4c-0.1-0.5-0.7-0.8-1.4-0.6c-1,0.3-2,0.2-3,0.1c-0.6-0.1-1.2-0.1-1.7,0
		c-0.1,0-0.4,0.2-0.4,0.3c-0.1,0.9-0.8,1.2-1.4,1.6c-0.3,0.2-0.6,0.4-0.9,0.6C181.8,114.1,182.4,114.5,182.9,115z M140.4,100.6
		c0.5-0.1,1-0.1,1.4-0.3c1-0.6,1.9-0.6,2.9,0.1c0.1,0.1,0.3,0.2,0.5,0.2c0.6,0.1,0.9,0.5,0.8,1.1c0,0.2,0.1,0.5,0.2,0.6
		c1,0.5,1.4,1.4,1.6,2.3c0.3,1.5,0.6,3.1,0,4.7c-0.5,1.4-1,2.9-2.4,3.8c-0.6,0.4-1.4,0.7-2.1,1.1c0.3,0,0.6,0.2,0.8,0.1
		c0.8-0.2,1.7-0.2,2.4-0.8c0.3-0.3,0.8-0.3,1.1-0.6c0.6-0.5,1.1-1.1,0.9-2.1c0-0.1,0.1-0.3,0.1-0.5c0.3-1.3,0.8-2.5,0.3-3.9
		c-0.2-0.7-0.3-1.5-0.4-2.2c-0.1-0.4-0.1-0.7-0.6-0.7c-0.1,0-0.3-0.3-0.3-0.4c0-1-0.7-1.7-1.2-2.4c-0.2-0.3-0.3-0.6,0-0.9
		C144.4,98.5,142,99.1,140.4,100.6z M193.1,85c0.1-0.1,0.2-0.2,0.3-0.3c0.7-0.5,0.8-0.5,0.1-1.2c-0.8-0.9-1.6-1.7-2.5-2.5
		c-0.4-0.4-1-0.5-1.6-0.6c-1-0.2-1.4,0.9-1.2,1.8c0.3,1.1,0.8,2.2,1.2,3.2c0,0.1,0.2,0.2,0.3,0.2c0.5,0.1,1.1,0.3,1.7,0.4
		C191.9,85.8,192.5,85.4,193.1,85z M165.8,93.1c-1-0.9-1.9-1.7-3.2-1.9c-1.2-0.3-2.3-0.5-3.5-0.8c-0.2-0.1-0.6-0.3-0.6-0.5
		c0-0.5-0.3-0.5-0.6-0.5c-1.2-0.3-2.4-0.5-3.6-0.8c-1.6-0.3-3.2-0.7-4.9-0.9c-1.9-0.3-3.9-0.4-5.9-0.6c0,0.1,0,0.2-0.1,0.3
		C151,88.7,158.3,91.1,165.8,93.1z M151.7,77.6c0.1,0.4,0.3,0.8,0.6,1.1c0.2,0.2,0.6,0.3,0.8,0.2c0.2-0.1,0.2-0.5,0.2-0.8
		c0-0.4-0.1-0.9-0.2-1.3c-0.5-2.5-0.5-5-0.4-7.5c0-0.2,0-0.4,0-0.6c-0.1-0.2-0.2-0.6-0.3-0.6c-0.3,0-0.7,0.1-0.8,0.3
		c-0.2,0.4-0.3,1-0.4,1.4c-0.1,0.6,0,1.2,0,1.8c-0.1,0-0.1,0-0.2,0C151.2,73.6,151.4,75.6,151.7,77.6z M221.9,97.4
		c0.2-0.2,0.3-0.4,0.5-0.6c0.1-0.1,0.4-0.2,0.5-0.2c0.1,0.2,0.3,0.4,0.3,0.6c0,0.2-0.1,0.4-0.1,0.8c0.3-0.3,0.5-0.5,0.8-0.7
		c0.2-0.1,0.5-0.2,0.7-0.3c0,0.3,0.1,0.6,0,0.8c-0.2,0.5-0.6,1-0.8,1.6c0.5-0.5,0.9-1,1.4-1.5c0.3-0.3,0.5-0.6,0.9-0.9
		c0.1-0.1,0.3-0.1,0.5-0.1c0,0.2,0.1,0.4,0,0.5c-0.1,0.3-0.3,0.6-0.5,0.8c-0.1,0.2-0.2,0.3-0.2,0.5c0.9-0.7,1.5-1.6,2.2-2.7
		c-0.4,0-0.6,0-0.8,0c-1.9,0.1-3.9,0.3-5.8,0.4c-1.1,0.1-2.2,0.2-3.4,0.3c-0.1,0-0.3,0.1-0.3,0.2c-0.6,0.8-1.1,1.6-1.7,2.4
		c-0.1,0.1-0.1,0.2-0.2,0.3c0.6,0,1-0.4,1.4-0.8c0.3-0.4,0.7-0.7,1-1c0.1-0.1,0.3-0.1,0.5-0.1c0,0.2,0.1,0.4,0,0.6
		c-0.2,0.3-0.5,0.6-0.7,0.9c-0.3,0.3-0.6,0.7-1,1c0,0.1,0.1,0.1,0.1,0.2c0.4-0.3,0.8-0.5,1.2-0.9c0.7-0.8,1.3-1.6,1.9-2.3
		c0.1-0.1,0.2-0.2,0.4-0.2c0.1,0.1,0.2,0.3,0.2,0.4c-0.1,0.3-0.2,0.6-0.4,0.8c-0.4,0.6-0.9,1.1-1.4,1.7c-0.1,0.1-0.2,0.3-0.3,0.4
		C220.1,99.4,221.1,98.5,221.9,97.4z M188.7,72.4c-0.3,0.3-0.3,0.5,0,0.8c1.1,1.3,2.2,2.6,3.3,3.9c0.2,0.2,0.4,0.5,0.6,0.7
		c0.1,0,0.1-0.1,0.2-0.1c-0.5-2.7-1-5.4-1.6-8.1c-0.1,0-0.1,0-0.2,0C190.3,70.6,189.5,71.5,188.7,72.4z M223.9,92.1
		c-1.7-0.1-3.3-0.2-5-0.1c-1.8,0-3.6,0.2-5.4,0.3c-0.1,0-0.2,0-0.3,0.1c0.1,0.3,0.2,0.6,0.2,0.8c0.5,0,1,0.1,1.4,0.1
		c0.2,0,0.5-0.2,0.7-0.1c0.7,0.3,1.5-0.1,2.1,0.2c0.8,0.4,1.6,0.3,2.2,0.1c0.6-0.2,1.1-0.3,1.7-0.2c0.5,0.1,1-0.3,1.5-0.4
		c0.1,0,0.3-0.1,0.4,0c0.6,0.2,1.3,0.6,2,0C225.2,92.2,224.5,92.2,223.9,92.1z M185.3,81.7c-0.1,0.1-0.3,0.1-0.4,0.1
		c-0.7,0.5-1.5,0.9-2,1.7c-0.4,0.6-1.3,0.8-2,1.1c-0.2,0.1-0.3,0.3-0.5,0.4c0.2,0.1,0.3,0.2,0.5,0.2c1.5,0.1,3,0.1,4.5,0.2
		c0.3,0,0.6,0,1,0.1C186,84.2,185.7,83,185.3,81.7z M159.7,84.7c-0.2,0.3-0.3,0.5-0.5,0.8c-0.1,0.2-0.3,0.3-0.5,0.4
		c-0.1,0.1-0.2,0.1-0.4,0.2c0.1,0.1,0.2,0.3,0.3,0.4c1.2,0.5,2.4,1.1,3.6,1.6c0.7,0.3,1.3,0.5,2,0.8c0,0,0.1-0.1,0.1-0.1
		c-0.8-1-1.6-1.9-2.3-2.9C160.4,86.8,160.4,85.2,159.7,84.7z M190,93.5c1.1,0.1,1.3-0.1,1.6-1c0.8-2,1.6-4,2.5-6
		c0.1-0.1,0.1-0.3,0.2-0.5C193.2,86.6,190.4,91.6,190,93.5z M221.7,109.1c-0.3,0-0.6,0.1-0.8-0.1c-0.2-0.1-0.1-0.5-0.2-0.8
		c0-0.1,0-0.3,0-0.4c0-0.4,0-0.7,0-1.2c-1-0.1-2.2-0.1-3.6-0.2c0.4,0.7,0.7,1.2,1.1,1.7c0,0,0.1,0,0.1,0c-0.1-0.3-0.2-0.6-0.3-0.9
		c0.1,0,0.1-0.1,0.2-0.1c0.4,0.4,0.7,0.7,1.1,1.1c0-0.2,0-0.3,0-0.5c0.1,0,0.2,0,0.2,0c0.4,0.5,0.7,1,1.1,1.5
		c0.1,0.1,0.3,0.3,0.5,0.3c1.1-0.2,2.2-0.4,3.2-0.7c0-0.1,0-0.1,0-0.2C223.5,108.8,222.6,109,221.7,109.1z M157.1,85.6
		c-0.1-0.2-0.1-0.3-0.2-0.4c-0.1-0.2-0.3-0.4-0.2-0.5c0.5-0.7-0.2-0.9-0.5-1.4c-0.1-0.2-0.3-0.5-0.4-0.8c0.8,0,1.2,0.4,1.6,0.8
		c0.4,0.4,0.8,0.8,1.2,1.1c0.1,0,0.1-0.1,0.2-0.1c-0.2-0.3-0.3-0.5-0.5-0.8c-0.5-0.6-0.9-1.3-1.4-1.8c-0.3-0.3-0.8-0.4-1.2-0.6
		C155.2,82.6,156.1,85.2,157.1,85.6z M210.4,97.3c0.2-0.1,0.4-0.1,0.6-0.1c0,0.2,0,0.5-0.1,0.7c-0.2,0.3-0.5,0.4-0.7,0.6
		c-0.1,0.1-0.1,0.2-0.2,0.3c0,0.1,0,0.1,0.1,0.2c0.2-0.1,0.5-0.1,0.6-0.2c0.5-0.5,0.9-1.1,1.4-1.6c0.1-0.2,0.4-0.2,0.6-0.3
		c0,0.3,0.1,0.5,0.1,0.7c0,0.2-0.2,0.4-0.3,0.6c0,0,0.1,0.1,0.1,0.1c0.5-0.5,0.9-1,1.4-1.5c0-0.1-0.1-0.1-0.1-0.2
		c-1-0.1-2-0.2-3-0.3c-0.1,0-0.2,0.1-0.3,0.1c-0.3,0.4-0.6,0.8-0.9,1.2c0,0,0.1,0.1,0.1,0.1C209.9,97.6,210.1,97.4,210.4,97.3z
		 M196,94.8c-1.2-0.1-2.2-0.2-3.3-0.3c0,0.1-0.1,0.1-0.1,0.2c0.2,0.2,0.6,0.4,0.7,0.7c0.1,0.3,0,0.7,0,1.2c0.2-0.3,0.4-0.5,0.6-0.7
		c0.1-0.1,0.3-0.3,0.5-0.4c0.1,0.2,0.2,0.4,0.3,0.6c0,0.1,0,0.1,0,0.2c0,0,0.1,0,0.1,0.1C195.2,95.8,195.6,95.3,196,94.8z
		 M186.7,77.8c0.6,0,1.1-0.1,1.9-0.1c-0.7-1-1.4-2-2.4-2.8C186.4,76,186.5,76.9,186.7,77.8z M171.4,83.9c-0.2-0.1-0.4-0.2-0.5-0.4
		c-0.2-0.2-0.3-0.5-0.4-0.8c0.3-0.1,0.5-0.2,0.7-0.3c-0.7-0.4-0.9-0.3-1.7,0.4c0.6,0.6,1.2,1.2,1.6,1.9c0.4,0.6,0.8,0.6,1.4,0.5
		c0,0,0.1,0,0.2-0.2C172.3,84.7,171.8,84.3,171.4,83.9z M197.6,95.2c-0.5-0.4-0.7-0.3-1,0.2c-0.5,0.7-1.1,1.5-1.6,2.2
		c-0.2,0.2-0.3,0.4-0.6,0.7C195.9,97.5,196.7,96.4,197.6,95.2z M217,96.7c0-0.1-0.1-0.1-0.1-0.2c-0.7,0-1.3,0-2,0
		c-0.1,0-0.2,0.1-0.2,0.2c-0.1,0.4-0.3,0.8-0.3,1.4c0.3-0.4,0.6-0.7,0.9-1.1c0.1-0.1,0.3-0.2,0.4-0.3c0.1,0.2,0.3,0.4,0.2,0.5
		c-0.1,0.3-0.2,0.5-0.4,0.7c-0.3,0.4-0.6,0.8-1,1.2c0.1,0.1,0.1,0.1,0.2,0.2C215.5,98.5,216.3,97.6,217,96.7z M166,82.9
		c-1.2,0-2.4,0-3.9,0c0.7,0.2,1.3,0.5,1.9,0.6c0.2,0.1,0.5-0.1,0.7-0.2c0.1,0,0.3-0.1,0.4,0c0.5,0.2,0.9,0.5,1.5,0.8
		C166.4,83.7,166.2,83.4,166,82.9z M189.6,95c-0.2,0.1-0.3,0.6-0.2,0.8c0.2,0.4,0.1,0.6,0,1c-0.2,0.4-0.4,0.8-0.6,1.3
		c0.1,0,0.1,0.1,0.2,0.1c0.7-1.1,1.3-2.2,2-3.3c0-0.1-0.1-0.1-0.1-0.2C190.3,94.8,189.9,94.8,189.6,95z M169.1,83.7
		c-1.2-1.3-1.3-1.4-2.2-0.8c0.7,0.6,1.4,1.1,2,1.7C168.9,84.3,169,84.1,169.1,83.7z M227.7,111.8c-1.1-0.1-2.2-0.3-3.4-0.3
		c-0.5,0-1,0.1-1.4,0.3c1.7,0.3,3.4-0.2,5,0.6c0-0.1,0.1-0.1,0.1-0.2C227.9,112.1,227.8,111.8,227.7,111.8z M222.6,106.6
		c1.7,0,3.2,0,4.8,0C226.5,105.9,223.8,106,222.6,106.6z M200.6,95.2c-0.7,0-1.3-0.1-1.9-0.1c-0.1,0-0.3,0.2-0.3,0.3
		c-0.2,0.4-0.3,0.7-0.3,1.2c0.3-0.2,0.6-0.5,0.8-0.7c0.6-0.6,0.5-0.6,1.1,0C200.2,95.7,200.4,95.5,200.6,95.2z M202.2,96.6
		c0.4-0.4,0.7-0.7,1-1c-1-0.7-1.9-0.4-2.2,0.7C201.9,95.8,201.9,95.8,202.2,96.6z M228.2,107.3c-1.1,0.1-2.2,0.2-3.3,0.2
		c0,0.1,0,0.1,0,0.2c1.1,0.1,2.2,0.2,3.4,0.3C228.3,107.7,228.3,107.5,228.2,107.3z M180.5,114.6c0-0.2,0-0.4,0-0.7
		c-0.7,0.2-1.3,0.3-2,0.5C179.2,115.3,179.8,114.7,180.5,114.6z M206.8,95.7c-0.5-0.1-1-0.1-1.5-0.1c-0.1,0-0.2,0.2-0.3,0.3
		c0,0.2,0,0.4,0,0.7c0.3-0.2,0.6-0.3,0.8-0.4c0.4-0.3,0.7-0.4,1,0.2C207.3,96,207.2,95.7,206.8,95.7z M223.3,110.5
		c1.5-0.4,3,0,4.4,0.3c0.1,0,0.2,0,0.3-0.1c-0.1-0.1-0.1-0.2-0.2-0.2c-1.6-0.1-3.2-0.6-4.9-0.1c0,0-0.1,0-0.2,0.1
		C223,110.5,223.2,110.5,223.3,110.5z M190.7,117.4c0.1,0.1,0.3,0.2,0.5,0.3c0.1-0.2,0.3-0.4,0.3-0.6c-0.1-0.3-0.3-0.7-0.4-1
		C190.4,116.6,190.3,116.9,190.7,117.4z M221.6,110.7c-0.3,0-0.6,0-0.8,0.1c-0.1,0-0.1,0.4-0.1,0.6c0.1,0.4,0.4,0.6,0.9,0.4
		C221.6,111.5,221.6,111.2,221.6,110.7z M188.2,66.9c0.1-0.9-0.5-1.4-1.5-1.4C187.2,66,187.7,66.4,188.2,66.9z M229.9,95.7
		c-0.6-0.3-0.8-0.2-1.1,1.2C229.2,96.6,229.5,96.2,229.9,95.7z M206.9,93.9c0.1,0.8,0.4,0.9,1.4,0.8
		C207.8,94.4,207.3,94.2,206.9,93.9z M228.1,109.2c0-0.1,0-0.1,0-0.2c-0.6,0-1.1,0-1.7,0C226.9,109.1,227.5,109.4,228.1,109.2z
		 M197.1,81.6c0.6,0.2,0.7,0.1,0.6-0.7C197.5,81.1,197.3,81.3,197.1,81.6z M203.9,96.1c0,0,0.1,0.1,0.1,0.1c0.2-0.2,0.4-0.4,0.6-0.5
		c-0.1-0.1-0.1-0.1-0.2-0.2C203.8,95.3,204.1,95.9,203.9,96.1z M229.3,100.4c0,0.1,0,0.2,0.1,0.3c0.3-0.1,0.7-0.1,1-0.2
		c0-0.1,0-0.2-0.1-0.3C230,100.2,229.7,100.3,229.3,100.4z"/>
	<path class="st2" d="M198.7,116.4c0-1.1-1.1-2.2-2-2.1c-0.2,0-0.5,0.3-0.6,0.4c0,0.2,0.2,0.5,0.3,0.6c0.5,0.4,1.2,0.7,1.3,1.6
		c0,0.1,0.2,0.3,0.3,0.3c0.2-0.1,0.4-0.2,0.5-0.3C198.6,116.8,198.6,116.5,198.7,116.4z"/>
	<path class="st2" d="M198.1,106.7c0,1,0.5,1.4,1.2,1.1c0.4-0.1,0.8-0.3,1.2-0.6c0.4-0.2,0.3-0.6,0-0.8c-0.1-0.1-0.3-0.2-0.3-0.3
		c-0.4-0.6-0.9-0.2-1.3-0.1C198.5,106.1,198.2,106.5,198.1,106.7z"/>
	<path class="st2" d="M200.6,111.7c0-0.6-0.3-0.9-0.8-0.9c-0.6,0-1.1,0.5-1.1,1.1c0,0.5,0.5,0.9,1,0.9
		C200.2,112.8,200.7,112.3,200.6,111.7z"/>
	<path class="st2" d="M197.6,114.2c0.1,0.1,0.3,0.4,0.5,0.4c0.5,0.1,1-0.5,1-1.2c0-0.4-0.1-0.7-0.6-0.7
		C198.2,112.7,197.6,113.5,197.6,114.2z"/>
	<path class="st2" d="M197.3,110.2c0.1,0.1,0.3,0.4,0.6,0.5c0.3,0.1,0.9-0.6,0.8-1c0-0.4-0.4-0.8-0.8-0.7
		C197.6,109,197.3,109.4,197.3,110.2z"/>
	<path class="st2" d="M199.9,109.5c0.2,0.4,0.4,0.7,0.6,1c0.1,0.1,0.4,0.1,0.4,0c0.2-0.2,0.4-0.5,0.3-0.7c-0.1-0.3-0.3-0.6-0.5-0.8
		c-0.1-0.1-0.4-0.2-0.5-0.1C200.1,109.1,200,109.3,199.9,109.5z"/>
	<path class="st2" d="M200.5,113.8c0.1,0.1,0.4,0.4,0.5,0.4c0.3-0.2,0.6-0.4,0.7-0.7c0.1-0.1-0.3-0.6-0.5-0.6
		C200.7,112.8,200.6,113.2,200.5,113.8z"/>
	<path class="st2" d="M141.8,104.4c0-0.6-0.2-0.7-0.7-0.8c-0.4,0-0.7,0.1-0.8,0.5c-0.1,0.3-0.2,0.5-0.3,0.8
		c-0.3,0.5-0.1,1.1,0.4,1.3c0.4,0.2,0.9-0.1,1.1-0.6C141.7,105.3,141.7,104.8,141.8,104.4z"/>
	<path class="st2" d="M141.7,110.1c-0.2-0.5-0.3-1.1-0.6-1.5c-0.2-0.4-0.6-0.5-1-0.2c-0.4,0.3-0.3,0.7,0,1c0.1,0.2,0.2,0.4,0.3,0.6
		c0.1,0.2,0,0.4,0.1,0.6c0.1,0.2,0.4,0.4,0.6,0.6c0.2-0.2,0.4-0.4,0.5-0.7c0.1-0.1,0-0.2,0-0.3C141.7,110.1,141.7,110.1,141.7,110.1
		z"/>
	<path class="st2" d="M145.5,103.8c0-0.5-1.2-1.5-1.9-1.5c-0.2,0-0.3,0.1-0.4,0.2c-0.4,0.5-0.3,0.9,0.3,1.2c0.4,0.2,0.9,0.4,1.3,0.5
		C145.3,104.5,145.6,104.3,145.5,103.8z"/>
	<path class="st2" d="M141.4,107.3c0,0.4,0.4,0.9,0.8,0.9c0.4,0,0.6-0.4,0.6-0.7c0-0.4,0-0.9-0.6-0.9
		C141.7,106.6,141.4,106.9,141.4,107.3z"/>
	<path class="st2" d="M143,105.2c0,0.4,0.5,0.9,0.8,0.9c0.4,0,0.6-0.3,0.6-0.7c0.1-0.4-0.4-0.8-0.9-0.8
		C143.1,104.6,143,104.8,143,105.2z"/>
	<path class="st2" d="M143.6,110.7c0.1-0.2,0.4-0.5,0.4-0.7c0-0.4-0.2-0.7-0.6-0.7c-0.4,0-0.6,0.2-0.6,0.6c0.1,0.3,0.3,0.6,0.5,0.9
		C143.4,110.7,143.5,110.7,143.6,110.7z"/>
</g>
<g>
	<polygon class="st2" points="21.8,127.6 16.6,79.6 186.4,7.1 187.7,7.6 356.3,79.6 351.1,127.6 344.7,126.9 349.3,83.7 186.4,14.1 
		23.6,83.7 28.2,126.9 	"/>
</g>
<g>
	<path class="st2" d="M112.5,295.3c-25,0-48.9-2.2-71.1-6.4l-2.4-0.5l-3.7-34.9l6.5-0.7l3.2,30.1c21.1,3.9,43.8,5.9,67.5,5.9
		c26.5,0,52.6-2.6,75.7-7.5c23.9-5.1,51-7.8,78.4-7.8c21.5,0,42.9,1.6,62,4.5l2.7-25.2l6.5,0.7l-3.4,32l-3.4-0.6
		c-19.6-3.3-41.9-5-64.3-5c-26.9,0-53.6,2.6-77.1,7.6C166,292.6,139.4,295.3,112.5,295.3z"/>
</g>
<g>
	<g>
		<path class="st1" d="M21.7,239.1v-2.9h3.7v2.9c0,2.4-0.7,4.2-2.2,5.5c-1.4,1.3-3.6,1.9-6.5,1.9c-2.9,0-5.1-0.6-6.6-1.9
			c-1.5-1.3-2.2-3.1-2.2-5.5v-21.2c0-2.4,0.7-4.2,2.2-5.5c1.4-1.3,3.6-1.9,6.5-1.9c2.9,0,5.1,0.6,6.6,1.9c1.5,1.3,2.2,3.1,2.2,5.5v5
			h-3.7v-5c0-2.8-1.7-4.2-5-4.2c-3.4,0-5,1.4-5,4.2v21.2c0,2.8,1.7,4.2,5,4.2C20,243.3,21.7,241.9,21.7,239.1z"/>
		<path class="st1" d="M16.7,246.9c-3,0-5.3-0.7-6.9-2c-1.6-1.4-2.4-3.3-2.4-5.8v-21.2c0-2.5,0.8-4.5,2.3-5.8
			c1.5-1.4,3.8-2.1,6.8-2.1c3,0,5.3,0.7,6.9,2c1.6,1.4,2.4,3.3,2.4,5.8v5.5h-4.6v-5.5c0-2.6-1.5-3.8-4.6-3.8s-4.6,1.2-4.6,3.8v21.2
			c0,2.6,1.5,3.8,4.6,3.8s4.6-1.2,4.6-3.8v-3.4h4.6v3.4c0,2.5-0.8,4.5-2.3,5.8C22,246.3,19.7,246.9,16.7,246.9z M16.6,210.9
			c-2.8,0-4.9,0.6-6.2,1.8c-1.4,1.2-2,2.9-2,5.1v21.2c0,2.2,0.7,3.9,2.1,5.1c1.4,1.2,3.5,1.8,6.3,1.8c2.8,0,4.9-0.6,6.2-1.8
			c1.4-1.2,2-2.9,2-5.1v-2.4h-2.8v2.4c0,2.1-1,4.7-5.5,4.7s-5.5-2.6-5.5-4.7v-21.2c0-2.1,1-4.7,5.5-4.7s5.5,2.6,5.5,4.7v4.6h2.8
			v-4.6c0-2.2-0.7-3.9-2.1-5.1C21.5,211.5,19.4,210.9,16.6,210.9z"/>
	</g>
	<g>
		<path class="st1" d="M37.9,211.3h5.6l7.8,34.4h-3.7l-1.8-7.9H35.7l-1.8,7.9h-3.7L37.9,211.3z M40.7,215.4l-4.3,19.2H45L40.7,215.4
			z"/>
		<path class="st1" d="M51.9,246.2h-4.7l-1.8-7.9H36l-1.8,7.9h-4.7l8-35.4h6.3L51.9,246.2z M48,245.2h2.8l-7.6-33.5h-4.8l-7.6,33.5
			h2.8l1.8-7.9h10.9L48,245.2z M45.6,235h-9.9l4.9-21.7L45.6,235z M36.9,234.1h7.5l-3.8-16.6L36.9,234.1z"/>
	</g>
	<g>
		<path class="st1" d="M61.1,245.7h-3.7v-34.4h8c2.8,0,4.8,0.7,6.3,2c1.4,1.3,2.1,3.1,2.1,5.5v7.4c0,3.6-1.6,5.9-4.7,6.9l6.5,12.7
			h-4.1l-6.2-12.2h-4.3V245.7z M70.1,226.1v-7.4c0-1.3-0.4-2.4-1.2-3.1c-0.8-0.7-2-1.1-3.5-1.1h-4.3v15.9h4.3
			C68.5,230.3,70.1,228.9,70.1,226.1z"/>
		<path class="st1" d="M76.4,246.2h-5.1L65.1,234h-3.5v12.2h-4.6v-35.4h8.5c2.9,0,5.1,0.7,6.6,2.1c1.5,1.4,2.3,3.3,2.3,5.8v7.4
			c0,3.6-1.5,6-4.5,7.1L76.4,246.2z M71.9,245.2h3l-6.4-12.5l0.5-0.2c2.9-0.9,4.3-3,4.3-6.4v-7.4c0-2.2-0.7-3.9-2-5.1
			c-1.3-1.2-3.3-1.8-6-1.8h-7.5v33.5h2.8V233h5L71.9,245.2z M65.4,230.8h-4.8V214h4.8c1.6,0,2.9,0.4,3.8,1.2c0.9,0.8,1.4,2,1.4,3.5
			v7.4C70.6,228.2,69.7,230.8,65.4,230.8z M61.6,229.9h3.8c2.9,0,4.2-1.2,4.2-3.8v-7.4c0-1.2-0.3-2.1-1.1-2.8c-0.7-0.7-1.8-1-3.2-1
			h-3.8V229.9z"/>
	</g>
	<g>
		<path class="st1" d="M95.5,211.3v3.2h-6.9v31.3h-3.7v-31.3H78v-3.2H95.5z"/>
		<path class="st1" d="M89.1,246.2h-4.6v-31.3h-6.9v-4.1H96v4.1h-6.9V246.2z M85.4,245.2h2.8V214h6.9v-2.2H78.5v2.2h6.9V245.2z"/>
	</g>
	<g>
		<path class="st1" d="M144.5,211.3h8c2.8,0,4.8,0.7,6.3,2c1.4,1.3,2.1,3.1,2.1,5.5v3.2c0,3-1.3,4.9-3.8,5.8
			c2.9,0.8,4.3,2.7,4.3,5.9v4.8c0,2.4-0.7,4.2-2.1,5.5c-1.4,1.3-3.5,1.9-6.3,1.9h-8.5V211.3z M157.2,221.9v-3.2c0-1.1-0.4-2.1-1.2-3
			c-0.8-0.8-2-1.3-3.5-1.3h-4.3v11.9h4.3c1.5,0,2.6-0.5,3.5-1.4C156.8,224.1,157.2,223,157.2,221.9z M157.8,238.3v-4.8
			c0-1.1-0.4-2.2-1.3-3.1c-0.8-0.9-2-1.4-3.4-1.4h-4.8v13.5h4.8c1.5,0,2.6-0.4,3.5-1.2C157.3,240.4,157.8,239.4,157.8,238.3z"/>
		<path class="st1" d="M153,246.2h-9v-35.4h8.5c2.9,0,5.1,0.7,6.6,2.1c1.5,1.4,2.3,3.3,2.3,5.8v3.2c0,2.7-1,4.7-3,5.7
			c2.3,1,3.5,3,3.5,5.9v4.8c0,2.5-0.8,4.5-2.3,5.8C158.2,245.5,155.9,246.2,153,246.2z M145,245.2h8.1c2.7,0,4.7-0.6,6-1.8
			c1.3-1.2,2-2.9,2-5.1v-4.8c0-2.9-1.3-4.7-3.9-5.4l-1.5-0.4l1.4-0.5c2.3-0.8,3.4-2.5,3.4-5.3v-3.2c0-2.2-0.7-3.9-2-5.1
			c-1.3-1.2-3.3-1.8-6-1.8H145V245.2z M153,243h-5.3v-14.4h5.3c1.6,0,2.9,0.5,3.8,1.6c0.9,1,1.4,2.2,1.4,3.4v4.8
			c0,1.3-0.5,2.4-1.4,3.3C155.9,242.5,154.7,243,153,243z M148.7,242h4.4c1.4,0,2.4-0.4,3.1-1.1c0.7-0.7,1.1-1.6,1.1-2.7v-4.8
			c0-1-0.4-1.9-1.2-2.8c-0.8-0.8-1.8-1.3-3.1-1.3h-4.4V242z M152.5,226.8h-4.8V214h4.8c1.6,0,2.9,0.5,3.8,1.4c0.9,0.9,1.4,2,1.4,3.3
			v3.2c0,1.3-0.5,2.4-1.4,3.4C155.4,226.3,154.1,226.8,152.5,226.8z M148.7,225.9h3.8c1.4,0,2.4-0.4,3.1-1.2
			c0.8-0.8,1.1-1.8,1.1-2.8v-3.2c0-1-0.4-1.9-1.1-2.6c-0.7-0.8-1.8-1.1-3.1-1.1h-3.8V225.9z"/>
	</g>
	<g>
		<path class="st1" d="M177.4,242.5v3.2h-9v-3.2h2.6v-28.1h-2.6v-3.2h9v3.2h-2.6v28.1H177.4z"/>
		<path class="st1" d="M177.8,246.2h-9.9V242h2.6v-27.1h-2.6v-4.1h9.9v4.1h-2.6V242h2.6V246.2z M168.8,245.2h8.1V243h-2.6v-29h2.6
			v-2.2h-8.1v2.2h2.6v29h-2.6V245.2z"/>
	</g>
	<g>
		<path class="st1" d="M188.8,245.7h-3.7v-34.4h3.7v14.6l9.2-14.6h4.1l-9.4,14.8l10,19.6h-4.1l-8.2-16.1l-1.7,2.8V245.7z"/>
		<path class="st1" d="M203.5,246.2h-5.1l-7.9-15.6l-1.2,2v13.6h-4.6v-35.4h4.6v13.5l8.5-13.5h5.2l-9.7,15.3L203.5,246.2z
			 M199,245.2h3l-9.8-19.2l9.1-14.3h-3l-9.9,15.8v-15.8h-2.8v33.5h2.8v-12.9l2.3-3.6L199,245.2z"/>
	</g>
	<g>
		<path class="st1" d="M223.4,245.7h-15.6v-34.4h15.1v3.2h-11.4v12.2h9.3v3.2h-9.3v12.7h11.9V245.7z"/>
		<path class="st1" d="M223.9,246.2h-16.6v-35.4h16v4.1H212v11.3h9.3v4.1H212V242h11.9V246.2z M208.3,245.2H223V243h-11.9v-13.6h9.3
			v-2.2h-9.3V214h11.4v-2.2h-14.2V245.2z"/>
	</g>
	<g>
		<path class="st1" d="M244.6,245.7h-3.7v-34.4h8c2.8,0,4.8,0.7,6.3,2c1.4,1.3,2.1,3.1,2.1,5.5v7.4c0,3.6-1.6,5.9-4.7,6.9l6.5,12.7
			h-4.1l-6.2-12.2h-4.3V245.7z M253.6,226.1v-7.4c0-1.3-0.4-2.4-1.2-3.1c-0.8-0.7-2-1.1-3.5-1.1h-4.3v15.9h4.3
			C252.1,230.3,253.6,228.9,253.6,226.1z"/>
		<path class="st1" d="M260,246.2h-5.1l-6.2-12.2h-3.5v12.2h-4.6v-35.4h8.5c2.9,0,5.1,0.7,6.6,2.1c1.5,1.4,2.3,3.3,2.3,5.8v7.4
			c0,3.6-1.5,6-4.5,7.1L260,246.2z M255.4,245.2h3l-6.4-12.5l0.5-0.2c2.9-0.9,4.3-3,4.3-6.4v-7.4c0-2.2-0.7-3.9-2-5.1
			c-1.3-1.2-3.3-1.8-6-1.8h-7.5v33.5h2.8V233h5L255.4,245.2z M248.9,230.8h-4.8V214h4.8c1.6,0,2.9,0.4,3.8,1.2
			c0.9,0.8,1.4,2,1.4,3.5v7.4C254.1,228.2,253.2,230.8,248.9,230.8z M245.1,229.9h3.8c2.9,0,4.2-1.2,4.2-3.8v-7.4
			c0-1.2-0.3-2.1-1.1-2.8c-0.7-0.7-1.8-1-3.2-1h-3.8V229.9z"/>
	</g>
	<g>
		<path class="st1" d="M280.9,245.7h-15.6v-34.4h15.1v3.2H269v12.2h9.3v3.2H269v12.7h11.9V245.7z"/>
		<path class="st1" d="M281.4,246.2h-16.6v-35.4h16v4.1h-11.4v11.3h9.3v4.1h-9.3V242h11.9V246.2z M265.8,245.2h14.7V243h-11.9v-13.6
			h9.3v-2.2h-9.3V214h11.4v-2.2h-14.2V245.2z"/>
	</g>
	<g>
		<path class="st1" d="M291.2,245.7h-3.7v-34.4h3.7l11.5,26.5v-26.5h3.7v34.4h-3.7l-11.5-26.5V245.7z"/>
		<path class="st1" d="M306.9,246.2h-4.5l-10.7-24.7v24.7h-4.6v-35.4h4.5l10.7,24.7v-24.7h4.6V246.2z M303,245.2h2.9v-33.5h-2.8V240
			l-12.3-28.3H288v33.5h2.8V217L303,245.2z"/>
	</g>
	<g>
		<path class="st1" d="M329.5,211.3v3.2h-6.9v31.3h-3.7v-31.3H312v-3.2H329.5z"/>
		<path class="st1" d="M323.1,246.2h-4.6v-31.3h-6.9v-4.1H330v4.1h-6.9V246.2z M319.4,245.2h2.8V214h6.9v-2.2h-16.6v2.2h6.9V245.2z"
			/>
	</g>
	<g>
		<path class="st1" d="M337.5,211.3h5.6l7.8,34.4h-3.7l-1.8-7.9h-10.1l-1.8,7.9h-3.7L337.5,211.3z M340.3,215.4l-4.3,19.2h8.7
			L340.3,215.4z"/>
		<path class="st1" d="M351.5,246.2h-4.7l-1.8-7.9h-9.4l-1.8,7.9h-4.7l8-35.4h6.3L351.5,246.2z M347.6,245.2h2.8l-7.6-33.5h-4.8
			l-7.6,33.5h2.8l1.8-7.9h10.9L347.6,245.2z M345.2,235h-9.9l4.9-21.7L345.2,235z M336.5,234.1h7.5l-3.8-16.6L336.5,234.1z"/>
	</g>
	<g>
		<path class="st1" d="M357,245.7v-34.4h3.7v31.3h9.7v3.2H357z"/>
		<path class="st1" d="M370.9,246.2h-14.3v-35.4h4.6V242h9.7V246.2z M357.5,245.2h12.5V243h-9.7v-31.3h-2.8V245.2z"/>
	</g>
</g>
<g>
	<g>
		<g>
			<path class="st1" d="M119.1,224.2c2,0,3,0.4,3,1.3c0,0.2-0.1,0.4-0.2,0.5c-0.5,0.8-1.5,1.2-3.1,1.2c-1.6,0-3-0.5-4.3-1.4
				c-2,0.6-4.2,1.8-6.9,3.7c-4.1,3-6.1,6-6.1,8.9c0,3.2,2.2,5,6.6,5.4c0.9-5.4,3.5-9.4,7.8-12.1c1.4-0.9,2.9-1.6,4.6-1.9
				c1.6-0.4,2.7-0.6,3.3-0.8c0.6-0.1,1.6-0.3,3-0.5c1.4-0.2,2.3-0.4,2.5-0.4c3.4-0.6,5.5-1.2,6.5-2c1-0.7,1.4-1.4,1.4-2.1
				c0-0.2,0-0.4-0.1-0.6c-0.1-0.2,0-0.3,0.1-0.4c0.1,0,0.3,0,0.5,0.2c0.3,0.4,0.4,0.9,0.4,1.5c0,0.6-0.4,1.3-1.1,2.1
				c-1.1,1.1-2.6,1.9-4.5,2.3c-0.7,0.2-1.7,0.4-2.9,0.6c-1.2,0.2-2.1,0.4-2.6,0.6c0.7,0.7,1,1.6,1,2.9c0,2.7-1.6,5.3-4.8,7.9
				c-3.5,2.8-8.2,4.2-14.2,4.2c0,0.3-0.1,0.7-0.1,1.4c0,2.5,0.8,4.5,2.5,6c1.7,1.5,3.8,2.2,6.4,2.2c0.9,0,1.7-0.3,2.3-0.9
				c0.7-0.6,1-1.3,1-2c0-0.3-0.1-0.5-0.2-0.9c-0.1-0.3,0-0.5,0.4-0.5c0.4,0,0.6,0.5,0.6,1.4c0,1-0.4,1.8-1.3,2.6
				c-0.8,0.7-1.8,1.1-2.9,1.1c-2.8,0-5.2-0.8-7.1-2.3c-2.1-1.7-3.2-3.9-3.2-6.7c0-0.6,0-1.1,0.1-1.4c-3.2-0.3-5.6-1.1-7.2-2.4
				c-1.5-1.3-2.2-2.7-2.2-4.2c0-3.5,2.7-6.9,8.1-10.1c2.5-1.5,5-2.7,7.4-3.4c-1-1.1-1.5-2.6-1.5-4.4c0-0.9,0.2-1.7,0.7-2.3
				c1.2-1.7,3-3.1,5.4-4.1c2.9-1.3,5.8-1.9,8.7-1.9c3.9,0,5.8,1.2,5.7,3.6c-0.1,1.1-0.5,2-1.3,2.8c-0.8,0.8-1.7,1.2-2.7,1.2
				c-1,0-1.5-0.3-1.5-0.8c0-0.4,0.2-0.5,0.7-0.5l0.9,0.2c0.5,0,1-0.3,1.5-0.9c0.5-0.6,0.7-1.2,0.7-1.9c0-1-0.6-1.7-1.7-2.1
				c-0.7-0.3-1.4-0.4-2.1-0.4c-3,0-5.6,0.6-7.6,1.9c-2,1.3-3.5,2.7-4.5,4.2c-0.5,0.9-0.8,1.9-0.8,2.8c0,1,0.2,1.7,0.7,2.2
				C116.7,224.4,118,224.2,119.1,224.2z M126.5,232.8c0-1.6-0.7-2.4-2.1-2.4c-0.4,0-1.3,0.2-2.7,0.5c-7,2.6-11.1,6.9-12.3,12.9
				c0.8,0,1.6-0.1,2.4-0.2c4.7-0.5,8.4-2,11.2-4.5C125.3,237.1,126.5,235,126.5,232.8z M120.5,225.6c0-0.3-0.5-0.5-1.4-0.5
				c-1,0-2,0.1-3.1,0.3c0.9,0.6,1.9,0.9,2.9,0.9C120,226.3,120.5,226.1,120.5,225.6z"/>
		</g>
		<g>
			<path class="st1" d="M118.2,256.1c-2.9,0-5.4-0.8-7.3-2.4c-2.2-1.8-3.3-4.1-3.3-7c0-0.4,0-0.8,0-1.1c-3-0.3-5.4-1.1-7-2.4
				c-1.6-1.3-2.4-2.9-2.4-4.5c0-3.6,2.8-7.1,8.2-10.4c2.3-1.4,4.7-2.5,6.9-3.3c-0.8-1.1-1.3-2.5-1.3-4.2c0-1,0.2-1.9,0.7-2.6
				c1.2-1.8,3.1-3.2,5.6-4.2c2.9-1.3,5.9-1.9,8.9-1.9c2.5,0,4.2,0.5,5.2,1.5c0.6,0.6,0.9,1.5,0.9,2.5c-0.1,1.2-0.6,2.2-1.5,3
				c-0.9,0.8-1.9,1.3-3,1.3c-1.5,0-1.8-0.6-1.8-1.1c0-0.2,0.1-0.9,1.1-0.9l1,0.2c0.3,0,0.7-0.3,1.1-0.8c0.4-0.5,0.7-1.1,0.7-1.6
				c0-0.8-0.5-1.4-1.4-1.8c-0.7-0.2-1.3-0.4-1.9-0.4c-3,0-5.5,0.6-7.4,1.8c-2,1.2-3.4,2.6-4.3,4.1c-0.5,0.8-0.8,1.7-0.8,2.6
				c0,0.8,0.1,1.4,0.4,1.8c1.3-0.4,2.6-0.5,3.6-0.5c0.8,0,3.4,0,3.4,1.6c0,0.3-0.1,0.6-0.3,0.8c-0.6,0.9-1.7,1.3-3.4,1.3
				c-1.6,0-3.1-0.5-4.3-1.4c-1.9,0.6-4.1,1.8-6.6,3.6c-3.9,2.9-5.9,5.8-5.9,8.6c0,2.9,1.9,4.6,5.9,5c0.9-5.3,3.6-9.3,8-12
				c1.4-0.9,3-1.6,4.7-2c1.6-0.4,2.8-0.6,3.4-0.8c0.6-0.1,1.6-0.3,3.1-0.5c1.4-0.2,2.3-0.4,2.5-0.4c3.3-0.6,5.4-1.2,6.3-1.9
				c0.9-0.6,1.3-1.2,1.3-1.8c0-0.1,0-0.3-0.1-0.5c-0.1-0.5,0.1-0.8,0.4-0.8c0.3-0.1,0.5,0,0.8,0.2l0.1,0.1c0.3,0.5,0.5,1,0.5,1.7
				c0,0.7-0.4,1.5-1.2,2.4c-1.2,1.2-2.7,2-4.7,2.4c-0.7,0.2-1.7,0.4-2.9,0.6c-0.8,0.2-1.5,0.3-2,0.4c0.5,0.7,0.7,1.6,0.7,2.7
				c0,2.8-1.7,5.5-4.9,8.2c-3.5,2.8-8.2,4.3-14,4.3c0,0.3,0,0.6,0,1c0,2.4,0.8,4.3,2.4,5.7c1.6,1.4,3.7,2.1,6.2,2.1
				c0.8,0,1.5-0.3,2.1-0.8c0.6-0.5,0.9-1.1,0.9-1.8c0-0.2-0.1-0.4-0.2-0.7c-0.2-0.3-0.1-0.6,0-0.7c0.1-0.2,0.4-0.3,0.7-0.3
				c0.7,0,1,0.6,1,1.8c0,1.1-0.5,2-1.4,2.8C120.4,255.7,119.4,256.1,118.2,256.1z M113.8,225.6c-2.3,0.7-4.6,1.9-7,3.3
				c-5.2,3.1-7.9,6.4-7.9,9.8c0,1.4,0.7,2.7,2.1,3.9c1.6,1.2,3.9,2,7,2.3l0.4,0l0,0.4c0,0.3-0.1,0.8-0.1,1.4c0,2.7,1,4.8,3.1,6.4
				c1.8,1.5,4.1,2.3,6.8,2.3c1,0,1.9-0.3,2.6-1c0.8-0.7,1.1-1.4,1.1-2.3c0-0.8-0.1-1.1-0.2-1.1c0,0,0,0,0,0c0.1,0.4,0.2,0.7,0.2,1
				c0,0.9-0.4,1.7-1.1,2.3c-0.7,0.7-1.6,1-2.6,1c-2.7,0-4.9-0.8-6.6-2.3c-1.8-1.5-2.7-3.7-2.7-6.3c0-0.6,0-1.1,0.1-1.4l0-0.3h0.3
				c5.8,0,10.5-1.4,13.9-4.2c3.1-2.5,4.7-5,4.7-7.6c0-1.2-0.3-2.1-0.9-2.7l-0.5-0.5l0.7-0.2c0.6-0.1,1.4-0.3,2.7-0.6
				c1.2-0.2,2.2-0.4,2.9-0.6c1.9-0.4,3.3-1.2,4.3-2.2c0.6-0.7,1-1.4,1-1.9c0-0.4-0.1-0.8-0.3-1.1c0,0.2,0,0.3,0,0.4
				c0,0.8-0.5,1.6-1.6,2.4c-1,0.8-3.2,1.4-6.7,2c-0.2,0-1,0.2-2.5,0.4c-1.4,0.2-2.4,0.4-3,0.5c-0.6,0.1-1.7,0.4-3.3,0.8
				c-1.6,0.4-3.1,1-4.5,1.9c-4.2,2.6-6.8,6.6-7.7,11.8l-0.1,0.3l-0.3,0c-4.6-0.4-6.9-2.3-6.9-5.8c0-3,2.1-6.1,6.3-9.2
				C109.8,227.5,111.9,226.3,113.8,225.6z M114.6,225.3l0.2,0.1c1.2,0.9,2.6,1.3,4,1.3c1.4,0,2.4-0.3,2.8-1l0.1-0.1
				c0.1-0.1,0.1-0.2,0.1-0.3c0-0.8-1.7-0.9-2.7-0.9c-1,0-2.3,0.2-3.7,0.6l-0.2,0l0.7-0.1c1.1-0.2,2.2-0.3,3.2-0.3
				c0.5,0,1.8,0,1.8,0.9c0,0.7-0.7,1.1-2,1.1c-1.1,0-2.2-0.3-3.1-0.9l-0.8-0.5l0.2,0L115,225c-0.5-0.6-0.7-1.4-0.7-2.5
				c0-1,0.3-2.1,0.9-3c1-1.6,2.5-3.1,4.6-4.4c2.1-1.3,4.7-2,7.8-2c0.7,0,1.4,0.1,2.2,0.4c1.3,0.5,1.9,1.3,1.9,2.5
				c0,0.7-0.3,1.4-0.8,2.1c-0.6,0.7-1.2,1.1-1.8,1.1l-1-0.2c-0.3,0-0.3,0.1-0.3,0.2c0,0.3,0.7,0.4,1.1,0.4c0.9,0,1.7-0.3,2.4-1.1
				c0.8-0.7,1.2-1.5,1.2-2.5c0-0.8-0.2-1.5-0.7-2c-0.8-0.8-2.4-1.3-4.6-1.3c-2.9,0-5.8,0.6-8.6,1.9c-2.4,1-4.1,2.3-5.3,4
				c-0.4,0.6-0.6,1.3-0.6,2.1c0,1.7,0.5,3.1,1.4,4.2L114.6,225.3L114.6,225.3z M117.2,225.6c0.6,0.2,1.1,0.3,1.7,0.3
				c0.7,0,1.1-0.1,1.2-0.3c-0.1,0-0.3-0.1-1.1-0.1C118.5,225.5,117.8,225.5,117.2,225.6z M109.5,244.2H109l0.1-0.4
				c1.2-6.1,5.4-10.5,12.5-13.2c1.4-0.4,2.3-0.5,2.8-0.5c1.1,0,2.4,0.5,2.4,2.8c0,2.3-1.2,4.5-3.6,6.7c-2.8,2.5-6.6,4-11.4,4.6
				C111.1,244.1,110.3,244.2,109.5,244.2z M124.4,230.8c-0.3,0-1,0.1-2.6,0.5c-6.6,2.5-10.6,6.6-11.9,12.2c0.6,0,1.3-0.1,1.9-0.2
				c4.6-0.5,8.3-2,11-4.4c2.2-2,3.3-4,3.3-6.1C126.1,231,125.2,230.8,124.4,230.8z"/>
		</g>
	</g>
</g>
</svg>
